<svg xmlns="http://www.w3.org/2000/svg" xmlns:xlink="http://www.w3.org/1999/xlink" version="1.1" class="marks" width="802" height="339" viewBox="0 0 802 339"><rect width="802" height="339" fill="white"/><g fill="none" stroke-miterlimit="10" transform="translate(69,81)"><g class="mark-group role-frame root" role="graphics-object" aria-roledescription="group mark container"><g transform="translate(0,0)"><path class="background" aria-hidden="true" d="M0,0h0v0h0Z"/><g><g class="mark-group role-column-title column-title" role="graphics-object" aria-roledescription="group mark container"><g transform="translate(325,-33)"><path class="background" aria-hidden="true" d="M0,0h0v0h0Z"/><g><g class="mark-group role-title"><g transform="translate(0,-22)"><path class="background" aria-hidden="true" d="M0,0h0v0h0Z" pointer-events="none"/><g><g class="mark-text role-title-text" role="graphics-symbol" aria-roledescription="title" aria-label="Title text 'processes'" pointer-events="none"><text text-anchor="middle" transform="translate(0,9)" font-family="Helvetica" font-size="12px" font-weight="bold" fill="#111827" opacity="1">processes</text></g></g><path class="foreground" aria-hidden="true" d="" pointer-events="none" display="none"/></g></g></g><path class="foreground" aria-hidden="true" d="" display="none"/></g></g><g class="mark-group role-row-header row_header" role="graphics-object" aria-roledescription="group mark container"><g transform="translate(-3,0)"><path class="background" aria-hidden="true" d="M0,0h0v220h0Z"/><g><g class="mark-group role-axis" role="graphics-symbol" aria-roledescription="axis" aria-label="Y-axis titled 'Latency (ms)' for a linear scale with values from 0 to 20,000"><g transform="translate(0.5,0.5)"><path class="background" aria-hidden="true" d="M0,0h0v0h0Z" pointer-events="none"/><g><g class="mark-rule role-axis-tick" pointer-events="none"><line transform="translate(0,220)" x2="-5" y2="0" stroke="#9ca3af" stroke-width="1" opacity="1"/><line transform="translate(0,165)" x2="-5" y2="0" stroke="#9ca3af" stroke-width="1" opacity="1"/><line transform="translate(0,110)" x2="-5" y2="0" stroke="#9ca3af" stroke-width="1" opacity="1"/><line transform="translate(0,55)" x2="-5" y2="0" stroke="#9ca3af" stroke-width="1" opacity="1"/><line transform="translate(0,0)" x2="-5" y2="0" stroke="#9ca3af" stroke-width="1" opacity="1"/></g><g class="mark-text role-axis-label" pointer-events="none"><text text-anchor="end" transform="translate(-7,224)" font-family="Helvetica" font-size="12px" fill="#111827" opacity="1">0</text><text text-anchor="end" transform="translate(-7,169)" font-family="Helvetica" font-size="12px" fill="#111827" opacity="1">5,000</text><text text-anchor="end" transform="translate(-7,114)" font-family="Helvetica" font-size="12px" fill="#111827" opacity="1">10,000</text><text text-anchor="end" transform="translate(-7,59)" font-family="Helvetica" font-size="12px" fill="#111827" opacity="1">15,000</text><text text-anchor="end" transform="translate(-7,4)" font-family="Helvetica" font-size="12px" fill="#111827" opacity="1">20,000</text></g><g class="mark-rule role-axis-domain" pointer-events="none"><line transform="translate(0,220)" x2="0" y2="-220" stroke="#111827" stroke-width="1" opacity="1"/></g><g class="mark-text role-axis-title" pointer-events="none"><text text-anchor="middle" transform="translate(-47.6953125,110) rotate(-90) translate(0,-3)" font-family="Helvetica" font-size="12px" font-weight="bold" fill="#111827" opacity="1">Latency (ms)</text></g></g><path class="foreground" aria-hidden="true" d="" pointer-events="none" display="none"/></g></g></g><path class="foreground" aria-hidden="true" d="" display="none"/></g></g><g class="mark-group role-column-header column_header" role="graphics-object" aria-roledescription="group mark container"><g transform="translate(0,0)"><path class="background" aria-hidden="true" d="M0,0h200v0h-200Z"/><g><g class="mark-group role-title"><g transform="translate(100,-22)"><path class="background" aria-hidden="true" d="M0,0h0v0h0Z" pointer-events="none"/><g><g class="mark-text role-title-text" role="graphics-symbol" aria-roledescription="title" aria-label="Title text '1 proc'" pointer-events="none"><text text-anchor="middle" transform="translate(0,9)" font-family="Helvetica" font-size="12px" fill="#111827" opacity="1">1 proc</text></g></g><path class="foreground" aria-hidden="true" d="" pointer-events="none" display="none"/></g></g></g><path class="foreground" aria-hidden="true" d="" display="none"/></g><g transform="translate(226,0)"><path class="background" aria-hidden="true" d="M0,0h200v0h-200Z"/><g><g class="mark-group role-title"><g transform="translate(100,-22)"><path class="background" aria-hidden="true" d="M0,0h0v0h0Z" pointer-events="none"/><g><g class="mark-text role-title-text" role="graphics-symbol" aria-roledescription="title" aria-label="Title text '2 proc'" pointer-events="none"><text text-anchor="middle" transform="translate(0,9)" font-family="Helvetica" font-size="12px" fill="#111827" opacity="1">2 proc</text></g></g><path class="foreground" aria-hidden="true" d="" pointer-events="none" display="none"/></g></g></g><path class="foreground" aria-hidden="true" d="" display="none"/></g><g transform="translate(452,0)"><path class="background" aria-hidden="true" d="M0,0h200v0h-200Z"/><g><g class="mark-group role-title"><g transform="translate(100,-22)"><path class="background" aria-hidden="true" d="M0,0h0v0h0Z" pointer-events="none"/><g><g class="mark-text role-title-text" role="graphics-symbol" aria-roledescription="title" aria-label="Title text '6 proc'" pointer-events="none"><text text-anchor="middle" transform="translate(0,9)" font-family="Helvetica" font-size="12px" fill="#111827" opacity="1">6 proc</text></g></g><path class="foreground" aria-hidden="true" d="" pointer-events="none" display="none"/></g></g></g><path class="foreground" aria-hidden="true" d="" display="none"/></g></g><g class="mark-group role-column-footer column_footer" role="graphics-object" aria-roledescription="group mark container"><g transform="translate(0,220)"><path class="background" aria-hidden="true" d="M0,0h200v0h-200Z"/><g><g class="mark-group role-axis" role="graphics-symbol" aria-roledescription="axis" aria-label="X-axis titled 'Concurrency' for a linear scale with values from 5 to 50"><g transform="translate(0.5,0.5)"><path class="background" aria-hidden="true" d="M0,0h0v0h0Z" pointer-events="none"/><g><g class="mark-rule role-axis-tick" pointer-events="none"><line transform="translate(22,0)" x2="0" y2="5" stroke="#9ca3af" stroke-width="1" opacity="1"/><line transform="translate(67,0)" x2="0" y2="5" stroke="#9ca3af" stroke-width="1" opacity="1"/><line transform="translate(111,0)" x2="0" y2="5" stroke="#9ca3af" stroke-width="1" opacity="1"/><line transform="translate(156,0)" x2="0" y2="5" stroke="#9ca3af" stroke-width="1" opacity="1"/><line transform="translate(200,0)" x2="0" y2="5" stroke="#9ca3af" stroke-width="1" opacity="1"/></g><g class="mark-text role-axis-label" pointer-events="none"><text text-anchor="middle" transform="translate(22.22222222222222,16)" font-family="Helvetica" font-size="12px" fill="#111827" opacity="1">10</text><text text-anchor="middle" transform="translate(66.66666666666666,16)" font-family="Helvetica" font-size="12px" fill="#111827" opacity="1">20</text><text text-anchor="middle" transform="translate(111.11111111111111,16)" font-family="Helvetica" font-size="12px" fill="#111827" opacity="1">30</text><text text-anchor="middle" transform="translate(155.55555555555557,16)" font-family="Helvetica" font-size="12px" fill="#111827" opacity="1">40</text><text text-anchor="end" transform="translate(200,16)" font-family="Helvetica" font-size="12px" fill="#111827" opacity="1">50</text></g><g class="mark-rule role-axis-domain" pointer-events="none"><line transform="translate(0,0)" x2="200" y2="0" stroke="#111827" stroke-width="1" opacity="1"/></g><g class="mark-text role-axis-title" pointer-events="none"><text text-anchor="middle" transform="translate(100,31)" font-family="Helvetica" font-size="12px" font-weight="bold" fill="#111827" opacity="1">Concurrency</text></g></g><path class="foreground" aria-hidden="true" d="" pointer-events="none" display="none"/></g></g></g><path class="foreground" aria-hidden="true" d="" display="none"/></g><g transform="translate(226,220)"><path class="background" aria-hidden="true" d="M0,0h200v0h-200Z"/><g><g class="mark-group role-axis" role="graphics-symbol" aria-roledescription="axis" aria-label="X-axis titled 'Concurrency' for a linear scale with values from 5 to 50"><g transform="translate(0.5,0.5)"><path class="background" aria-hidden="true" d="M0,0h0v0h0Z" pointer-events="none"/><g><g class="mark-rule role-axis-tick" pointer-events="none"><line transform="translate(22,0)" x2="0" y2="5" stroke="#9ca3af" stroke-width="1" opacity="1"/><line transform="translate(67,0)" x2="0" y2="5" stroke="#9ca3af" stroke-width="1" opacity="1"/><line transform="translate(111,0)" x2="0" y2="5" stroke="#9ca3af" stroke-width="1" opacity="1"/><line transform="translate(156,0)" x2="0" y2="5" stroke="#9ca3af" stroke-width="1" opacity="1"/><line transform="translate(200,0)" x2="0" y2="5" stroke="#9ca3af" stroke-width="1" opacity="1"/></g><g class="mark-text role-axis-label" pointer-events="none"><text text-anchor="middle" transform="translate(22.22222222222222,16)" font-family="Helvetica" font-size="12px" fill="#111827" opacity="1">10</text><text text-anchor="middle" transform="translate(66.66666666666666,16)" font-family="Helvetica" font-size="12px" fill="#111827" opacity="1">20</text><text text-anchor="middle" transform="translate(111.11111111111111,16)" font-family="Helvetica" font-size="12px" fill="#111827" opacity="1">30</text><text text-anchor="middle" transform="translate(155.55555555555557,16)" font-family="Helvetica" font-size="12px" fill="#111827" opacity="1">40</text><text text-anchor="end" transform="translate(200,16)" font-family="Helvetica" font-size="12px" fill="#111827" opacity="1">50</text></g><g class="mark-rule role-axis-domain" pointer-events="none"><line transform="translate(0,0)" x2="200" y2="0" stroke="#111827" stroke-width="1" opacity="1"/></g><g class="mark-text role-axis-title" pointer-events="none"><text text-anchor="middle" transform="translate(100,31)" font-family="Helvetica" font-size="12px" font-weight="bold" fill="#111827" opacity="1">Concurrency</text></g></g><path class="foreground" aria-hidden="true" d="" pointer-events="none" display="none"/></g></g></g><path class="foreground" aria-hidden="true" d="" display="none"/></g><g transform="translate(452,220)"><path class="background" aria-hidden="true" d="M0,0h200v0h-200Z"/><g><g class="mark-group role-axis" role="graphics-symbol" aria-roledescription="axis" aria-label="X-axis titled 'Concurrency' for a linear scale with values from 5 to 50"><g transform="translate(0.5,0.5)"><path class="background" aria-hidden="true" d="M0,0h0v0h0Z" pointer-events="none"/><g><g class="mark-rule role-axis-tick" pointer-events="none"><line transform="translate(22,0)" x2="0" y2="5" stroke="#9ca3af" stroke-width="1" opacity="1"/><line transform="translate(67,0)" x2="0" y2="5" stroke="#9ca3af" stroke-width="1" opacity="1"/><line transform="translate(111,0)" x2="0" y2="5" stroke="#9ca3af" stroke-width="1" opacity="1"/><line transform="translate(156,0)" x2="0" y2="5" stroke="#9ca3af" stroke-width="1" opacity="1"/><line transform="translate(200,0)" x2="0" y2="5" stroke="#9ca3af" stroke-width="1" opacity="1"/></g><g class="mark-text role-axis-label" pointer-events="none"><text text-anchor="middle" transform="translate(22.22222222222222,16)" font-family="Helvetica" font-size="12px" fill="#111827" opacity="1">10</text><text text-anchor="middle" transform="translate(66.66666666666666,16)" font-family="Helvetica" font-size="12px" fill="#111827" opacity="1">20</text><text text-anchor="middle" transform="translate(111.11111111111111,16)" font-family="Helvetica" font-size="12px" fill="#111827" opacity="1">30</text><text text-anchor="middle" transform="translate(155.55555555555557,16)" font-family="Helvetica" font-size="12px" fill="#111827" opacity="1">40</text><text text-anchor="end" transform="translate(200,16)" font-family="Helvetica" font-size="12px" fill="#111827" opacity="1">50</text></g><g class="mark-rule role-axis-domain" pointer-events="none"><line transform="translate(0,0)" x2="200" y2="0" stroke="#111827" stroke-width="1" opacity="1"/></g><g class="mark-text role-axis-title" pointer-events="none"><text text-anchor="middle" transform="translate(100,31)" font-family="Helvetica" font-size="12px" font-weight="bold" fill="#111827" opacity="1">Concurrency</text></g></g><path class="foreground" aria-hidden="true" d="" pointer-events="none" display="none"/></g></g></g><path class="foreground" aria-hidden="true" d="" display="none"/></g></g><g class="mark-group role-scope cell" role="graphics-object" aria-roledescription="group mark container"><g transform="translate(0,0)"><path class="background" aria-hidden="true" d="M0,0h200v220h-200Z"/><g><g class="mark-group role-axis" aria-hidden="true"><g transform="translate(0.5,220.5)"><path class="background" aria-hidden="true" d="M0,0h0v0h0Z" pointer-events="none"/><g><g class="mark-rule role-axis-grid" pointer-events="none"><line transform="translate(22,-220)" x2="0" y2="220" stroke="#e5e7eb" stroke-width="1" opacity="1"/><line transform="translate(67,-220)" x2="0" y2="220" stroke="#e5e7eb" stroke-width="1" opacity="1"/><line transform="translate(111,-220)" x2="0" y2="220" stroke="#e5e7eb" stroke-width="1" opacity="1"/><line transform="translate(156,-220)" x2="0" y2="220" stroke="#e5e7eb" stroke-width="1" opacity="1"/><line transform="translate(200,-220)" x2="0" y2="220" stroke="#e5e7eb" stroke-width="1" opacity="1"/></g></g><path class="foreground" aria-hidden="true" d="" pointer-events="none" display="none"/></g></g><g class="mark-group role-axis" aria-hidden="true"><g transform="translate(0.5,0.5)"><path class="background" aria-hidden="true" d="M0,0h0v0h0Z" pointer-events="none"/><g><g class="mark-rule role-axis-grid" pointer-events="none"><line transform="translate(0,220)" x2="200" y2="0" stroke="#e5e7eb" stroke-width="1" opacity="1"/><line transform="translate(0,165)" x2="200" y2="0" stroke="#e5e7eb" stroke-width="1" opacity="1"/><line transform="translate(0,110)" x2="200" y2="0" stroke="#e5e7eb" stroke-width="1" opacity="1"/><line transform="translate(0,55)" x2="200" y2="0" stroke="#e5e7eb" stroke-width="1" opacity="1"/><line transform="translate(0,0)" x2="200" y2="0" stroke="#e5e7eb" stroke-width="1" opacity="1"/></g></g><path class="foreground" aria-hidden="true" d="" pointer-events="none" display="none"/></g></g><g class="mark-group role-scope child_layer_0_pathgroup" role="graphics-object" aria-roledescription="group mark container"><g transform="translate(0,0)"><path class="background" aria-hidden="true" d="M0,0h200v220h-200Z"/><g><g class="mark-line role-mark child_layer_0_marks" role="graphics-object" aria-roledescription="line mark container"><path aria-label="Concurrency: 5; Latency (ms): 9809.33; percentile: p50; mode: fiber; concurrency: 5; processes: 1 proc; metric: undefined; value: 9809.33" role="graphics-symbol" aria-roledescription="line mark" d="M0,112.097L22.222,112.502L88.889,112.243L200,111.414" stroke="#4c78a8" stroke-width="2" stroke-dasharray="1,0"/></g></g><path class="foreground" aria-hidden="true" d="" display="none"/></g><g transform="translate(0,0)"><path class="background" aria-hidden="true" d="M0,0h200v220h-200Z"/><g><g class="mark-line role-mark child_layer_0_marks" role="graphics-object" aria-roledescription="line mark container"><path aria-label="Concurrency: 5; Latency (ms): 18239.76; percentile: p95; mode: fiber; concurrency: 5; processes: 1 proc; metric: undefined; value: 18239.76" role="graphics-symbol" aria-roledescription="line mark" d="M0,19.363L22.222,19.165L88.889,18.285L200,16.759" stroke="#f58518" stroke-width="2" stroke-dasharray="1,0"/></g></g><path class="foreground" aria-hidden="true" d="" display="none"/></g><g transform="translate(0,0)"><path class="background" aria-hidden="true" d="M0,0h200v220h-200Z"/><g><g class="mark-line role-mark child_layer_0_marks" role="graphics-object" aria-roledescription="line mark container"><path aria-label="Concurrency: 5; Latency (ms): 18988.01; percentile: p99; mode: fiber; concurrency: 5; processes: 1 proc; metric: undefined; value: 18988.01" role="graphics-symbol" aria-roledescription="line mark" d="M0,11.132L22.222,10.817L88.889,9.891L200,8.53" stroke="#e45756" stroke-width="2" stroke-dasharray="1,0"/></g></g><path class="foreground" aria-hidden="true" d="" display="none"/></g><g transform="translate(0,0)"><path class="background" aria-hidden="true" d="M0,0h200v220h-200Z"/><g><g class="mark-line role-mark child_layer_0_marks" role="graphics-object" aria-roledescription="line mark container"><path aria-label="Concurrency: 5; Latency (ms): 19173.77; percentile: max; mode: fiber; concurrency: 5; processes: 1 proc; metric: undefined; value: 19173.77" role="graphics-symbol" aria-roledescription="line mark" d="M0,9.089L22.222,8.725L88.889,7.838L200,6.478" stroke="#72b7b2" stroke-width="2" stroke-dasharray="1,0"/></g></g><path class="foreground" aria-hidden="true" d="" display="none"/></g></g><g class="mark-symbol role-mark child_layer_1_marks" role="graphics-object" aria-roledescription="symbol mark container"><path aria-label="Concurrency: 5; Latency (ms): 9809.33; percentile: p50; mode: fiber; concurrency: 5; processes: 1 proc; metric: undefined; value: 9809.33" role="graphics-symbol" aria-roledescription="point" transform="translate(0,112.09737000000001)" d="M2.739,0A2.739,2.739,0,1,1,-2.739,0A2.739,2.739,0,1,1,2.739,0" fill="#4c78a8" stroke-width="2" stroke-dasharray="1,0" opacity="1"/><path aria-label="Concurrency: 5; Latency (ms): 18239.76; percentile: p95; mode: fiber; concurrency: 5; processes: 1 proc; metric: undefined; value: 18239.76" role="graphics-symbol" aria-roledescription="point" transform="translate(0,19.36264000000002)" d="M2.739,0A2.739,2.739,0,1,1,-2.739,0A2.739,2.739,0,1,1,2.739,0" fill="#f58518" stroke-width="2" stroke-dasharray="1,0" opacity="1"/><path aria-label="Concurrency: 5; Latency (ms): 18988.01; percentile: p99; mode: fiber; concurrency: 5; processes: 1 proc; metric: undefined; value: 18988.01" role="graphics-symbol" aria-roledescription="point" transform="translate(0,11.131890000000029)" d="M2.739,0A2.739,2.739,0,1,1,-2.739,0A2.739,2.739,0,1,1,2.739,0" fill="#e45756" stroke-width="2" stroke-dasharray="1,0" opacity="1"/><path aria-label="Concurrency: 5; Latency (ms): 19173.77; percentile: max; mode: fiber; concurrency: 5; processes: 1 proc; metric: undefined; value: 19173.77" role="graphics-symbol" aria-roledescription="point" transform="translate(0,9.088529999999988)" d="M2.739,0A2.739,2.739,0,1,1,-2.739,0A2.739,2.739,0,1,1,2.739,0" fill="#72b7b2" stroke-width="2" stroke-dasharray="1,0" opacity="1"/><path aria-label="Concurrency: 10; Latency (ms): 9772.54; percentile: p50; mode: fiber; concurrency: 10; processes: 1 proc; metric: undefined; value: 9772.54" role="graphics-symbol" aria-roledescription="point" transform="translate(22.22222222222222,112.50205999999999)" d="M2.739,0A2.739,2.739,0,1,1,-2.739,0A2.739,2.739,0,1,1,2.739,0" fill="#4c78a8" stroke-width="2" stroke-dasharray="1,0" opacity="1"/><path aria-label="Concurrency: 10; Latency (ms): 18257.7; percentile: p95; mode: fiber; concurrency: 10; processes: 1 proc; metric: undefined; value: 18257.7" role="graphics-symbol" aria-roledescription="point" transform="translate(22.22222222222222,19.165299999999988)" d="M2.739,0A2.739,2.739,0,1,1,-2.739,0A2.739,2.739,0,1,1,2.739,0" fill="#f58518" stroke-width="2" stroke-dasharray="1,0" opacity="1"/><path aria-label="Concurrency: 10; Latency (ms): 19016.68; percentile: p99; mode: fiber; concurrency: 10; processes: 1 proc; metric: undefined; value: 19016.68" role="graphics-symbol" aria-roledescription="point" transform="translate(22.22222222222222,10.816519999999985)" d="M2.739,0A2.739,2.739,0,1,1,-2.739,0A2.739,2.739,0,1,1,2.739,0" fill="#e45756" stroke-width="2" stroke-dasharray="1,0" opacity="1"/><path aria-label="Concurrency: 10; Latency (ms): 19206.86; percentile: max; mode: fiber; concurrency: 10; processes: 1 proc; metric: undefined; value: 19206.86" role="graphics-symbol" aria-roledescription="point" transform="translate(22.22222222222222,8.724539999999987)" d="M2.739,0A2.739,2.739,0,1,1,-2.739,0A2.739,2.739,0,1,1,2.739,0" fill="#72b7b2" stroke-width="2" stroke-dasharray="1,0" opacity="1"/><path aria-label="Concurrency: 25; Latency (ms): 9796.08; percentile: p50; mode: fiber; concurrency: 25; processes: 1 proc; metric: undefined; value: 9796.08" role="graphics-symbol" aria-roledescription="point" transform="translate(88.88888888888889,112.24311999999999)" d="M2.739,0A2.739,2.739,0,1,1,-2.739,0A2.739,2.739,0,1,1,2.739,0" fill="#4c78a8" stroke-width="2" stroke-dasharray="1,0" opacity="1"/><path aria-label="Concurrency: 25; Latency (ms): 18337.72; percentile: p95; mode: fiber; concurrency: 25; processes: 1 proc; metric: undefined; value: 18337.72" role="graphics-symbol" aria-roledescription="point" transform="translate(88.88888888888889,18.28507999999998)" d="M2.739,0A2.739,2.739,0,1,1,-2.739,0A2.739,2.739,0,1,1,2.739,0" fill="#f58518" stroke-width="2" stroke-dasharray="1,0" opacity="1"/><path aria-label="Concurrency: 25; Latency (ms): 19100.84; percentile: p99; mode: fiber; concurrency: 25; processes: 1 proc; metric: undefined; value: 19100.84" role="graphics-symbol" aria-roledescription="point" transform="translate(88.88888888888889,9.890759999999988)" d="M2.739,0A2.739,2.739,0,1,1,-2.739,0A2.739,2.739,0,1,1,2.739,0" fill="#e45756" stroke-width="2" stroke-dasharray="1,0" opacity="1"/><path aria-label="Concurrency: 25; Latency (ms): 19287.44; percentile: max; mode: fiber; concurrency: 25; processes: 1 proc; metric: undefined; value: 19287.44" role="graphics-symbol" aria-roledescription="point" transform="translate(88.88888888888889,7.838160000000023)" d="M2.739,0A2.739,2.739,0,1,1,-2.739,0A2.739,2.739,0,1,1,2.739,0" fill="#72b7b2" stroke-width="2" stroke-dasharray="1,0" opacity="1"/><path aria-label="Concurrency: 50; Latency (ms): 9871.47; percentile: p50; mode: fiber; concurrency: 50; processes: 1 proc; metric: undefined; value: 9871.47" role="graphics-symbol" aria-roledescription="point" transform="translate(200,111.41383000000002)" d="M2.739,0A2.739,2.739,0,1,1,-2.739,0A2.739,2.739,0,1,1,2.739,0" fill="#4c78a8" stroke-width="2" stroke-dasharray="1,0" opacity="1"/><path aria-label="Concurrency: 50; Latency (ms): 18476.45; percentile: p95; mode: fiber; concurrency: 50; processes: 1 proc; metric: undefined; value: 18476.45" role="graphics-symbol" aria-roledescription="point" transform="translate(200,16.759050000000002)" d="M2.739,0A2.739,2.739,0,1,1,-2.739,0A2.739,2.739,0,1,1,2.739,0" fill="#f58518" stroke-width="2" stroke-dasharray="1,0" opacity="1"/><path aria-label="Concurrency: 50; Latency (ms): 19224.58; percentile: p99; mode: fiber; concurrency: 50; processes: 1 proc; metric: undefined; value: 19224.58" role="graphics-symbol" aria-roledescription="point" transform="translate(200,8.529619999999976)" d="M2.739,0A2.739,2.739,0,1,1,-2.739,0A2.739,2.739,0,1,1,2.739,0" fill="#e45756" stroke-width="2" stroke-dasharray="1,0" opacity="1"/><path aria-label="Concurrency: 50; Latency (ms): 19411.06; percentile: max; mode: fiber; concurrency: 50; processes: 1 proc; metric: undefined; value: 19411.06" role="graphics-symbol" aria-roledescription="point" transform="translate(200,6.478339999999976)" d="M2.739,0A2.739,2.739,0,1,1,-2.739,0A2.739,2.739,0,1,1,2.739,0" fill="#72b7b2" stroke-width="2" stroke-dasharray="1,0" opacity="1"/></g></g><path class="foreground" aria-hidden="true" d="" display="none"/></g><g transform="translate(226,0)"><path class="background" aria-hidden="true" d="M0,0h200v220h-200Z"/><g><g class="mark-group role-axis" aria-hidden="true"><g transform="translate(0.5,220.5)"><path class="background" aria-hidden="true" d="M0,0h0v0h0Z" pointer-events="none"/><g><g class="mark-rule role-axis-grid" pointer-events="none"><line transform="translate(22,-220)" x2="0" y2="220" stroke="#e5e7eb" stroke-width="1" opacity="1"/><line transform="translate(67,-220)" x2="0" y2="220" stroke="#e5e7eb" stroke-width="1" opacity="1"/><line transform="translate(111,-220)" x2="0" y2="220" stroke="#e5e7eb" stroke-width="1" opacity="1"/><line transform="translate(156,-220)" x2="0" y2="220" stroke="#e5e7eb" stroke-width="1" opacity="1"/><line transform="translate(200,-220)" x2="0" y2="220" stroke="#e5e7eb" stroke-width="1" opacity="1"/></g></g><path class="foreground" aria-hidden="true" d="" pointer-events="none" display="none"/></g></g><g class="mark-group role-axis" aria-hidden="true"><g transform="translate(0.5,0.5)"><path class="background" aria-hidden="true" d="M0,0h0v0h0Z" pointer-events="none"/><g><g class="mark-rule role-axis-grid" pointer-events="none"><line transform="translate(0,220)" x2="200" y2="0" stroke="#e5e7eb" stroke-width="1" opacity="1"/><line transform="translate(0,165)" x2="200" y2="0" stroke="#e5e7eb" stroke-width="1" opacity="1"/><line transform="translate(0,110)" x2="200" y2="0" stroke="#e5e7eb" stroke-width="1" opacity="1"/><line transform="translate(0,55)" x2="200" y2="0" stroke="#e5e7eb" stroke-width="1" opacity="1"/><line transform="translate(0,0)" x2="200" y2="0" stroke="#e5e7eb" stroke-width="1" opacity="1"/></g></g><path class="foreground" aria-hidden="true" d="" pointer-events="none" display="none"/></g></g><g class="mark-group role-scope child_layer_0_pathgroup" role="graphics-object" aria-roledescription="group mark container"><g transform="translate(0,0)"><path class="background" aria-hidden="true" d="M0,0h200v220h-200Z"/><g><g class="mark-line role-mark child_layer_0_marks" role="graphics-object" aria-roledescription="line mark container"><path aria-label="Concurrency: 5; Latency (ms): 5228.97; percentile: p50; mode: fiber; concurrency: 5; processes: 2 proc; metric: undefined; value: 5228.97" role="graphics-symbol" aria-roledescription="line mark" d="M0,162.481L22.222,162.491L88.889,161.913" stroke="#4c78a8" stroke-width="2" stroke-dasharray="1,0"/></g></g><path class="foreground" aria-hidden="true" d="" display="none"/></g><g transform="translate(0,0)"><path class="background" aria-hidden="true" d="M0,0h200v220h-200Z"/><g><g class="mark-line role-mark child_layer_0_marks" role="graphics-object" aria-roledescription="line mark container"><path aria-label="Concurrency: 5; Latency (ms): 9727.8; percentile: p95; mode: fiber; concurrency: 5; processes: 2 proc; metric: undefined; value: 9727.8" role="graphics-symbol" aria-roledescription="line mark" d="M0,112.994L22.222,113.044L88.889,111.7" stroke="#f58518" stroke-width="2" stroke-dasharray="1,0"/></g></g><path class="foreground" aria-hidden="true" d="" display="none"/></g><g transform="translate(0,0)"><path class="background" aria-hidden="true" d="M0,0h200v220h-200Z"/><g><g class="mark-line role-mark child_layer_0_marks" role="graphics-object" aria-roledescription="line mark container"><path aria-label="Concurrency: 5; Latency (ms): 10135.25; percentile: p99; mode: fiber; concurrency: 5; processes: 2 proc; metric: undefined; value: 10135.25" role="graphics-symbol" aria-roledescription="line mark" d="M0,108.512L22.222,107.075L88.889,107.22" stroke="#e45756" stroke-width="2" stroke-dasharray="1,0"/></g></g><path class="foreground" aria-hidden="true" d="" display="none"/></g><g transform="translate(0,0)"><path class="background" aria-hidden="true" d="M0,0h200v220h-200Z"/><g><g class="mark-line role-mark child_layer_0_marks" role="graphics-object" aria-roledescription="line mark container"><path aria-label="Concurrency: 5; Latency (ms): 10286.85; percentile: max; mode: fiber; concurrency: 5; processes: 2 proc; metric: undefined; value: 10286.85" role="graphics-symbol" aria-roledescription="line mark" d="M0,106.845L22.222,105.064L88.889,105.911" stroke="#72b7b2" stroke-width="2" stroke-dasharray="1,0"/></g></g><path class="foreground" aria-hidden="true" d="" display="none"/></g></g><g class="mark-symbol role-mark child_layer_1_marks" role="graphics-object" aria-roledescription="symbol mark container"><path aria-label="Concurrency: 5; Latency (ms): 5228.97; percentile: p50; mode: fiber; concurrency: 5; processes: 2 proc; metric: undefined; value: 5228.97" role="graphics-symbol" aria-roledescription="point" transform="translate(0,162.48133)" d="M2.739,0A2.739,2.739,0,1,1,-2.739,0A2.739,2.739,0,1,1,2.739,0" fill="#4c78a8" stroke-width="2" stroke-dasharray="1,0" opacity="1"/><path aria-label="Concurrency: 5; Latency (ms): 9727.8; percentile: p95; mode: fiber; concurrency: 5; processes: 2 proc; metric: undefined; value: 9727.8" role="graphics-symbol" aria-roledescription="point" transform="translate(0,112.9942)" d="M2.739,0A2.739,2.739,0,1,1,-2.739,0A2.739,2.739,0,1,1,2.739,0" fill="#f58518" stroke-width="2" stroke-dasharray="1,0" opacity="1"/><path aria-label="Concurrency: 5; Latency (ms): 10135.25; percentile: p99; mode: fiber; concurrency: 5; processes: 2 proc; metric: undefined; value: 10135.25" role="graphics-symbol" aria-roledescription="point" transform="translate(0,108.51225)" d="M2.739,0A2.739,2.739,0,1,1,-2.739,0A2.739,2.739,0,1,1,2.739,0" fill="#e45756" stroke-width="2" stroke-dasharray="1,0" opacity="1"/><path aria-label="Concurrency: 5; Latency (ms): 10286.85; percentile: max; mode: fiber; concurrency: 5; processes: 2 proc; metric: undefined; value: 10286.85" role="graphics-symbol" aria-roledescription="point" transform="translate(0,106.84464999999999)" d="M2.739,0A2.739,2.739,0,1,1,-2.739,0A2.739,2.739,0,1,1,2.739,0" fill="#72b7b2" stroke-width="2" stroke-dasharray="1,0" opacity="1"/><path aria-label="Concurrency: 10; Latency (ms): 5228.06; percentile: p50; mode: fiber; concurrency: 10; processes: 2 proc; metric: undefined; value: 5228.06" role="graphics-symbol" aria-roledescription="point" transform="translate(22.22222222222222,162.49133999999998)" d="M2.739,0A2.739,2.739,0,1,1,-2.739,0A2.739,2.739,0,1,1,2.739,0" fill="#4c78a8" stroke-width="2" stroke-dasharray="1,0" opacity="1"/><path aria-label="Concurrency: 10; Latency (ms): 9723.23; percentile: p95; mode: fiber; concurrency: 10; processes: 2 proc; metric: undefined; value: 9723.23" role="graphics-symbol" aria-roledescription="point" transform="translate(22.22222222222222,113.04447000000002)" d="M2.739,0A2.739,2.739,0,1,1,-2.739,0A2.739,2.739,0,1,1,2.739,0" fill="#f58518" stroke-width="2" stroke-dasharray="1,0" opacity="1"/><path aria-label="Concurrency: 10; Latency (ms): 10265.88; percentile: p99; mode: fiber; concurrency: 10; processes: 2 proc; metric: undefined; value: 10265.88" role="graphics-symbol" aria-roledescription="point" transform="translate(22.22222222222222,107.07532000000002)" d="M2.739,0A2.739,2.739,0,1,1,-2.739,0A2.739,2.739,0,1,1,2.739,0" fill="#e45756" stroke-width="2" stroke-dasharray="1,0" opacity="1"/><path aria-label="Concurrency: 10; Latency (ms): 10448.73; percentile: max; mode: fiber; concurrency: 10; processes: 2 proc; metric: undefined; value: 10448.73" role="graphics-symbol" aria-roledescription="point" transform="translate(22.22222222222222,105.06397000000001)" d="M2.739,0A2.739,2.739,0,1,1,-2.739,0A2.739,2.739,0,1,1,2.739,0" fill="#72b7b2" stroke-width="2" stroke-dasharray="1,0" opacity="1"/><path aria-label="Concurrency: 25; Latency (ms): 5280.63; percentile: p50; mode: fiber; concurrency: 25; processes: 2 proc; metric: undefined; value: 5280.63" role="graphics-symbol" aria-roledescription="point" transform="translate(88.88888888888889,161.91307)" d="M2.739,0A2.739,2.739,0,1,1,-2.739,0A2.739,2.739,0,1,1,2.739,0" fill="#4c78a8" stroke-width="2" stroke-dasharray="1,0" opacity="1"/><path aria-label="Concurrency: 25; Latency (ms): 9845.48; percentile: p95; mode: fiber; concurrency: 25; processes: 2 proc; metric: undefined; value: 9845.48" role="graphics-symbol" aria-roledescription="point" transform="translate(88.88888888888889,111.69972)" d="M2.739,0A2.739,2.739,0,1,1,-2.739,0A2.739,2.739,0,1,1,2.739,0" fill="#f58518" stroke-width="2" stroke-dasharray="1,0" opacity="1"/><path aria-label="Concurrency: 25; Latency (ms): 10252.77; percentile: p99; mode: fiber; concurrency: 25; processes: 2 proc; metric: undefined; value: 10252.77" role="graphics-symbol" aria-roledescription="point" transform="translate(88.88888888888889,107.21953)" d="M2.739,0A2.739,2.739,0,1,1,-2.739,0A2.739,2.739,0,1,1,2.739,0" fill="#e45756" stroke-width="2" stroke-dasharray="1,0" opacity="1"/><path aria-label="Concurrency: 25; Latency (ms): 10371.73; percentile: max; mode: fiber; concurrency: 25; processes: 2 proc; metric: undefined; value: 10371.73" role="graphics-symbol" aria-roledescription="point" transform="translate(88.88888888888889,105.91097)" d="M2.739,0A2.739,2.739,0,1,1,-2.739,0A2.739,2.739,0,1,1,2.739,0" fill="#72b7b2" stroke-width="2" stroke-dasharray="1,0" opacity="1"/></g></g><path class="foreground" aria-hidden="true" d="" display="none"/></g><g transform="translate(452,0)"><path class="background" aria-hidden="true" d="M0,0h200v220h-200Z"/><g><g class="mark-group role-axis" aria-hidden="true"><g transform="translate(0.5,220.5)"><path class="background" aria-hidden="true" d="M0,0h0v0h0Z" pointer-events="none"/><g><g class="mark-rule role-axis-grid" pointer-events="none"><line transform="translate(22,-220)" x2="0" y2="220" stroke="#e5e7eb" stroke-width="1" opacity="1"/><line transform="translate(67,-220)" x2="0" y2="220" stroke="#e5e7eb" stroke-width="1" opacity="1"/><line transform="translate(111,-220)" x2="0" y2="220" stroke="#e5e7eb" stroke-width="1" opacity="1"/><line transform="translate(156,-220)" x2="0" y2="220" stroke="#e5e7eb" stroke-width="1" opacity="1"/><line transform="translate(200,-220)" x2="0" y2="220" stroke="#e5e7eb" stroke-width="1" opacity="1"/></g></g><path class="foreground" aria-hidden="true" d="" pointer-events="none" display="none"/></g></g><g class="mark-group role-axis" aria-hidden="true"><g transform="translate(0.5,0.5)"><path class="background" aria-hidden="true" d="M0,0h0v0h0Z" pointer-events="none"/><g><g class="mark-rule role-axis-grid" pointer-events="none"><line transform="translate(0,220)" x2="200" y2="0" stroke="#e5e7eb" stroke-width="1" opacity="1"/><line transform="translate(0,165)" x2="200" y2="0" stroke="#e5e7eb" stroke-width="1" opacity="1"/><line transform="translate(0,110)" x2="200" y2="0" stroke="#e5e7eb" stroke-width="1" opacity="1"/><line transform="translate(0,55)" x2="200" y2="0" stroke="#e5e7eb" stroke-width="1" opacity="1"/><line transform="translate(0,0)" x2="200" y2="0" stroke="#e5e7eb" stroke-width="1" opacity="1"/></g></g><path class="foreground" aria-hidden="true" d="" pointer-events="none" display="none"/></g></g><g class="mark-group role-scope child_layer_0_pathgroup" role="graphics-object" aria-roledescription="group mark container"><g transform="translate(0,0)"><path class="background" aria-hidden="true" d="M0,0h200v220h-200Z"/><g><g class="mark-line role-mark child_layer_0_marks" role="graphics-object" aria-roledescription="line mark container"><path aria-label="Concurrency: 5; Latency (ms): 2061.72; percentile: p50; mode: fiber; concurrency: 5; processes: 6 proc; metric: undefined; value: 2061.72" role="graphics-symbol" aria-roledescription="line mark" d="M0,197.321L22.222,197.072" stroke="#4c78a8" stroke-width="2" stroke-dasharray="1,0"/></g></g><path class="foreground" aria-hidden="true" d="" display="none"/></g><g transform="translate(0,0)"><path class="background" aria-hidden="true" d="M0,0h200v220h-200Z"/><g><g class="mark-line role-mark child_layer_0_marks" role="graphics-object" aria-roledescription="line mark container"><path aria-label="Concurrency: 5; Latency (ms): 3711.89; percentile: p95; mode: fiber; concurrency: 5; processes: 6 proc; metric: undefined; value: 3711.89" role="graphics-symbol" aria-roledescription="line mark" d="M0,179.169L22.222,179.128" stroke="#f58518" stroke-width="2" stroke-dasharray="1,0"/></g></g><path class="foreground" aria-hidden="true" d="" display="none"/></g><g transform="translate(0,0)"><path class="background" aria-hidden="true" d="M0,0h200v220h-200Z"/><g><g class="mark-line role-mark child_layer_0_marks" role="graphics-object" aria-roledescription="line mark container"><path aria-label="Concurrency: 5; Latency (ms): 4046.89; percentile: p99; mode: fiber; concurrency: 5; processes: 6 proc; metric: undefined; value: 4046.89" role="graphics-symbol" aria-roledescription="line mark" d="M0,175.484L22.222,177.122" stroke="#e45756" stroke-width="2" stroke-dasharray="1,0"/></g></g><path class="foreground" aria-hidden="true" d="" display="none"/></g><g transform="translate(0,0)"><path class="background" aria-hidden="true" d="M0,0h200v220h-200Z"/><g><g class="mark-line role-mark child_layer_0_marks" role="graphics-object" aria-roledescription="line mark container"><path aria-label="Concurrency: 5; Latency (ms): 4162.76; percentile: max; mode: fiber; concurrency: 5; processes: 6 proc; metric: undefined; value: 4162.76" role="graphics-symbol" aria-roledescription="line mark" d="M0,174.21L22.222,176.403" stroke="#72b7b2" stroke-width="2" stroke-dasharray="1,0"/></g></g><path class="foreground" aria-hidden="true" d="" display="none"/></g></g><g class="mark-symbol role-mark child_layer_1_marks" role="graphics-object" aria-roledescription="symbol mark container"><path aria-label="Concurrency: 5; Latency (ms): 2061.72; percentile: p50; mode: fiber; concurrency: 5; processes: 6 proc; metric: undefined; value: 2061.72" role="graphics-symbol" aria-roledescription="point" transform="translate(0,197.32108)" d="M2.739,0A2.739,2.739,0,1,1,-2.739,0A2.739,2.739,0,1,1,2.739,0" fill="#4c78a8" stroke-width="2" stroke-dasharray="1,0" opacity="1"/><path aria-label="Concurrency: 5; Latency (ms): 3711.89; percentile: p95; mode: fiber; concurrency: 5; processes: 6 proc; metric: undefined; value: 3711.89" role="graphics-symbol" aria-roledescription="point" transform="translate(0,179.16921)" d="M2.739,0A2.739,2.739,0,1,1,-2.739,0A2.739,2.739,0,1,1,2.739,0" fill="#f58518" stroke-width="2" stroke-dasharray="1,0" opacity="1"/><path aria-label="Concurrency: 5; Latency (ms): 4046.89; percentile: p99; mode: fiber; concurrency: 5; processes: 6 proc; metric: undefined; value: 4046.89" role="graphics-symbol" aria-roledescription="point" transform="translate(0,175.48421000000002)" d="M2.739,0A2.739,2.739,0,1,1,-2.739,0A2.739,2.739,0,1,1,2.739,0" fill="#e45756" stroke-width="2" stroke-dasharray="1,0" opacity="1"/><path aria-label="Concurrency: 5; Latency (ms): 4162.76; percentile: max; mode: fiber; concurrency: 5; processes: 6 proc; metric: undefined; value: 4162.76" role="graphics-symbol" aria-roledescription="point" transform="translate(0,174.20963999999998)" d="M2.739,0A2.739,2.739,0,1,1,-2.739,0A2.739,2.739,0,1,1,2.739,0" fill="#72b7b2" stroke-width="2" stroke-dasharray="1,0" opacity="1"/><path aria-label="Concurrency: 10; Latency (ms): 2084.4; percentile: p50; mode: fiber; concurrency: 10; processes: 6 proc; metric: undefined; value: 2084.4" role="graphics-symbol" aria-roledescription="point" transform="translate(22.22222222222222,197.07160000000002)" d="M2.739,0A2.739,2.739,0,1,1,-2.739,0A2.739,2.739,0,1,1,2.739,0" fill="#4c78a8" stroke-width="2" stroke-dasharray="1,0" opacity="1"/><path aria-label="Concurrency: 10; Latency (ms): 3715.61; percentile: p95; mode: fiber; concurrency: 10; processes: 6 proc; metric: undefined; value: 3715.61" role="graphics-symbol" aria-roledescription="point" transform="translate(22.22222222222222,179.12829)" d="M2.739,0A2.739,2.739,0,1,1,-2.739,0A2.739,2.739,0,1,1,2.739,0" fill="#f58518" stroke-width="2" stroke-dasharray="1,0" opacity="1"/><path aria-label="Concurrency: 10; Latency (ms): 3897.98; percentile: p99; mode: fiber; concurrency: 10; processes: 6 proc; metric: undefined; value: 3897.98" role="graphics-symbol" aria-roledescription="point" transform="translate(22.22222222222222,177.12222000000003)" d="M2.739,0A2.739,2.739,0,1,1,-2.739,0A2.739,2.739,0,1,1,2.739,0" fill="#e45756" stroke-width="2" stroke-dasharray="1,0" opacity="1"/><path aria-label="Concurrency: 10; Latency (ms): 3963.36; percentile: max; mode: fiber; concurrency: 10; processes: 6 proc; metric: undefined; value: 3963.36" role="graphics-symbol" aria-roledescription="point" transform="translate(22.22222222222222,176.40304)" d="M2.739,0A2.739,2.739,0,1,1,-2.739,0A2.739,2.739,0,1,1,2.739,0" fill="#72b7b2" stroke-width="2" stroke-dasharray="1,0" opacity="1"/></g></g><path class="foreground" aria-hidden="true" d="" display="none"/></g></g><g class="mark-group role-legend" role="graphics-symbol" aria-roledescription="legend" aria-label="Symbol legend titled 'percentile' for fill color and stroke color with 4 values: p50, p95, p99, max"><g transform="translate(671,0)"><path class="background" aria-hidden="true" d="M0,0h57v78h-57Z" pointer-events="none"/><g><g class="mark-group role-legend-entry"><g transform="translate(0,17)"><path class="background" aria-hidden="true" d="M0,0h0v0h0Z" pointer-events="none"/><g><g class="mark-group role-scope" role="graphics-object" aria-roledescription="group mark container"><g transform="translate(0,0)"><path class="background" aria-hidden="true" d="M0,0h38.91796875v12.5h-38.91796875Z" pointer-events="none" opacity="1"/><g><g class="mark-symbol role-legend-symbol" pointer-events="none"><path transform="translate(6,6)" d="M5,0A5,5,0,1,1,-5,0A5,5,0,1,1,5,0" fill="#4c78a8" stroke="#4c78a8" stroke-width="1.5" opacity="1"/></g><g class="mark-text role-legend-label" pointer-events="none"><text text-anchor="start" transform="translate(16,10)" font-family="Helvetica" font-size="12px" fill="#111827" opacity="1">p50</text></g></g><path class="foreground" aria-hidden="true" d="" pointer-events="none" display="none"/></g><g transform="translate(0,16)"><path class="background" aria-hidden="true" d="M0,0h38.91796875v12.5h-38.91796875Z" pointer-events="none" opacity="1"/><g><g class="mark-symbol role-legend-symbol" pointer-events="none"><path transform="translate(6,6)" d="M5,0A5,5,0,1,1,-5,0A5,5,0,1,1,5,0" fill="#f58518" stroke="#f58518" stroke-width="1.5" opacity="1"/></g><g class="mark-text role-legend-label" pointer-events="none"><text text-anchor="start" transform="translate(16,10)" font-family="Helvetica" font-size="12px" fill="#111827" opacity="1">p95</text></g></g><path class="foreground" aria-hidden="true" d="" pointer-events="none" display="none"/></g><g transform="translate(0,32)"><path class="background" aria-hidden="true" d="M0,0h38.91796875v12.5h-38.91796875Z" pointer-events="none" opacity="1"/><g><g class="mark-symbol role-legend-symbol" pointer-events="none"><path transform="translate(6,6)" d="M5,0A5,5,0,1,1,-5,0A5,5,0,1,1,5,0" fill="#e45756" stroke="#e45756" stroke-width="1.5" opacity="1"/></g><g class="mark-text role-legend-label" pointer-events="none"><text text-anchor="start" transform="translate(16,10)" font-family="Helvetica" font-size="12px" fill="#111827" opacity="1">p99</text></g></g><path class="foreground" aria-hidden="true" d="" pointer-events="none" display="none"/></g><g transform="translate(0,48)"><path class="background" aria-hidden="true" d="M0,0h38.91796875v12.5h-38.91796875Z" pointer-events="none" opacity="1"/><g><g class="mark-symbol role-legend-symbol" pointer-events="none"><path transform="translate(6,6)" d="M5,0A5,5,0,1,1,-5,0A5,5,0,1,1,5,0" fill="#72b7b2" stroke="#72b7b2" stroke-width="1.5" opacity="1"/></g><g class="mark-text role-legend-label" pointer-events="none"><text text-anchor="start" transform="translate(16,10)" font-family="Helvetica" font-size="12px" fill="#111827" opacity="1">max</text></g></g><path class="foreground" aria-hidden="true" d="" pointer-events="none" display="none"/></g></g></g><path class="foreground" aria-hidden="true" d="" pointer-events="none" display="none"/></g></g><g class="mark-text role-legend-title" pointer-events="none"><text text-anchor="start" transform="translate(0,9)" font-family="Helvetica" font-size="12px" font-weight="bold" fill="#111827" opacity="1">percentile</text></g></g><path class="foreground" aria-hidden="true" d="" pointer-events="none" display="none"/></g></g><g class="mark-group role-legend" role="graphics-symbol" aria-roledescription="legend" aria-label="Symbol legend titled 'mode' for strokeDash with 1 value: fiber"><g transform="translate(671,86)"><path class="background" aria-hidden="true" d="M0,0h40v30h-40Z" pointer-events="none"/><g><g class="mark-group role-legend-entry"><g transform="translate(0,17)"><path class="background" aria-hidden="true" d="M0,0h0v0h0Z" pointer-events="none"/><g><g class="mark-group role-scope" role="graphics-object" aria-roledescription="group mark container"><g transform="translate(0,0)"><path class="background" aria-hidden="true" d="M0,0h39.337890625v12.5h-39.337890625Z" pointer-events="none" opacity="1"/><g><g class="mark-symbol role-legend-symbol" pointer-events="none"><path transform="translate(6,6)" d="M5,0A5,5,0,1,1,-5,0A5,5,0,1,1,5,0" fill="black" fill-opacity="1" stroke-width="1.5" stroke-dasharray="1,0" opacity="1"/></g><g class="mark-text role-legend-label" pointer-events="none"><text text-anchor="start" transform="translate(16,10)" font-family="Helvetica" font-size="12px" fill="#111827" opacity="1">fiber</text></g></g><path class="foreground" aria-hidden="true" d="" pointer-events="none" display="none"/></g></g></g><path class="foreground" aria-hidden="true" d="" pointer-events="none" display="none"/></g></g><g class="mark-text role-legend-title" pointer-events="none"><text text-anchor="start" transform="translate(0,9)" font-family="Helvetica" font-size="12px" font-weight="bold" fill="#111827" opacity="1">mode</text></g></g><path class="foreground" aria-hidden="true" d="" pointer-events="none" display="none"/></g></g><g class="mark-group role-title"><g transform="translate(-63.6953125,-76)"><path class="background" aria-hidden="true" d="M0,0h0v0h0Z" pointer-events="none"/><g><g class="mark-text role-title-text" role="graphics-symbol" aria-roledescription="title" aria-label="Title text 'Async::Job CPU Latency'" pointer-events="none"><text text-anchor="start" transform="translate(0,13)" font-family="Helvetica" font-size="16px" font-weight="bold" fill="#111827" opacity="1">Async::Job CPU Latency</text></g></g><path class="foreground" aria-hidden="true" d="" pointer-events="none" display="none"/></g></g></g><path class="foreground" aria-hidden="true" d="" display="none"/></g></g></g></svg>