<svg xmlns="http://www.w3.org/2000/svg" xmlns:xlink="http://www.w3.org/1999/xlink" version="1.1" class="marks" width="796" height="339" viewBox="0 0 796 339"><rect width="796" height="339" fill="white"/><g fill="none" stroke-miterlimit="10" transform="translate(63,81)"><g class="mark-group role-frame root" role="graphics-object" aria-roledescription="group mark container"><g transform="translate(0,0)"><path class="background" aria-hidden="true" d="M0,0h0v0h0Z"/><g><g class="mark-group role-column-title column-title" role="graphics-object" aria-roledescription="group mark container"><g transform="translate(325,-33)"><path class="background" aria-hidden="true" d="M0,0h0v0h0Z"/><g><g class="mark-group role-title"><g transform="translate(0,-22)"><path class="background" aria-hidden="true" d="M0,0h0v0h0Z" pointer-events="none"/><g><g class="mark-text role-title-text" role="graphics-symbol" aria-roledescription="title" aria-label="Title text 'processes'" pointer-events="none"><text text-anchor="middle" transform="translate(0,9)" font-family="Helvetica" font-size="12px" font-weight="bold" fill="#111827" opacity="1">processes</text></g></g><path class="foreground" aria-hidden="true" d="" pointer-events="none" display="none"/></g></g></g><path class="foreground" aria-hidden="true" d="" display="none"/></g></g><g class="mark-group role-row-header row_header" role="graphics-object" aria-roledescription="group mark container"><g transform="translate(-3,0)"><path class="background" aria-hidden="true" d="M0,0h0v220h0Z"/><g><g class="mark-group role-axis" role="graphics-symbol" aria-roledescription="axis" aria-label="Y-axis titled 'Latency (ms)' for a linear scale with values from 0 to 6,000"><g transform="translate(0.5,0.5)"><path class="background" aria-hidden="true" d="M0,0h0v0h0Z" pointer-events="none"/><g><g class="mark-rule role-axis-tick" pointer-events="none"><line transform="translate(0,220)" x2="-5" y2="0" stroke="#9ca3af" stroke-width="1" opacity="1"/><line transform="translate(0,183)" x2="-5" y2="0" stroke="#9ca3af" stroke-width="1" opacity="1"/><line transform="translate(0,147)" x2="-5" y2="0" stroke="#9ca3af" stroke-width="1" opacity="1"/><line transform="translate(0,110)" x2="-5" y2="0" stroke="#9ca3af" stroke-width="1" opacity="1"/><line transform="translate(0,73)" x2="-5" y2="0" stroke="#9ca3af" stroke-width="1" opacity="1"/><line transform="translate(0,37)" x2="-5" y2="0" stroke="#9ca3af" stroke-width="1" opacity="1"/><line transform="translate(0,0)" x2="-5" y2="0" stroke="#9ca3af" stroke-width="1" opacity="1"/></g><g class="mark-text role-axis-label" pointer-events="none"><text text-anchor="end" transform="translate(-7,224)" font-family="Helvetica" font-size="12px" fill="#111827" opacity="1">0</text><text text-anchor="end" transform="translate(-7,187.33333333333334)" font-family="Helvetica" font-size="12px" fill="#111827" opacity="1">1,000</text><text text-anchor="end" transform="translate(-7,150.66666666666669)" font-family="Helvetica" font-size="12px" fill="#111827" opacity="1">2,000</text><text text-anchor="end" transform="translate(-7,114)" font-family="Helvetica" font-size="12px" fill="#111827" opacity="1">3,000</text><text text-anchor="end" transform="translate(-7,77.33333333333334)" font-family="Helvetica" font-size="12px" fill="#111827" opacity="1">4,000</text><text text-anchor="end" transform="translate(-7,40.66666666666666)" font-family="Helvetica" font-size="12px" fill="#111827" opacity="1">5,000</text><text text-anchor="end" transform="translate(-7,4)" font-family="Helvetica" font-size="12px" fill="#111827" opacity="1">6,000</text></g><g class="mark-rule role-axis-domain" pointer-events="none"><line transform="translate(0,220)" x2="0" y2="-220" stroke="#111827" stroke-width="1" opacity="1"/></g><g class="mark-text role-axis-title" pointer-events="none"><text text-anchor="middle" transform="translate(-41.0234375,110) rotate(-90) translate(0,-3)" font-family="Helvetica" font-size="12px" font-weight="bold" fill="#111827" opacity="1">Latency (ms)</text></g></g><path class="foreground" aria-hidden="true" d="" pointer-events="none" display="none"/></g></g></g><path class="foreground" aria-hidden="true" d="" display="none"/></g></g><g class="mark-group role-column-header column_header" role="graphics-object" aria-roledescription="group mark container"><g transform="translate(0,0)"><path class="background" aria-hidden="true" d="M0,0h200v0h-200Z"/><g><g class="mark-group role-title"><g transform="translate(100,-22)"><path class="background" aria-hidden="true" d="M0,0h0v0h0Z" pointer-events="none"/><g><g class="mark-text role-title-text" role="graphics-symbol" aria-roledescription="title" aria-label="Title text '1 proc'" pointer-events="none"><text text-anchor="middle" transform="translate(0,9)" font-family="Helvetica" font-size="12px" fill="#111827" opacity="1">1 proc</text></g></g><path class="foreground" aria-hidden="true" d="" pointer-events="none" display="none"/></g></g></g><path class="foreground" aria-hidden="true" d="" display="none"/></g><g transform="translate(226,0)"><path class="background" aria-hidden="true" d="M0,0h200v0h-200Z"/><g><g class="mark-group role-title"><g transform="translate(100,-22)"><path class="background" aria-hidden="true" d="M0,0h0v0h0Z" pointer-events="none"/><g><g class="mark-text role-title-text" role="graphics-symbol" aria-roledescription="title" aria-label="Title text '2 proc'" pointer-events="none"><text text-anchor="middle" transform="translate(0,9)" font-family="Helvetica" font-size="12px" fill="#111827" opacity="1">2 proc</text></g></g><path class="foreground" aria-hidden="true" d="" pointer-events="none" display="none"/></g></g></g><path class="foreground" aria-hidden="true" d="" display="none"/></g><g transform="translate(452,0)"><path class="background" aria-hidden="true" d="M0,0h200v0h-200Z"/><g><g class="mark-group role-title"><g transform="translate(100,-22)"><path class="background" aria-hidden="true" d="M0,0h0v0h0Z" pointer-events="none"/><g><g class="mark-text role-title-text" role="graphics-symbol" aria-roledescription="title" aria-label="Title text '6 proc'" pointer-events="none"><text text-anchor="middle" transform="translate(0,9)" font-family="Helvetica" font-size="12px" fill="#111827" opacity="1">6 proc</text></g></g><path class="foreground" aria-hidden="true" d="" pointer-events="none" display="none"/></g></g></g><path class="foreground" aria-hidden="true" d="" display="none"/></g></g><g class="mark-group role-column-footer column_footer" role="graphics-object" aria-roledescription="group mark container"><g transform="translate(0,220)"><path class="background" aria-hidden="true" d="M0,0h200v0h-200Z"/><g><g class="mark-group role-axis" role="graphics-symbol" aria-roledescription="axis" aria-label="X-axis titled 'Concurrency' for a linear scale with values from 5 to 50"><g transform="translate(0.5,0.5)"><path class="background" aria-hidden="true" d="M0,0h0v0h0Z" pointer-events="none"/><g><g class="mark-rule role-axis-tick" pointer-events="none"><line transform="translate(22,0)" x2="0" y2="5" stroke="#9ca3af" stroke-width="1" opacity="1"/><line transform="translate(67,0)" x2="0" y2="5" stroke="#9ca3af" stroke-width="1" opacity="1"/><line transform="translate(111,0)" x2="0" y2="5" stroke="#9ca3af" stroke-width="1" opacity="1"/><line transform="translate(156,0)" x2="0" y2="5" stroke="#9ca3af" stroke-width="1" opacity="1"/><line transform="translate(200,0)" x2="0" y2="5" stroke="#9ca3af" stroke-width="1" opacity="1"/></g><g class="mark-text role-axis-label" pointer-events="none"><text text-anchor="middle" transform="translate(22.22222222222222,16)" font-family="Helvetica" font-size="12px" fill="#111827" opacity="1">10</text><text text-anchor="middle" transform="translate(66.66666666666666,16)" font-family="Helvetica" font-size="12px" fill="#111827" opacity="1">20</text><text text-anchor="middle" transform="translate(111.11111111111111,16)" font-family="Helvetica" font-size="12px" fill="#111827" opacity="1">30</text><text text-anchor="middle" transform="translate(155.55555555555557,16)" font-family="Helvetica" font-size="12px" fill="#111827" opacity="1">40</text><text text-anchor="end" transform="translate(200,16)" font-family="Helvetica" font-size="12px" fill="#111827" opacity="1">50</text></g><g class="mark-rule role-axis-domain" pointer-events="none"><line transform="translate(0,0)" x2="200" y2="0" stroke="#111827" stroke-width="1" opacity="1"/></g><g class="mark-text role-axis-title" pointer-events="none"><text text-anchor="middle" transform="translate(100,31)" font-family="Helvetica" font-size="12px" font-weight="bold" fill="#111827" opacity="1">Concurrency</text></g></g><path class="foreground" aria-hidden="true" d="" pointer-events="none" display="none"/></g></g></g><path class="foreground" aria-hidden="true" d="" display="none"/></g><g transform="translate(226,220)"><path class="background" aria-hidden="true" d="M0,0h200v0h-200Z"/><g><g class="mark-group role-axis" role="graphics-symbol" aria-roledescription="axis" aria-label="X-axis titled 'Concurrency' for a linear scale with values from 5 to 50"><g transform="translate(0.5,0.5)"><path class="background" aria-hidden="true" d="M0,0h0v0h0Z" pointer-events="none"/><g><g class="mark-rule role-axis-tick" pointer-events="none"><line transform="translate(22,0)" x2="0" y2="5" stroke="#9ca3af" stroke-width="1" opacity="1"/><line transform="translate(67,0)" x2="0" y2="5" stroke="#9ca3af" stroke-width="1" opacity="1"/><line transform="translate(111,0)" x2="0" y2="5" stroke="#9ca3af" stroke-width="1" opacity="1"/><line transform="translate(156,0)" x2="0" y2="5" stroke="#9ca3af" stroke-width="1" opacity="1"/><line transform="translate(200,0)" x2="0" y2="5" stroke="#9ca3af" stroke-width="1" opacity="1"/></g><g class="mark-text role-axis-label" pointer-events="none"><text text-anchor="middle" transform="translate(22.22222222222222,16)" font-family="Helvetica" font-size="12px" fill="#111827" opacity="1">10</text><text text-anchor="middle" transform="translate(66.66666666666666,16)" font-family="Helvetica" font-size="12px" fill="#111827" opacity="1">20</text><text text-anchor="middle" transform="translate(111.11111111111111,16)" font-family="Helvetica" font-size="12px" fill="#111827" opacity="1">30</text><text text-anchor="middle" transform="translate(155.55555555555557,16)" font-family="Helvetica" font-size="12px" fill="#111827" opacity="1">40</text><text text-anchor="end" transform="translate(200,16)" font-family="Helvetica" font-size="12px" fill="#111827" opacity="1">50</text></g><g class="mark-rule role-axis-domain" pointer-events="none"><line transform="translate(0,0)" x2="200" y2="0" stroke="#111827" stroke-width="1" opacity="1"/></g><g class="mark-text role-axis-title" pointer-events="none"><text text-anchor="middle" transform="translate(100,31)" font-family="Helvetica" font-size="12px" font-weight="bold" fill="#111827" opacity="1">Concurrency</text></g></g><path class="foreground" aria-hidden="true" d="" pointer-events="none" display="none"/></g></g></g><path class="foreground" aria-hidden="true" d="" display="none"/></g><g transform="translate(452,220)"><path class="background" aria-hidden="true" d="M0,0h200v0h-200Z"/><g><g class="mark-group role-axis" role="graphics-symbol" aria-roledescription="axis" aria-label="X-axis titled 'Concurrency' for a linear scale with values from 5 to 50"><g transform="translate(0.5,0.5)"><path class="background" aria-hidden="true" d="M0,0h0v0h0Z" pointer-events="none"/><g><g class="mark-rule role-axis-tick" pointer-events="none"><line transform="translate(22,0)" x2="0" y2="5" stroke="#9ca3af" stroke-width="1" opacity="1"/><line transform="translate(67,0)" x2="0" y2="5" stroke="#9ca3af" stroke-width="1" opacity="1"/><line transform="translate(111,0)" x2="0" y2="5" stroke="#9ca3af" stroke-width="1" opacity="1"/><line transform="translate(156,0)" x2="0" y2="5" stroke="#9ca3af" stroke-width="1" opacity="1"/><line transform="translate(200,0)" x2="0" y2="5" stroke="#9ca3af" stroke-width="1" opacity="1"/></g><g class="mark-text role-axis-label" pointer-events="none"><text text-anchor="middle" transform="translate(22.22222222222222,16)" font-family="Helvetica" font-size="12px" fill="#111827" opacity="1">10</text><text text-anchor="middle" transform="translate(66.66666666666666,16)" font-family="Helvetica" font-size="12px" fill="#111827" opacity="1">20</text><text text-anchor="middle" transform="translate(111.11111111111111,16)" font-family="Helvetica" font-size="12px" fill="#111827" opacity="1">30</text><text text-anchor="middle" transform="translate(155.55555555555557,16)" font-family="Helvetica" font-size="12px" fill="#111827" opacity="1">40</text><text text-anchor="end" transform="translate(200,16)" font-family="Helvetica" font-size="12px" fill="#111827" opacity="1">50</text></g><g class="mark-rule role-axis-domain" pointer-events="none"><line transform="translate(0,0)" x2="200" y2="0" stroke="#111827" stroke-width="1" opacity="1"/></g><g class="mark-text role-axis-title" pointer-events="none"><text text-anchor="middle" transform="translate(100,31)" font-family="Helvetica" font-size="12px" font-weight="bold" fill="#111827" opacity="1">Concurrency</text></g></g><path class="foreground" aria-hidden="true" d="" pointer-events="none" display="none"/></g></g></g><path class="foreground" aria-hidden="true" d="" display="none"/></g></g><g class="mark-group role-scope cell" role="graphics-object" aria-roledescription="group mark container"><g transform="translate(0,0)"><path class="background" aria-hidden="true" d="M0,0h200v220h-200Z"/><g><g class="mark-group role-axis" aria-hidden="true"><g transform="translate(0.5,220.5)"><path class="background" aria-hidden="true" d="M0,0h0v0h0Z" pointer-events="none"/><g><g class="mark-rule role-axis-grid" pointer-events="none"><line transform="translate(22,-220)" x2="0" y2="220" stroke="#e5e7eb" stroke-width="1" opacity="1"/><line transform="translate(67,-220)" x2="0" y2="220" stroke="#e5e7eb" stroke-width="1" opacity="1"/><line transform="translate(111,-220)" x2="0" y2="220" stroke="#e5e7eb" stroke-width="1" opacity="1"/><line transform="translate(156,-220)" x2="0" y2="220" stroke="#e5e7eb" stroke-width="1" opacity="1"/><line transform="translate(200,-220)" x2="0" y2="220" stroke="#e5e7eb" stroke-width="1" opacity="1"/></g></g><path class="foreground" aria-hidden="true" d="" pointer-events="none" display="none"/></g></g><g class="mark-group role-axis" aria-hidden="true"><g transform="translate(0.5,0.5)"><path class="background" aria-hidden="true" d="M0,0h0v0h0Z" pointer-events="none"/><g><g class="mark-rule role-axis-grid" pointer-events="none"><line transform="translate(0,220)" x2="200" y2="0" stroke="#e5e7eb" stroke-width="1" opacity="1"/><line transform="translate(0,183)" x2="200" y2="0" stroke="#e5e7eb" stroke-width="1" opacity="1"/><line transform="translate(0,147)" x2="200" y2="0" stroke="#e5e7eb" stroke-width="1" opacity="1"/><line transform="translate(0,110)" x2="200" y2="0" stroke="#e5e7eb" stroke-width="1" opacity="1"/><line transform="translate(0,73)" x2="200" y2="0" stroke="#e5e7eb" stroke-width="1" opacity="1"/><line transform="translate(0,37)" x2="200" y2="0" stroke="#e5e7eb" stroke-width="1" opacity="1"/><line transform="translate(0,0)" x2="200" y2="0" stroke="#e5e7eb" stroke-width="1" opacity="1"/></g></g><path class="foreground" aria-hidden="true" d="" pointer-events="none" display="none"/></g></g><g class="mark-group role-scope child_layer_0_pathgroup" role="graphics-object" aria-roledescription="group mark container"><g transform="translate(0,0)"><path class="background" aria-hidden="true" d="M0,0h200v220h-200Z"/><g><g class="mark-line role-mark child_layer_0_marks" role="graphics-object" aria-roledescription="line mark container"><path aria-label="Concurrency: 5; Latency (ms): 5263.62; percentile: p50; mode: fiber; concurrency: 5; processes: 1 proc; metric: undefined; value: 5263.62" role="graphics-symbol" aria-roledescription="line mark" d="M0,27.001L22.222,68.947L88.889,89.835L200,96.557" stroke="#4c78a8" stroke-width="2" stroke-dasharray="1,0"/></g></g><path class="foreground" aria-hidden="true" d="" display="none"/></g><g transform="translate(0,0)"><path class="background" aria-hidden="true" d="M0,0h200v220h-200Z"/><g><g class="mark-line role-mark child_layer_0_marks" role="graphics-object" aria-roledescription="line mark container"><path aria-label="Concurrency: 5; Latency (ms): 5799.85; percentile: p95; mode: fiber; concurrency: 5; processes: 1 proc; metric: undefined; value: 5799.85" role="graphics-symbol" aria-roledescription="line mark" d="M0,7.339L22.222,66.239L88.889,89.376L200,96.023" stroke="#f58518" stroke-width="2" stroke-dasharray="1,0"/></g></g><path class="foreground" aria-hidden="true" d="" display="none"/></g><g transform="translate(0,0)"><path class="background" aria-hidden="true" d="M0,0h200v220h-200Z"/><g><g class="mark-line role-mark child_layer_0_marks" role="graphics-object" aria-roledescription="line mark container"><path aria-label="Concurrency: 5; Latency (ms): 5801.79; percentile: p99; mode: fiber; concurrency: 5; processes: 1 proc; metric: undefined; value: 5801.79" role="graphics-symbol" aria-roledescription="line mark" d="M0,7.268L22.222,66.169L88.889,89.246L200,95.94" stroke="#e45756" stroke-width="2" stroke-dasharray="1,0"/></g></g><path class="foreground" aria-hidden="true" d="" display="none"/></g><g transform="translate(0,0)"><path class="background" aria-hidden="true" d="M0,0h200v220h-200Z"/><g><g class="mark-line role-mark child_layer_0_marks" role="graphics-object" aria-roledescription="line mark container"><path aria-label="Concurrency: 5; Latency (ms): 5801.79; percentile: max; mode: fiber; concurrency: 5; processes: 1 proc; metric: undefined; value: 5801.79" role="graphics-symbol" aria-roledescription="line mark" d="M0,7.268L22.222,66.169L88.889,89.246L200,95.94" stroke="#72b7b2" stroke-width="2" stroke-dasharray="1,0"/></g></g><path class="foreground" aria-hidden="true" d="" display="none"/></g></g><g class="mark-symbol role-mark child_layer_1_marks" role="graphics-object" aria-roledescription="symbol mark container"><path aria-label="Concurrency: 5; Latency (ms): 5263.62; percentile: p50; mode: fiber; concurrency: 5; processes: 1 proc; metric: undefined; value: 5263.62" role="graphics-symbol" aria-roledescription="point" transform="translate(0,27.000600000000002)" d="M2.739,0A2.739,2.739,0,1,1,-2.739,0A2.739,2.739,0,1,1,2.739,0" fill="#4c78a8" stroke-width="2" stroke-dasharray="1,0" opacity="1"/><path aria-label="Concurrency: 5; Latency (ms): 5799.85; percentile: p95; mode: fiber; concurrency: 5; processes: 1 proc; metric: undefined; value: 5799.85" role="graphics-symbol" aria-roledescription="point" transform="translate(0,7.338833333333319)" d="M2.739,0A2.739,2.739,0,1,1,-2.739,0A2.739,2.739,0,1,1,2.739,0" fill="#f58518" stroke-width="2" stroke-dasharray="1,0" opacity="1"/><path aria-label="Concurrency: 5; Latency (ms): 5801.79; percentile: p99; mode: fiber; concurrency: 5; processes: 1 proc; metric: undefined; value: 5801.79" role="graphics-symbol" aria-roledescription="point" transform="translate(0,7.2677000000000085)" d="M2.739,0A2.739,2.739,0,1,1,-2.739,0A2.739,2.739,0,1,1,2.739,0" fill="#e45756" stroke-width="2" stroke-dasharray="1,0" opacity="1"/><path aria-label="Concurrency: 5; Latency (ms): 5801.79; percentile: max; mode: fiber; concurrency: 5; processes: 1 proc; metric: undefined; value: 5801.79" role="graphics-symbol" aria-roledescription="point" transform="translate(0,7.2677000000000085)" d="M2.739,0A2.739,2.739,0,1,1,-2.739,0A2.739,2.739,0,1,1,2.739,0" fill="#72b7b2" stroke-width="2" stroke-dasharray="1,0" opacity="1"/><path aria-label="Concurrency: 10; Latency (ms): 4119.64; percentile: p50; mode: fiber; concurrency: 10; processes: 1 proc; metric: undefined; value: 4119.64" role="graphics-symbol" aria-roledescription="point" transform="translate(22.22222222222222,68.94653333333332)" d="M2.739,0A2.739,2.739,0,1,1,-2.739,0A2.739,2.739,0,1,1,2.739,0" fill="#4c78a8" stroke-width="2" stroke-dasharray="1,0" opacity="1"/><path aria-label="Concurrency: 10; Latency (ms): 4193.49; percentile: p95; mode: fiber; concurrency: 10; processes: 1 proc; metric: undefined; value: 4193.49" role="graphics-symbol" aria-roledescription="point" transform="translate(22.22222222222222,66.23870000000001)" d="M2.739,0A2.739,2.739,0,1,1,-2.739,0A2.739,2.739,0,1,1,2.739,0" fill="#f58518" stroke-width="2" stroke-dasharray="1,0" opacity="1"/><path aria-label="Concurrency: 10; Latency (ms): 4195.39; percentile: p99; mode: fiber; concurrency: 10; processes: 1 proc; metric: undefined; value: 4195.39" role="graphics-symbol" aria-roledescription="point" transform="translate(22.22222222222222,66.16903333333333)" d="M2.739,0A2.739,2.739,0,1,1,-2.739,0A2.739,2.739,0,1,1,2.739,0" fill="#e45756" stroke-width="2" stroke-dasharray="1,0" opacity="1"/><path aria-label="Concurrency: 10; Latency (ms): 4195.39; percentile: max; mode: fiber; concurrency: 10; processes: 1 proc; metric: undefined; value: 4195.39" role="graphics-symbol" aria-roledescription="point" transform="translate(22.22222222222222,66.16903333333333)" d="M2.739,0A2.739,2.739,0,1,1,-2.739,0A2.739,2.739,0,1,1,2.739,0" fill="#72b7b2" stroke-width="2" stroke-dasharray="1,0" opacity="1"/><path aria-label="Concurrency: 25; Latency (ms): 3549.95; percentile: p50; mode: fiber; concurrency: 25; processes: 1 proc; metric: undefined; value: 3549.95" role="graphics-symbol" aria-roledescription="point" transform="translate(88.88888888888889,89.83516666666668)" d="M2.739,0A2.739,2.739,0,1,1,-2.739,0A2.739,2.739,0,1,1,2.739,0" fill="#4c78a8" stroke-width="2" stroke-dasharray="1,0" opacity="1"/><path aria-label="Concurrency: 25; Latency (ms): 3562.46; percentile: p95; mode: fiber; concurrency: 25; processes: 1 proc; metric: undefined; value: 3562.46" role="graphics-symbol" aria-roledescription="point" transform="translate(88.88888888888889,89.37646666666667)" d="M2.739,0A2.739,2.739,0,1,1,-2.739,0A2.739,2.739,0,1,1,2.739,0" fill="#f58518" stroke-width="2" stroke-dasharray="1,0" opacity="1"/><path aria-label="Concurrency: 25; Latency (ms): 3566.03; percentile: p99; mode: fiber; concurrency: 25; processes: 1 proc; metric: undefined; value: 3566.03" role="graphics-symbol" aria-roledescription="point" transform="translate(88.88888888888889,89.24556666666665)" d="M2.739,0A2.739,2.739,0,1,1,-2.739,0A2.739,2.739,0,1,1,2.739,0" fill="#e45756" stroke-width="2" stroke-dasharray="1,0" opacity="1"/><path aria-label="Concurrency: 25; Latency (ms): 3566.03; percentile: max; mode: fiber; concurrency: 25; processes: 1 proc; metric: undefined; value: 3566.03" role="graphics-symbol" aria-roledescription="point" transform="translate(88.88888888888889,89.24556666666665)" d="M2.739,0A2.739,2.739,0,1,1,-2.739,0A2.739,2.739,0,1,1,2.739,0" fill="#72b7b2" stroke-width="2" stroke-dasharray="1,0" opacity="1"/><path aria-label="Concurrency: 50; Latency (ms): 3366.64; percentile: p50; mode: fiber; concurrency: 50; processes: 1 proc; metric: undefined; value: 3366.64" role="graphics-symbol" aria-roledescription="point" transform="translate(200,96.55653333333333)" d="M2.739,0A2.739,2.739,0,1,1,-2.739,0A2.739,2.739,0,1,1,2.739,0" fill="#4c78a8" stroke-width="2" stroke-dasharray="1,0" opacity="1"/><path aria-label="Concurrency: 50; Latency (ms): 3381.19; percentile: p95; mode: fiber; concurrency: 50; processes: 1 proc; metric: undefined; value: 3381.19" role="graphics-symbol" aria-roledescription="point" transform="translate(200,96.02303333333333)" d="M2.739,0A2.739,2.739,0,1,1,-2.739,0A2.739,2.739,0,1,1,2.739,0" fill="#f58518" stroke-width="2" stroke-dasharray="1,0" opacity="1"/><path aria-label="Concurrency: 50; Latency (ms): 3383.46; percentile: p99; mode: fiber; concurrency: 50; processes: 1 proc; metric: undefined; value: 3383.46" role="graphics-symbol" aria-roledescription="point" transform="translate(200,95.93979999999999)" d="M2.739,0A2.739,2.739,0,1,1,-2.739,0A2.739,2.739,0,1,1,2.739,0" fill="#e45756" stroke-width="2" stroke-dasharray="1,0" opacity="1"/><path aria-label="Concurrency: 50; Latency (ms): 3383.46; percentile: max; mode: fiber; concurrency: 50; processes: 1 proc; metric: undefined; value: 3383.46" role="graphics-symbol" aria-roledescription="point" transform="translate(200,95.93979999999999)" d="M2.739,0A2.739,2.739,0,1,1,-2.739,0A2.739,2.739,0,1,1,2.739,0" fill="#72b7b2" stroke-width="2" stroke-dasharray="1,0" opacity="1"/></g></g><path class="foreground" aria-hidden="true" d="" display="none"/></g><g transform="translate(226,0)"><path class="background" aria-hidden="true" d="M0,0h200v220h-200Z"/><g><g class="mark-group role-axis" aria-hidden="true"><g transform="translate(0.5,220.5)"><path class="background" aria-hidden="true" d="M0,0h0v0h0Z" pointer-events="none"/><g><g class="mark-rule role-axis-grid" pointer-events="none"><line transform="translate(22,-220)" x2="0" y2="220" stroke="#e5e7eb" stroke-width="1" opacity="1"/><line transform="translate(67,-220)" x2="0" y2="220" stroke="#e5e7eb" stroke-width="1" opacity="1"/><line transform="translate(111,-220)" x2="0" y2="220" stroke="#e5e7eb" stroke-width="1" opacity="1"/><line transform="translate(156,-220)" x2="0" y2="220" stroke="#e5e7eb" stroke-width="1" opacity="1"/><line transform="translate(200,-220)" x2="0" y2="220" stroke="#e5e7eb" stroke-width="1" opacity="1"/></g></g><path class="foreground" aria-hidden="true" d="" pointer-events="none" display="none"/></g></g><g class="mark-group role-axis" aria-hidden="true"><g transform="translate(0.5,0.5)"><path class="background" aria-hidden="true" d="M0,0h0v0h0Z" pointer-events="none"/><g><g class="mark-rule role-axis-grid" pointer-events="none"><line transform="translate(0,220)" x2="200" y2="0" stroke="#e5e7eb" stroke-width="1" opacity="1"/><line transform="translate(0,183)" x2="200" y2="0" stroke="#e5e7eb" stroke-width="1" opacity="1"/><line transform="translate(0,147)" x2="200" y2="0" stroke="#e5e7eb" stroke-width="1" opacity="1"/><line transform="translate(0,110)" x2="200" y2="0" stroke="#e5e7eb" stroke-width="1" opacity="1"/><line transform="translate(0,73)" x2="200" y2="0" stroke="#e5e7eb" stroke-width="1" opacity="1"/><line transform="translate(0,37)" x2="200" y2="0" stroke="#e5e7eb" stroke-width="1" opacity="1"/><line transform="translate(0,0)" x2="200" y2="0" stroke="#e5e7eb" stroke-width="1" opacity="1"/></g></g><path class="foreground" aria-hidden="true" d="" pointer-events="none" display="none"/></g></g><g class="mark-group role-scope child_layer_0_pathgroup" role="graphics-object" aria-roledescription="group mark container"><g transform="translate(0,0)"><path class="background" aria-hidden="true" d="M0,0h200v220h-200Z"/><g><g class="mark-line role-mark child_layer_0_marks" role="graphics-object" aria-roledescription="line mark container"><path aria-label="Concurrency: 5; Latency (ms): 3277.23; percentile: p50; mode: fiber; concurrency: 5; processes: 2 proc; metric: undefined; value: 3277.23" role="graphics-symbol" aria-roledescription="line mark" d="M0,99.835L22.222,137.373L88.889,154.43" stroke="#4c78a8" stroke-width="2" stroke-dasharray="1,0"/></g></g><path class="foreground" aria-hidden="true" d="" display="none"/></g><g transform="translate(0,0)"><path class="background" aria-hidden="true" d="M0,0h200v220h-200Z"/><g><g class="mark-line role-mark child_layer_0_marks" role="graphics-object" aria-roledescription="line mark container"><path aria-label="Concurrency: 5; Latency (ms): 3456.71; percentile: p95; mode: fiber; concurrency: 5; processes: 2 proc; metric: undefined; value: 3456.71" role="graphics-symbol" aria-roledescription="line mark" d="M0,93.254L22.222,136.007L88.889,153.765" stroke="#f58518" stroke-width="2" stroke-dasharray="1,0"/></g></g><path class="foreground" aria-hidden="true" d="" display="none"/></g><g transform="translate(0,0)"><path class="background" aria-hidden="true" d="M0,0h200v220h-200Z"/><g><g class="mark-line role-mark child_layer_0_marks" role="graphics-object" aria-roledescription="line mark container"><path aria-label="Concurrency: 5; Latency (ms): 3457.22; percentile: p99; mode: fiber; concurrency: 5; processes: 2 proc; metric: undefined; value: 3457.22" role="graphics-symbol" aria-roledescription="line mark" d="M0,93.235L22.222,134.312L88.889,153.521" stroke="#e45756" stroke-width="2" stroke-dasharray="1,0"/></g></g><path class="foreground" aria-hidden="true" d="" display="none"/></g><g transform="translate(0,0)"><path class="background" aria-hidden="true" d="M0,0h200v220h-200Z"/><g><g class="mark-line role-mark child_layer_0_marks" role="graphics-object" aria-roledescription="line mark container"><path aria-label="Concurrency: 5; Latency (ms): 3457.22; percentile: max; mode: fiber; concurrency: 5; processes: 2 proc; metric: undefined; value: 3457.22" role="graphics-symbol" aria-roledescription="line mark" d="M0,93.235L22.222,134.312L88.889,153.521" stroke="#72b7b2" stroke-width="2" stroke-dasharray="1,0"/></g></g><path class="foreground" aria-hidden="true" d="" display="none"/></g></g><g class="mark-symbol role-mark child_layer_1_marks" role="graphics-object" aria-roledescription="symbol mark container"><path aria-label="Concurrency: 5; Latency (ms): 3277.23; percentile: p50; mode: fiber; concurrency: 5; processes: 2 proc; metric: undefined; value: 3277.23" role="graphics-symbol" aria-roledescription="point" transform="translate(0,99.83489999999999)" d="M2.739,0A2.739,2.739,0,1,1,-2.739,0A2.739,2.739,0,1,1,2.739,0" fill="#4c78a8" stroke-width="2" stroke-dasharray="1,0" opacity="1"/><path aria-label="Concurrency: 5; Latency (ms): 3456.71; percentile: p95; mode: fiber; concurrency: 5; processes: 2 proc; metric: undefined; value: 3456.71" role="graphics-symbol" aria-roledescription="point" transform="translate(0,93.25396666666667)" d="M2.739,0A2.739,2.739,0,1,1,-2.739,0A2.739,2.739,0,1,1,2.739,0" fill="#f58518" stroke-width="2" stroke-dasharray="1,0" opacity="1"/><path aria-label="Concurrency: 5; Latency (ms): 3457.22; percentile: p99; mode: fiber; concurrency: 5; processes: 2 proc; metric: undefined; value: 3457.22" role="graphics-symbol" aria-roledescription="point" transform="translate(0,93.23526666666667)" d="M2.739,0A2.739,2.739,0,1,1,-2.739,0A2.739,2.739,0,1,1,2.739,0" fill="#e45756" stroke-width="2" stroke-dasharray="1,0" opacity="1"/><path aria-label="Concurrency: 5; Latency (ms): 3457.22; percentile: max; mode: fiber; concurrency: 5; processes: 2 proc; metric: undefined; value: 3457.22" role="graphics-symbol" aria-roledescription="point" transform="translate(0,93.23526666666667)" d="M2.739,0A2.739,2.739,0,1,1,-2.739,0A2.739,2.739,0,1,1,2.739,0" fill="#72b7b2" stroke-width="2" stroke-dasharray="1,0" opacity="1"/><path aria-label="Concurrency: 10; Latency (ms): 2253.46; percentile: p50; mode: fiber; concurrency: 10; processes: 2 proc; metric: undefined; value: 2253.46" role="graphics-symbol" aria-roledescription="point" transform="translate(22.22222222222222,137.37313333333333)" d="M2.739,0A2.739,2.739,0,1,1,-2.739,0A2.739,2.739,0,1,1,2.739,0" fill="#4c78a8" stroke-width="2" stroke-dasharray="1,0" opacity="1"/><path aria-label="Concurrency: 10; Latency (ms): 2290.72; percentile: p95; mode: fiber; concurrency: 10; processes: 2 proc; metric: undefined; value: 2290.72" role="graphics-symbol" aria-roledescription="point" transform="translate(22.22222222222222,136.00693333333334)" d="M2.739,0A2.739,2.739,0,1,1,-2.739,0A2.739,2.739,0,1,1,2.739,0" fill="#f58518" stroke-width="2" stroke-dasharray="1,0" opacity="1"/><path aria-label="Concurrency: 10; Latency (ms): 2336.95; percentile: p99; mode: fiber; concurrency: 10; processes: 2 proc; metric: undefined; value: 2336.95" role="graphics-symbol" aria-roledescription="point" transform="translate(22.22222222222222,134.31183333333337)" d="M2.739,0A2.739,2.739,0,1,1,-2.739,0A2.739,2.739,0,1,1,2.739,0" fill="#e45756" stroke-width="2" stroke-dasharray="1,0" opacity="1"/><path aria-label="Concurrency: 10; Latency (ms): 2336.95; percentile: max; mode: fiber; concurrency: 10; processes: 2 proc; metric: undefined; value: 2336.95" role="graphics-symbol" aria-roledescription="point" transform="translate(22.22222222222222,134.31183333333337)" d="M2.739,0A2.739,2.739,0,1,1,-2.739,0A2.739,2.739,0,1,1,2.739,0" fill="#72b7b2" stroke-width="2" stroke-dasharray="1,0" opacity="1"/><path aria-label="Concurrency: 25; Latency (ms): 1788.27; percentile: p50; mode: fiber; concurrency: 25; processes: 2 proc; metric: undefined; value: 1788.27" role="graphics-symbol" aria-roledescription="point" transform="translate(88.88888888888889,154.4301)" d="M2.739,0A2.739,2.739,0,1,1,-2.739,0A2.739,2.739,0,1,1,2.739,0" fill="#4c78a8" stroke-width="2" stroke-dasharray="1,0" opacity="1"/><path aria-label="Concurrency: 25; Latency (ms): 1806.4; percentile: p95; mode: fiber; concurrency: 25; processes: 2 proc; metric: undefined; value: 1806.4" role="graphics-symbol" aria-roledescription="point" transform="translate(88.88888888888889,153.76533333333333)" d="M2.739,0A2.739,2.739,0,1,1,-2.739,0A2.739,2.739,0,1,1,2.739,0" fill="#f58518" stroke-width="2" stroke-dasharray="1,0" opacity="1"/><path aria-label="Concurrency: 25; Latency (ms): 1813.07; percentile: p99; mode: fiber; concurrency: 25; processes: 2 proc; metric: undefined; value: 1813.07" role="graphics-symbol" aria-roledescription="point" transform="translate(88.88888888888889,153.52076666666667)" d="M2.739,0A2.739,2.739,0,1,1,-2.739,0A2.739,2.739,0,1,1,2.739,0" fill="#e45756" stroke-width="2" stroke-dasharray="1,0" opacity="1"/><path aria-label="Concurrency: 25; Latency (ms): 1813.07; percentile: max; mode: fiber; concurrency: 25; processes: 2 proc; metric: undefined; value: 1813.07" role="graphics-symbol" aria-roledescription="point" transform="translate(88.88888888888889,153.52076666666667)" d="M2.739,0A2.739,2.739,0,1,1,-2.739,0A2.739,2.739,0,1,1,2.739,0" fill="#72b7b2" stroke-width="2" stroke-dasharray="1,0" opacity="1"/></g></g><path class="foreground" aria-hidden="true" d="" display="none"/></g><g transform="translate(452,0)"><path class="background" aria-hidden="true" d="M0,0h200v220h-200Z"/><g><g class="mark-group role-axis" aria-hidden="true"><g transform="translate(0.5,220.5)"><path class="background" aria-hidden="true" d="M0,0h0v0h0Z" pointer-events="none"/><g><g class="mark-rule role-axis-grid" pointer-events="none"><line transform="translate(22,-220)" x2="0" y2="220" stroke="#e5e7eb" stroke-width="1" opacity="1"/><line transform="translate(67,-220)" x2="0" y2="220" stroke="#e5e7eb" stroke-width="1" opacity="1"/><line transform="translate(111,-220)" x2="0" y2="220" stroke="#e5e7eb" stroke-width="1" opacity="1"/><line transform="translate(156,-220)" x2="0" y2="220" stroke="#e5e7eb" stroke-width="1" opacity="1"/><line transform="translate(200,-220)" x2="0" y2="220" stroke="#e5e7eb" stroke-width="1" opacity="1"/></g></g><path class="foreground" aria-hidden="true" d="" pointer-events="none" display="none"/></g></g><g class="mark-group role-axis" aria-hidden="true"><g transform="translate(0.5,0.5)"><path class="background" aria-hidden="true" d="M0,0h0v0h0Z" pointer-events="none"/><g><g class="mark-rule role-axis-grid" pointer-events="none"><line transform="translate(0,220)" x2="200" y2="0" stroke="#e5e7eb" stroke-width="1" opacity="1"/><line transform="translate(0,183)" x2="200" y2="0" stroke="#e5e7eb" stroke-width="1" opacity="1"/><line transform="translate(0,147)" x2="200" y2="0" stroke="#e5e7eb" stroke-width="1" opacity="1"/><line transform="translate(0,110)" x2="200" y2="0" stroke="#e5e7eb" stroke-width="1" opacity="1"/><line transform="translate(0,73)" x2="200" y2="0" stroke="#e5e7eb" stroke-width="1" opacity="1"/><line transform="translate(0,37)" x2="200" y2="0" stroke="#e5e7eb" stroke-width="1" opacity="1"/><line transform="translate(0,0)" x2="200" y2="0" stroke="#e5e7eb" stroke-width="1" opacity="1"/></g></g><path class="foreground" aria-hidden="true" d="" pointer-events="none" display="none"/></g></g><g class="mark-group role-scope child_layer_0_pathgroup" role="graphics-object" aria-roledescription="group mark container"><g transform="translate(0,0)"><path class="background" aria-hidden="true" d="M0,0h200v220h-200Z"/><g><g class="mark-line role-mark child_layer_0_marks" role="graphics-object" aria-roledescription="line mark container"><path aria-label="Concurrency: 5; Latency (ms): 1556.77; percentile: p50; mode: fiber; concurrency: 5; processes: 6 proc; metric: undefined; value: 1556.77" role="graphics-symbol" aria-roledescription="line mark" d="M0,162.918L22.222,177.448" stroke="#4c78a8" stroke-width="2" stroke-dasharray="1,0"/></g></g><path class="foreground" aria-hidden="true" d="" display="none"/></g><g transform="translate(0,0)"><path class="background" aria-hidden="true" d="M0,0h200v220h-200Z"/><g><g class="mark-line role-mark child_layer_0_marks" role="graphics-object" aria-roledescription="line mark container"><path aria-label="Concurrency: 5; Latency (ms): 1580.57; percentile: p95; mode: fiber; concurrency: 5; processes: 6 proc; metric: undefined; value: 1580.57" role="graphics-symbol" aria-roledescription="line mark" d="M0,162.046L22.222,176.742" stroke="#f58518" stroke-width="2" stroke-dasharray="1,0"/></g></g><path class="foreground" aria-hidden="true" d="" display="none"/></g><g transform="translate(0,0)"><path class="background" aria-hidden="true" d="M0,0h200v220h-200Z"/><g><g class="mark-line role-mark child_layer_0_marks" role="graphics-object" aria-roledescription="line mark container"><path aria-label="Concurrency: 5; Latency (ms): 2025.99; percentile: p99; mode: fiber; concurrency: 5; processes: 6 proc; metric: undefined; value: 2025.99" role="graphics-symbol" aria-roledescription="line mark" d="M0,145.714L22.222,176.731" stroke="#e45756" stroke-width="2" stroke-dasharray="1,0"/></g></g><path class="foreground" aria-hidden="true" d="" display="none"/></g><g transform="translate(0,0)"><path class="background" aria-hidden="true" d="M0,0h200v220h-200Z"/><g><g class="mark-line role-mark child_layer_0_marks" role="graphics-object" aria-roledescription="line mark container"><path aria-label="Concurrency: 5; Latency (ms): 2025.99; percentile: max; mode: fiber; concurrency: 5; processes: 6 proc; metric: undefined; value: 2025.99" role="graphics-symbol" aria-roledescription="line mark" d="M0,145.714L22.222,176.731" stroke="#72b7b2" stroke-width="2" stroke-dasharray="1,0"/></g></g><path class="foreground" aria-hidden="true" d="" display="none"/></g></g><g class="mark-symbol role-mark child_layer_1_marks" role="graphics-object" aria-roledescription="symbol mark container"><path aria-label="Concurrency: 5; Latency (ms): 1556.77; percentile: p50; mode: fiber; concurrency: 5; processes: 6 proc; metric: undefined; value: 1556.77" role="graphics-symbol" aria-roledescription="point" transform="translate(0,162.91843333333333)" d="M2.739,0A2.739,2.739,0,1,1,-2.739,0A2.739,2.739,0,1,1,2.739,0" fill="#4c78a8" stroke-width="2" stroke-dasharray="1,0" opacity="1"/><path aria-label="Concurrency: 5; Latency (ms): 1580.57; percentile: p95; mode: fiber; concurrency: 5; processes: 6 proc; metric: undefined; value: 1580.57" role="graphics-symbol" aria-roledescription="point" transform="translate(0,162.04576666666665)" d="M2.739,0A2.739,2.739,0,1,1,-2.739,0A2.739,2.739,0,1,1,2.739,0" fill="#f58518" stroke-width="2" stroke-dasharray="1,0" opacity="1"/><path aria-label="Concurrency: 5; Latency (ms): 2025.99; percentile: p99; mode: fiber; concurrency: 5; processes: 6 proc; metric: undefined; value: 2025.99" role="graphics-symbol" aria-roledescription="point" transform="translate(0,145.7137)" d="M2.739,0A2.739,2.739,0,1,1,-2.739,0A2.739,2.739,0,1,1,2.739,0" fill="#e45756" stroke-width="2" stroke-dasharray="1,0" opacity="1"/><path aria-label="Concurrency: 5; Latency (ms): 2025.99; percentile: max; mode: fiber; concurrency: 5; processes: 6 proc; metric: undefined; value: 2025.99" role="graphics-symbol" aria-roledescription="point" transform="translate(0,145.7137)" d="M2.739,0A2.739,2.739,0,1,1,-2.739,0A2.739,2.739,0,1,1,2.739,0" fill="#72b7b2" stroke-width="2" stroke-dasharray="1,0" opacity="1"/><path aria-label="Concurrency: 10; Latency (ms): 1160.51; percentile: p50; mode: fiber; concurrency: 10; processes: 6 proc; metric: undefined; value: 1160.51" role="graphics-symbol" aria-roledescription="point" transform="translate(22.22222222222222,177.44796666666667)" d="M2.739,0A2.739,2.739,0,1,1,-2.739,0A2.739,2.739,0,1,1,2.739,0" fill="#4c78a8" stroke-width="2" stroke-dasharray="1,0" opacity="1"/><path aria-label="Concurrency: 10; Latency (ms): 1179.76; percentile: p95; mode: fiber; concurrency: 10; processes: 6 proc; metric: undefined; value: 1179.76" role="graphics-symbol" aria-roledescription="point" transform="translate(22.22222222222222,176.74213333333333)" d="M2.739,0A2.739,2.739,0,1,1,-2.739,0A2.739,2.739,0,1,1,2.739,0" fill="#f58518" stroke-width="2" stroke-dasharray="1,0" opacity="1"/><path aria-label="Concurrency: 10; Latency (ms): 1180.06; percentile: p99; mode: fiber; concurrency: 10; processes: 6 proc; metric: undefined; value: 1180.06" role="graphics-symbol" aria-roledescription="point" transform="translate(22.22222222222222,176.73113333333333)" d="M2.739,0A2.739,2.739,0,1,1,-2.739,0A2.739,2.739,0,1,1,2.739,0" fill="#e45756" stroke-width="2" stroke-dasharray="1,0" opacity="1"/><path aria-label="Concurrency: 10; Latency (ms): 1180.06; percentile: max; mode: fiber; concurrency: 10; processes: 6 proc; metric: undefined; value: 1180.06" role="graphics-symbol" aria-roledescription="point" transform="translate(22.22222222222222,176.73113333333333)" d="M2.739,0A2.739,2.739,0,1,1,-2.739,0A2.739,2.739,0,1,1,2.739,0" fill="#72b7b2" stroke-width="2" stroke-dasharray="1,0" opacity="1"/></g></g><path class="foreground" aria-hidden="true" d="" display="none"/></g></g><g class="mark-group role-legend" role="graphics-symbol" aria-roledescription="legend" aria-label="Symbol legend titled 'percentile' for fill color and stroke color with 4 values: p50, p95, p99, max"><g transform="translate(671,0)"><path class="background" aria-hidden="true" d="M0,0h57v78h-57Z" pointer-events="none"/><g><g class="mark-group role-legend-entry"><g transform="translate(0,17)"><path class="background" aria-hidden="true" d="M0,0h0v0h0Z" pointer-events="none"/><g><g class="mark-group role-scope" role="graphics-object" aria-roledescription="group mark container"><g transform="translate(0,0)"><path class="background" aria-hidden="true" d="M0,0h38.91796875v12.5h-38.91796875Z" pointer-events="none" opacity="1"/><g><g class="mark-symbol role-legend-symbol" pointer-events="none"><path transform="translate(6,6)" d="M5,0A5,5,0,1,1,-5,0A5,5,0,1,1,5,0" fill="#4c78a8" stroke="#4c78a8" stroke-width="1.5" opacity="1"/></g><g class="mark-text role-legend-label" pointer-events="none"><text text-anchor="start" transform="translate(16,10)" font-family="Helvetica" font-size="12px" fill="#111827" opacity="1">p50</text></g></g><path class="foreground" aria-hidden="true" d="" pointer-events="none" display="none"/></g><g transform="translate(0,16)"><path class="background" aria-hidden="true" d="M0,0h38.91796875v12.5h-38.91796875Z" pointer-events="none" opacity="1"/><g><g class="mark-symbol role-legend-symbol" pointer-events="none"><path transform="translate(6,6)" d="M5,0A5,5,0,1,1,-5,0A5,5,0,1,1,5,0" fill="#f58518" stroke="#f58518" stroke-width="1.5" opacity="1"/></g><g class="mark-text role-legend-label" pointer-events="none"><text text-anchor="start" transform="translate(16,10)" font-family="Helvetica" font-size="12px" fill="#111827" opacity="1">p95</text></g></g><path class="foreground" aria-hidden="true" d="" pointer-events="none" display="none"/></g><g transform="translate(0,32)"><path class="background" aria-hidden="true" d="M0,0h38.91796875v12.5h-38.91796875Z" pointer-events="none" opacity="1"/><g><g class="mark-symbol role-legend-symbol" pointer-events="none"><path transform="translate(6,6)" d="M5,0A5,5,0,1,1,-5,0A5,5,0,1,1,5,0" fill="#e45756" stroke="#e45756" stroke-width="1.5" opacity="1"/></g><g class="mark-text role-legend-label" pointer-events="none"><text text-anchor="start" transform="translate(16,10)" font-family="Helvetica" font-size="12px" fill="#111827" opacity="1">p99</text></g></g><path class="foreground" aria-hidden="true" d="" pointer-events="none" display="none"/></g><g transform="translate(0,48)"><path class="background" aria-hidden="true" d="M0,0h38.91796875v12.5h-38.91796875Z" pointer-events="none" opacity="1"/><g><g class="mark-symbol role-legend-symbol" pointer-events="none"><path transform="translate(6,6)" d="M5,0A5,5,0,1,1,-5,0A5,5,0,1,1,5,0" fill="#72b7b2" stroke="#72b7b2" stroke-width="1.5" opacity="1"/></g><g class="mark-text role-legend-label" pointer-events="none"><text text-anchor="start" transform="translate(16,10)" font-family="Helvetica" font-size="12px" fill="#111827" opacity="1">max</text></g></g><path class="foreground" aria-hidden="true" d="" pointer-events="none" display="none"/></g></g></g><path class="foreground" aria-hidden="true" d="" pointer-events="none" display="none"/></g></g><g class="mark-text role-legend-title" pointer-events="none"><text text-anchor="start" transform="translate(0,9)" font-family="Helvetica" font-size="12px" font-weight="bold" fill="#111827" opacity="1">percentile</text></g></g><path class="foreground" aria-hidden="true" d="" pointer-events="none" display="none"/></g></g><g class="mark-group role-legend" role="graphics-symbol" aria-roledescription="legend" aria-label="Symbol legend titled 'mode' for strokeDash with 1 value: fiber"><g transform="translate(671,86)"><path class="background" aria-hidden="true" d="M0,0h40v30h-40Z" pointer-events="none"/><g><g class="mark-group role-legend-entry"><g transform="translate(0,17)"><path class="background" aria-hidden="true" d="M0,0h0v0h0Z" pointer-events="none"/><g><g class="mark-group role-scope" role="graphics-object" aria-roledescription="group mark container"><g transform="translate(0,0)"><path class="background" aria-hidden="true" d="M0,0h39.337890625v12.5h-39.337890625Z" pointer-events="none" opacity="1"/><g><g class="mark-symbol role-legend-symbol" pointer-events="none"><path transform="translate(6,6)" d="M5,0A5,5,0,1,1,-5,0A5,5,0,1,1,5,0" fill="black" fill-opacity="1" stroke-width="1.5" stroke-dasharray="1,0" opacity="1"/></g><g class="mark-text role-legend-label" pointer-events="none"><text text-anchor="start" transform="translate(16,10)" font-family="Helvetica" font-size="12px" fill="#111827" opacity="1">fiber</text></g></g><path class="foreground" aria-hidden="true" d="" pointer-events="none" display="none"/></g></g></g><path class="foreground" aria-hidden="true" d="" pointer-events="none" display="none"/></g></g><g class="mark-text role-legend-title" pointer-events="none"><text text-anchor="start" transform="translate(0,9)" font-family="Helvetica" font-size="12px" font-weight="bold" fill="#111827" opacity="1">mode</text></g></g><path class="foreground" aria-hidden="true" d="" pointer-events="none" display="none"/></g></g><g class="mark-group role-title"><g transform="translate(-57.0234375,-76)"><path class="background" aria-hidden="true" d="M0,0h0v0h0Z" pointer-events="none"/><g><g class="mark-text role-title-text" role="graphics-symbol" aria-roledescription="title" aria-label="Title text 'Async::Job RubyLLM Stream Latency'" pointer-events="none"><text text-anchor="start" transform="translate(0,13)" font-family="Helvetica" font-size="16px" font-weight="bold" fill="#111827" opacity="1">Async::Job RubyLLM Stream Latency</text></g></g><path class="foreground" aria-hidden="true" d="" pointer-events="none" display="none"/></g></g></g><path class="foreground" aria-hidden="true" d="" display="none"/></g></g></g></svg>