<svg xmlns="http://www.w3.org/2000/svg" xmlns:xlink="http://www.w3.org/1999/xlink" version="1.1" class="marks" width="566" height="339" viewBox="0 0 566 339"><rect width="566" height="339" fill="white"/><g fill="none" stroke-miterlimit="10" transform="translate(60,81)"><g class="mark-group role-frame root" role="graphics-object" aria-roledescription="group mark container"><g transform="translate(0,0)"><path class="background" aria-hidden="true" d="M0,0h0v0h0Z"/><g><g class="mark-group role-column-title column-title" role="graphics-object" aria-roledescription="group mark container"><g transform="translate(213,-33)"><path class="background" aria-hidden="true" d="M0,0h0v0h0Z"/><g><g class="mark-group role-title"><g transform="translate(0,-22)"><path class="background" aria-hidden="true" d="M0,0h0v0h0Z" pointer-events="none"/><g><g class="mark-text role-title-text" role="graphics-symbol" aria-roledescription="title" aria-label="Title text 'processes'" pointer-events="none"><text text-anchor="middle" transform="translate(0,9)" font-family="Helvetica" font-size="12px" font-weight="bold" fill="#111827" opacity="1">processes</text></g></g><path class="foreground" aria-hidden="true" d="" pointer-events="none" display="none"/></g></g></g><path class="foreground" aria-hidden="true" d="" display="none"/></g></g><g class="mark-group role-row-header row_header" role="graphics-object" aria-roledescription="group mark container"><g transform="translate(0,0)"><path class="background" aria-hidden="true" d="M0,0h0v220h0Z"/><g><g class="mark-group role-axis" role="graphics-symbol" aria-roledescription="axis" aria-label="Y-axis titled 'Latency (ms)' for a linear scale with values from 0 to 4,000"><g transform="translate(0.5,0.5)"><path class="background" aria-hidden="true" d="M0,0h0v0h0Z" pointer-events="none"/><g><g class="mark-rule role-axis-tick" pointer-events="none"><line transform="translate(0,220)" x2="-5" y2="0" stroke="#9ca3af" stroke-width="1" opacity="1"/><line transform="translate(0,193)" x2="-5" y2="0" stroke="#9ca3af" stroke-width="1" opacity="1"/><line transform="translate(0,165)" x2="-5" y2="0" stroke="#9ca3af" stroke-width="1" opacity="1"/><line transform="translate(0,138)" x2="-5" y2="0" stroke="#9ca3af" stroke-width="1" opacity="1"/><line transform="translate(0,110)" x2="-5" y2="0" stroke="#9ca3af" stroke-width="1" opacity="1"/><line transform="translate(0,83)" x2="-5" y2="0" stroke="#9ca3af" stroke-width="1" opacity="1"/><line transform="translate(0,55)" x2="-5" y2="0" stroke="#9ca3af" stroke-width="1" opacity="1"/><line transform="translate(0,28)" x2="-5" y2="0" stroke="#9ca3af" stroke-width="1" opacity="1"/><line transform="translate(0,0)" x2="-5" y2="0" stroke="#9ca3af" stroke-width="1" opacity="1"/></g><g class="mark-text role-axis-label" pointer-events="none"><text text-anchor="end" transform="translate(-7,224)" font-family="Helvetica" font-size="12px" fill="#111827" opacity="1">0</text><text text-anchor="end" transform="translate(-7,196.5)" font-family="Helvetica" font-size="12px" fill="#111827" opacity="1">500</text><text text-anchor="end" transform="translate(-7,169)" font-family="Helvetica" font-size="12px" fill="#111827" opacity="1">1,000</text><text text-anchor="end" transform="translate(-7,141.5)" font-family="Helvetica" font-size="12px" fill="#111827" opacity="1">1,500</text><text text-anchor="end" transform="translate(-7,114)" font-family="Helvetica" font-size="12px" fill="#111827" opacity="1">2,000</text><text text-anchor="end" transform="translate(-7,86.5)" font-family="Helvetica" font-size="12px" fill="#111827" opacity="1">2,500</text><text text-anchor="end" transform="translate(-7,59)" font-family="Helvetica" font-size="12px" fill="#111827" opacity="1">3,000</text><text text-anchor="end" transform="translate(-7,31.5)" font-family="Helvetica" font-size="12px" fill="#111827" opacity="1">3,500</text><text text-anchor="end" transform="translate(-7,4)" font-family="Helvetica" font-size="12px" fill="#111827" opacity="1">4,000</text></g><g class="mark-rule role-axis-domain" pointer-events="none"><line transform="translate(0,220)" x2="0" y2="-220" stroke="#111827" stroke-width="1" opacity="1"/></g><g class="mark-text role-axis-title" pointer-events="none"><text text-anchor="middle" transform="translate(-41.0234375,110) rotate(-90) translate(0,-3)" font-family="Helvetica" font-size="12px" font-weight="bold" fill="#111827" opacity="1">Latency (ms)</text></g></g><path class="foreground" aria-hidden="true" d="" pointer-events="none" display="none"/></g></g></g><path class="foreground" aria-hidden="true" d="" display="none"/></g></g><g class="mark-group role-column-header column_header" role="graphics-object" aria-roledescription="group mark container"><g transform="translate(0,0)"><path class="background" aria-hidden="true" d="M0,0h200v0h-200Z"/><g><g class="mark-group role-title"><g transform="translate(100,-22)"><path class="background" aria-hidden="true" d="M0,0h0v0h0Z" pointer-events="none"/><g><g class="mark-text role-title-text" role="graphics-symbol" aria-roledescription="title" aria-label="Title text '2 proc'" pointer-events="none"><text text-anchor="middle" transform="translate(0,9)" font-family="Helvetica" font-size="12px" fill="#111827" opacity="1">2 proc</text></g></g><path class="foreground" aria-hidden="true" d="" pointer-events="none" display="none"/></g></g></g><path class="foreground" aria-hidden="true" d="" display="none"/></g><g transform="translate(223,0)"><path class="background" aria-hidden="true" d="M0,0h200v0h-200Z"/><g><g class="mark-group role-title"><g transform="translate(100,-22)"><path class="background" aria-hidden="true" d="M0,0h0v0h0Z" pointer-events="none"/><g><g class="mark-text role-title-text" role="graphics-symbol" aria-roledescription="title" aria-label="Title text '6 proc'" pointer-events="none"><text text-anchor="middle" transform="translate(0,9)" font-family="Helvetica" font-size="12px" fill="#111827" opacity="1">6 proc</text></g></g><path class="foreground" aria-hidden="true" d="" pointer-events="none" display="none"/></g></g></g><path class="foreground" aria-hidden="true" d="" display="none"/></g></g><g class="mark-group role-column-footer column_footer" role="graphics-object" aria-roledescription="group mark container"><g transform="translate(0,220)"><path class="background" aria-hidden="true" d="M0,0h200v0h-200Z"/><g><g class="mark-group role-axis" role="graphics-symbol" aria-roledescription="axis" aria-label="X-axis titled 'Concurrency' for a linear scale with values from 20 to 200"><g transform="translate(0.5,0.5)"><path class="background" aria-hidden="true" d="M0,0h0v0h0Z" pointer-events="none"/><g><g class="mark-rule role-axis-tick" pointer-events="none"><line transform="translate(33,0)" x2="0" y2="5" stroke="#9ca3af" stroke-width="1" opacity="1"/><line transform="translate(89,0)" x2="0" y2="5" stroke="#9ca3af" stroke-width="1" opacity="1"/><line transform="translate(144,0)" x2="0" y2="5" stroke="#9ca3af" stroke-width="1" opacity="1"/><line transform="translate(200,0)" x2="0" y2="5" stroke="#9ca3af" stroke-width="1" opacity="1"/></g><g class="mark-text role-axis-label" pointer-events="none"><text text-anchor="middle" transform="translate(33.33333333333333,16)" font-family="Helvetica" font-size="12px" fill="#111827" opacity="1">50</text><text text-anchor="middle" transform="translate(88.88888888888889,16)" font-family="Helvetica" font-size="12px" fill="#111827" opacity="1">100</text><text text-anchor="middle" transform="translate(144.44444444444443,16)" font-family="Helvetica" font-size="12px" fill="#111827" opacity="1">150</text><text text-anchor="end" transform="translate(200,16)" font-family="Helvetica" font-size="12px" fill="#111827" opacity="1">200</text></g><g class="mark-rule role-axis-domain" pointer-events="none"><line transform="translate(0,0)" x2="200" y2="0" stroke="#111827" stroke-width="1" opacity="1"/></g><g class="mark-text role-axis-title" pointer-events="none"><text text-anchor="middle" transform="translate(100,31)" font-family="Helvetica" font-size="12px" font-weight="bold" fill="#111827" opacity="1">Concurrency</text></g></g><path class="foreground" aria-hidden="true" d="" pointer-events="none" display="none"/></g></g></g><path class="foreground" aria-hidden="true" d="" display="none"/></g><g transform="translate(223,220)"><path class="background" aria-hidden="true" d="M0,0h200v0h-200Z"/><g><g class="mark-group role-axis" role="graphics-symbol" aria-roledescription="axis" aria-label="X-axis titled 'Concurrency' for a linear scale with values from 20 to 200"><g transform="translate(0.5,0.5)"><path class="background" aria-hidden="true" d="M0,0h0v0h0Z" pointer-events="none"/><g><g class="mark-rule role-axis-tick" pointer-events="none"><line transform="translate(33,0)" x2="0" y2="5" stroke="#9ca3af" stroke-width="1" opacity="1"/><line transform="translate(89,0)" x2="0" y2="5" stroke="#9ca3af" stroke-width="1" opacity="1"/><line transform="translate(144,0)" x2="0" y2="5" stroke="#9ca3af" stroke-width="1" opacity="1"/><line transform="translate(200,0)" x2="0" y2="5" stroke="#9ca3af" stroke-width="1" opacity="1"/></g><g class="mark-text role-axis-label" pointer-events="none"><text text-anchor="middle" transform="translate(33.33333333333333,16)" font-family="Helvetica" font-size="12px" fill="#111827" opacity="1">50</text><text text-anchor="middle" transform="translate(88.88888888888889,16)" font-family="Helvetica" font-size="12px" fill="#111827" opacity="1">100</text><text text-anchor="middle" transform="translate(144.44444444444443,16)" font-family="Helvetica" font-size="12px" fill="#111827" opacity="1">150</text><text text-anchor="end" transform="translate(200,16)" font-family="Helvetica" font-size="12px" fill="#111827" opacity="1">200</text></g><g class="mark-rule role-axis-domain" pointer-events="none"><line transform="translate(0,0)" x2="200" y2="0" stroke="#111827" stroke-width="1" opacity="1"/></g><g class="mark-text role-axis-title" pointer-events="none"><text text-anchor="middle" transform="translate(100,31)" font-family="Helvetica" font-size="12px" font-weight="bold" fill="#111827" opacity="1">Concurrency</text></g></g><path class="foreground" aria-hidden="true" d="" pointer-events="none" display="none"/></g></g></g><path class="foreground" aria-hidden="true" d="" display="none"/></g></g><g class="mark-group role-scope cell" role="graphics-object" aria-roledescription="group mark container"><g transform="translate(0,0)"><path class="background" aria-hidden="true" d="M0,0h200v220h-200Z"/><g><g class="mark-group role-axis" aria-hidden="true"><g transform="translate(0.5,220.5)"><path class="background" aria-hidden="true" d="M0,0h0v0h0Z" pointer-events="none"/><g><g class="mark-rule role-axis-grid" pointer-events="none"><line transform="translate(33,-220)" x2="0" y2="220" stroke="#e5e7eb" stroke-width="1" opacity="1"/><line transform="translate(89,-220)" x2="0" y2="220" stroke="#e5e7eb" stroke-width="1" opacity="1"/><line transform="translate(144,-220)" x2="0" y2="220" stroke="#e5e7eb" stroke-width="1" opacity="1"/><line transform="translate(200,-220)" x2="0" y2="220" stroke="#e5e7eb" stroke-width="1" opacity="1"/></g></g><path class="foreground" aria-hidden="true" d="" pointer-events="none" display="none"/></g></g><g class="mark-group role-axis" aria-hidden="true"><g transform="translate(0.5,0.5)"><path class="background" aria-hidden="true" d="M0,0h0v0h0Z" pointer-events="none"/><g><g class="mark-rule role-axis-grid" pointer-events="none"><line transform="translate(0,220)" x2="200" y2="0" stroke="#e5e7eb" stroke-width="1" opacity="1"/><line transform="translate(0,193)" x2="200" y2="0" stroke="#e5e7eb" stroke-width="1" opacity="1"/><line transform="translate(0,165)" x2="200" y2="0" stroke="#e5e7eb" stroke-width="1" opacity="1"/><line transform="translate(0,138)" x2="200" y2="0" stroke="#e5e7eb" stroke-width="1" opacity="1"/><line transform="translate(0,110)" x2="200" y2="0" stroke="#e5e7eb" stroke-width="1" opacity="1"/><line transform="translate(0,83)" x2="200" y2="0" stroke="#e5e7eb" stroke-width="1" opacity="1"/><line transform="translate(0,55)" x2="200" y2="0" stroke="#e5e7eb" stroke-width="1" opacity="1"/><line transform="translate(0,28)" x2="200" y2="0" stroke="#e5e7eb" stroke-width="1" opacity="1"/><line transform="translate(0,0)" x2="200" y2="0" stroke="#e5e7eb" stroke-width="1" opacity="1"/></g></g><path class="foreground" aria-hidden="true" d="" pointer-events="none" display="none"/></g></g><g class="mark-group role-scope child_layer_0_pathgroup" role="graphics-object" aria-roledescription="group mark container"><g transform="translate(0,0)"><path class="background" aria-hidden="true" d="M0,0h200v220h-200Z"/><g><g class="mark-line role-mark child_layer_0_marks" role="graphics-object" aria-roledescription="line mark container"><path aria-label="Concurrency: 25; Latency (ms): 1962.15; percentile: p50; mode: thread; concurrency: 25; processes: 2 proc; metric: undefined; value: 1962.15" role="graphics-symbol" aria-roledescription="line mark" d="M5.556,112.082Z" stroke="#4c78a8" stroke-width="2" stroke-dasharray="4,2"/></g></g><path class="foreground" aria-hidden="true" d="" display="none"/></g><g transform="translate(0,0)"><path class="background" aria-hidden="true" d="M0,0h200v220h-200Z"/><g><g class="mark-line role-mark child_layer_0_marks" role="graphics-object" aria-roledescription="line mark container"><path aria-label="Concurrency: 25; Latency (ms): 3672.93; percentile: p95; mode: thread; concurrency: 25; processes: 2 proc; metric: undefined; value: 3672.93" role="graphics-symbol" aria-roledescription="line mark" d="M5.556,17.989Z" stroke="#f58518" stroke-width="2" stroke-dasharray="4,2"/></g></g><path class="foreground" aria-hidden="true" d="" display="none"/></g><g transform="translate(0,0)"><path class="background" aria-hidden="true" d="M0,0h200v220h-200Z"/><g><g class="mark-line role-mark child_layer_0_marks" role="graphics-object" aria-roledescription="line mark container"><path aria-label="Concurrency: 25; Latency (ms): 3720.55; percentile: p99; mode: thread; concurrency: 25; processes: 2 proc; metric: undefined; value: 3720.55" role="graphics-symbol" aria-roledescription="line mark" d="M5.556,15.37Z" stroke="#e45756" stroke-width="2" stroke-dasharray="4,2"/></g></g><path class="foreground" aria-hidden="true" d="" display="none"/></g><g transform="translate(0,0)"><path class="background" aria-hidden="true" d="M0,0h200v220h-200Z"/><g><g class="mark-line role-mark child_layer_0_marks" role="graphics-object" aria-roledescription="line mark container"><path aria-label="Concurrency: 25; Latency (ms): 3722.23; percentile: max; mode: thread; concurrency: 25; processes: 2 proc; metric: undefined; value: 3722.23" role="graphics-symbol" aria-roledescription="line mark" d="M5.556,15.277Z" stroke="#72b7b2" stroke-width="2" stroke-dasharray="4,2"/></g></g><path class="foreground" aria-hidden="true" d="" display="none"/></g><g transform="translate(0,0)"><path class="background" aria-hidden="true" d="M0,0h200v220h-200Z"/><g><g class="mark-line role-mark child_layer_0_marks" role="graphics-object" aria-roledescription="line mark container"><path aria-label="Concurrency: 25; Latency (ms): 1841.29; percentile: p50; mode: fiber; concurrency: 25; processes: 2 proc; metric: undefined; value: 1841.29" role="graphics-symbol" aria-roledescription="line mark" d="M5.556,118.729L33.333,146.763L88.889,159.519L144.444,186.197L200,181.629" stroke="#4c78a8" stroke-width="2" stroke-dasharray="1,0"/></g></g><path class="foreground" aria-hidden="true" d="" display="none"/></g><g transform="translate(0,0)"><path class="background" aria-hidden="true" d="M0,0h200v220h-200Z"/><g><g class="mark-line role-mark child_layer_0_marks" role="graphics-object" aria-roledescription="line mark container"><path aria-label="Concurrency: 25; Latency (ms): 3431.25; percentile: p95; mode: fiber; concurrency: 25; processes: 2 proc; metric: undefined; value: 3431.25" role="graphics-symbol" aria-roledescription="line mark" d="M5.556,31.281L33.333,103.041L88.889,128.373L144.444,144.363L200,142.763" stroke="#f58518" stroke-width="2" stroke-dasharray="1,0"/></g></g><path class="foreground" aria-hidden="true" d="" display="none"/></g><g transform="translate(0,0)"><path class="background" aria-hidden="true" d="M0,0h200v220h-200Z"/><g><g class="mark-line role-mark child_layer_0_marks" role="graphics-object" aria-roledescription="line mark container"><path aria-label="Concurrency: 25; Latency (ms): 3483.85; percentile: p99; mode: fiber; concurrency: 25; processes: 2 proc; metric: undefined; value: 3483.85" role="graphics-symbol" aria-roledescription="line mark" d="M5.556,28.388L33.333,101.717L88.889,126.971L144.444,143.906L200,142.369" stroke="#e45756" stroke-width="2" stroke-dasharray="1,0"/></g></g><path class="foreground" aria-hidden="true" d="" display="none"/></g><g transform="translate(0,0)"><path class="background" aria-hidden="true" d="M0,0h200v220h-200Z"/><g><g class="mark-line role-mark child_layer_0_marks" role="graphics-object" aria-roledescription="line mark container"><path aria-label="Concurrency: 25; Latency (ms): 3506.83; percentile: max; mode: fiber; concurrency: 25; processes: 2 proc; metric: undefined; value: 3506.83" role="graphics-symbol" aria-roledescription="line mark" d="M5.556,27.124L33.333,100.956L88.889,126.773L144.444,143.799L200,142.213" stroke="#72b7b2" stroke-width="2" stroke-dasharray="1,0"/></g></g><path class="foreground" aria-hidden="true" d="" display="none"/></g></g><g class="mark-symbol role-mark child_layer_1_marks" role="graphics-object" aria-roledescription="symbol mark container"><path aria-label="Concurrency: 25; Latency (ms): 1962.15; percentile: p50; mode: thread; concurrency: 25; processes: 2 proc; metric: undefined; value: 1962.15" role="graphics-symbol" aria-roledescription="point" transform="translate(5.555555555555555,112.08174999999999)" d="M2.739,0A2.739,2.739,0,1,1,-2.739,0A2.739,2.739,0,1,1,2.739,0" fill="#4c78a8" stroke-width="2" stroke-dasharray="4,2" opacity="1"/><path aria-label="Concurrency: 25; Latency (ms): 3672.93; percentile: p95; mode: thread; concurrency: 25; processes: 2 proc; metric: undefined; value: 3672.93" role="graphics-symbol" aria-roledescription="point" transform="translate(5.555555555555555,17.98885)" d="M2.739,0A2.739,2.739,0,1,1,-2.739,0A2.739,2.739,0,1,1,2.739,0" fill="#f58518" stroke-width="2" stroke-dasharray="4,2" opacity="1"/><path aria-label="Concurrency: 25; Latency (ms): 3720.55; percentile: p99; mode: thread; concurrency: 25; processes: 2 proc; metric: undefined; value: 3720.55" role="graphics-symbol" aria-roledescription="point" transform="translate(5.555555555555555,15.369749999999986)" d="M2.739,0A2.739,2.739,0,1,1,-2.739,0A2.739,2.739,0,1,1,2.739,0" fill="#e45756" stroke-width="2" stroke-dasharray="4,2" opacity="1"/><path aria-label="Concurrency: 25; Latency (ms): 3722.23; percentile: max; mode: thread; concurrency: 25; processes: 2 proc; metric: undefined; value: 3722.23" role="graphics-symbol" aria-roledescription="point" transform="translate(5.555555555555555,15.277349999999991)" d="M2.739,0A2.739,2.739,0,1,1,-2.739,0A2.739,2.739,0,1,1,2.739,0" fill="#72b7b2" stroke-width="2" stroke-dasharray="4,2" opacity="1"/><path aria-label="Concurrency: 25; Latency (ms): 1841.29; percentile: p50; mode: fiber; concurrency: 25; processes: 2 proc; metric: undefined; value: 1841.29" role="graphics-symbol" aria-roledescription="point" transform="translate(5.555555555555555,118.72905)" d="M2.739,0A2.739,2.739,0,1,1,-2.739,0A2.739,2.739,0,1,1,2.739,0" fill="#4c78a8" stroke-width="2" stroke-dasharray="1,0" opacity="1"/><path aria-label="Concurrency: 25; Latency (ms): 3431.25; percentile: p95; mode: fiber; concurrency: 25; processes: 2 proc; metric: undefined; value: 3431.25" role="graphics-symbol" aria-roledescription="point" transform="translate(5.555555555555555,31.281250000000004)" d="M2.739,0A2.739,2.739,0,1,1,-2.739,0A2.739,2.739,0,1,1,2.739,0" fill="#f58518" stroke-width="2" stroke-dasharray="1,0" opacity="1"/><path aria-label="Concurrency: 25; Latency (ms): 3483.85; percentile: p99; mode: fiber; concurrency: 25; processes: 2 proc; metric: undefined; value: 3483.85" role="graphics-symbol" aria-roledescription="point" transform="translate(5.555555555555555,28.388250000000006)" d="M2.739,0A2.739,2.739,0,1,1,-2.739,0A2.739,2.739,0,1,1,2.739,0" fill="#e45756" stroke-width="2" stroke-dasharray="1,0" opacity="1"/><path aria-label="Concurrency: 25; Latency (ms): 3506.83; percentile: max; mode: fiber; concurrency: 25; processes: 2 proc; metric: undefined; value: 3506.83" role="graphics-symbol" aria-roledescription="point" transform="translate(5.555555555555555,27.124350000000007)" d="M2.739,0A2.739,2.739,0,1,1,-2.739,0A2.739,2.739,0,1,1,2.739,0" fill="#72b7b2" stroke-width="2" stroke-dasharray="1,0" opacity="1"/><path aria-label="Concurrency: 50; Latency (ms): 1331.59; percentile: p50; mode: fiber; concurrency: 50; processes: 2 proc; metric: undefined; value: 1331.59" role="graphics-symbol" aria-roledescription="point" transform="translate(33.33333333333333,146.76255)" d="M2.739,0A2.739,2.739,0,1,1,-2.739,0A2.739,2.739,0,1,1,2.739,0" fill="#4c78a8" stroke-width="2" stroke-dasharray="1,0" opacity="1"/><path aria-label="Concurrency: 50; Latency (ms): 2126.53; percentile: p95; mode: fiber; concurrency: 50; processes: 2 proc; metric: undefined; value: 2126.53" role="graphics-symbol" aria-roledescription="point" transform="translate(33.33333333333333,103.04084999999999)" d="M2.739,0A2.739,2.739,0,1,1,-2.739,0A2.739,2.739,0,1,1,2.739,0" fill="#f58518" stroke-width="2" stroke-dasharray="1,0" opacity="1"/><path aria-label="Concurrency: 50; Latency (ms): 2150.6; percentile: p99; mode: fiber; concurrency: 50; processes: 2 proc; metric: undefined; value: 2150.6" role="graphics-symbol" aria-roledescription="point" transform="translate(33.33333333333333,101.71700000000001)" d="M2.739,0A2.739,2.739,0,1,1,-2.739,0A2.739,2.739,0,1,1,2.739,0" fill="#e45756" stroke-width="2" stroke-dasharray="1,0" opacity="1"/><path aria-label="Concurrency: 50; Latency (ms): 2164.44; percentile: max; mode: fiber; concurrency: 50; processes: 2 proc; metric: undefined; value: 2164.44" role="graphics-symbol" aria-roledescription="point" transform="translate(33.33333333333333,100.95580000000001)" d="M2.739,0A2.739,2.739,0,1,1,-2.739,0A2.739,2.739,0,1,1,2.739,0" fill="#72b7b2" stroke-width="2" stroke-dasharray="1,0" opacity="1"/><path aria-label="Concurrency: 100; Latency (ms): 1099.66; percentile: p50; mode: fiber; concurrency: 100; processes: 2 proc; metric: undefined; value: 1099.66" role="graphics-symbol" aria-roledescription="point" transform="translate(88.88888888888889,159.5187)" d="M2.739,0A2.739,2.739,0,1,1,-2.739,0A2.739,2.739,0,1,1,2.739,0" fill="#4c78a8" stroke-width="2" stroke-dasharray="1,0" opacity="1"/><path aria-label="Concurrency: 100; Latency (ms): 1665.95; percentile: p95; mode: fiber; concurrency: 100; processes: 2 proc; metric: undefined; value: 1665.95" role="graphics-symbol" aria-roledescription="point" transform="translate(88.88888888888889,128.37275)" d="M2.739,0A2.739,2.739,0,1,1,-2.739,0A2.739,2.739,0,1,1,2.739,0" fill="#f58518" stroke-width="2" stroke-dasharray="1,0" opacity="1"/><path aria-label="Concurrency: 100; Latency (ms): 1691.43; percentile: p99; mode: fiber; concurrency: 100; processes: 2 proc; metric: undefined; value: 1691.43" role="graphics-symbol" aria-roledescription="point" transform="translate(88.88888888888889,126.97135)" d="M2.739,0A2.739,2.739,0,1,1,-2.739,0A2.739,2.739,0,1,1,2.739,0" fill="#e45756" stroke-width="2" stroke-dasharray="1,0" opacity="1"/><path aria-label="Concurrency: 100; Latency (ms): 1695.03; percentile: max; mode: fiber; concurrency: 100; processes: 2 proc; metric: undefined; value: 1695.03" role="graphics-symbol" aria-roledescription="point" transform="translate(88.88888888888889,126.77335)" d="M2.739,0A2.739,2.739,0,1,1,-2.739,0A2.739,2.739,0,1,1,2.739,0" fill="#72b7b2" stroke-width="2" stroke-dasharray="1,0" opacity="1"/><path aria-label="Concurrency: 150; Latency (ms): 614.6; percentile: p50; mode: fiber; concurrency: 150; processes: 2 proc; metric: undefined; value: 614.6" role="graphics-symbol" aria-roledescription="point" transform="translate(144.44444444444443,186.19699999999997)" d="M2.739,0A2.739,2.739,0,1,1,-2.739,0A2.739,2.739,0,1,1,2.739,0" fill="#4c78a8" stroke-width="2" stroke-dasharray="1,0" opacity="1"/><path aria-label="Concurrency: 150; Latency (ms): 1375.22; percentile: p95; mode: fiber; concurrency: 150; processes: 2 proc; metric: undefined; value: 1375.22" role="graphics-symbol" aria-roledescription="point" transform="translate(144.44444444444443,144.3629)" d="M2.739,0A2.739,2.739,0,1,1,-2.739,0A2.739,2.739,0,1,1,2.739,0" fill="#f58518" stroke-width="2" stroke-dasharray="1,0" opacity="1"/><path aria-label="Concurrency: 150; Latency (ms): 1383.52; percentile: p99; mode: fiber; concurrency: 150; processes: 2 proc; metric: undefined; value: 1383.52" role="graphics-symbol" aria-roledescription="point" transform="translate(144.44444444444443,143.90640000000002)" d="M2.739,0A2.739,2.739,0,1,1,-2.739,0A2.739,2.739,0,1,1,2.739,0" fill="#e45756" stroke-width="2" stroke-dasharray="1,0" opacity="1"/><path aria-label="Concurrency: 150; Latency (ms): 1385.48; percentile: max; mode: fiber; concurrency: 150; processes: 2 proc; metric: undefined; value: 1385.48" role="graphics-symbol" aria-roledescription="point" transform="translate(144.44444444444443,143.7986)" d="M2.739,0A2.739,2.739,0,1,1,-2.739,0A2.739,2.739,0,1,1,2.739,0" fill="#72b7b2" stroke-width="2" stroke-dasharray="1,0" opacity="1"/><path aria-label="Concurrency: 200; Latency (ms): 697.65; percentile: p50; mode: fiber; concurrency: 200; processes: 2 proc; metric: undefined; value: 697.65" role="graphics-symbol" aria-roledescription="point" transform="translate(200,181.62925)" d="M2.739,0A2.739,2.739,0,1,1,-2.739,0A2.739,2.739,0,1,1,2.739,0" fill="#4c78a8" stroke-width="2" stroke-dasharray="1,0" opacity="1"/><path aria-label="Concurrency: 200; Latency (ms): 1404.31; percentile: p95; mode: fiber; concurrency: 200; processes: 2 proc; metric: undefined; value: 1404.31" role="graphics-symbol" aria-roledescription="point" transform="translate(200,142.76295000000002)" d="M2.739,0A2.739,2.739,0,1,1,-2.739,0A2.739,2.739,0,1,1,2.739,0" fill="#f58518" stroke-width="2" stroke-dasharray="1,0" opacity="1"/><path aria-label="Concurrency: 200; Latency (ms): 1411.47; percentile: p99; mode: fiber; concurrency: 200; processes: 2 proc; metric: undefined; value: 1411.47" role="graphics-symbol" aria-roledescription="point" transform="translate(200,142.36915)" d="M2.739,0A2.739,2.739,0,1,1,-2.739,0A2.739,2.739,0,1,1,2.739,0" fill="#e45756" stroke-width="2" stroke-dasharray="1,0" opacity="1"/><path aria-label="Concurrency: 200; Latency (ms): 1414.31; percentile: max; mode: fiber; concurrency: 200; processes: 2 proc; metric: undefined; value: 1414.31" role="graphics-symbol" aria-roledescription="point" transform="translate(200,142.21295)" d="M2.739,0A2.739,2.739,0,1,1,-2.739,0A2.739,2.739,0,1,1,2.739,0" fill="#72b7b2" stroke-width="2" stroke-dasharray="1,0" opacity="1"/></g></g><path class="foreground" aria-hidden="true" d="" display="none"/></g><g transform="translate(223,0)"><path class="background" aria-hidden="true" d="M0,0h200v220h-200Z"/><g><g class="mark-group role-axis" aria-hidden="true"><g transform="translate(0.5,220.5)"><path class="background" aria-hidden="true" d="M0,0h0v0h0Z" pointer-events="none"/><g><g class="mark-rule role-axis-grid" pointer-events="none"><line transform="translate(33,-220)" x2="0" y2="220" stroke="#e5e7eb" stroke-width="1" opacity="1"/><line transform="translate(89,-220)" x2="0" y2="220" stroke="#e5e7eb" stroke-width="1" opacity="1"/><line transform="translate(144,-220)" x2="0" y2="220" stroke="#e5e7eb" stroke-width="1" opacity="1"/><line transform="translate(200,-220)" x2="0" y2="220" stroke="#e5e7eb" stroke-width="1" opacity="1"/></g></g><path class="foreground" aria-hidden="true" d="" pointer-events="none" display="none"/></g></g><g class="mark-group role-axis" aria-hidden="true"><g transform="translate(0.5,0.5)"><path class="background" aria-hidden="true" d="M0,0h0v0h0Z" pointer-events="none"/><g><g class="mark-rule role-axis-grid" pointer-events="none"><line transform="translate(0,220)" x2="200" y2="0" stroke="#e5e7eb" stroke-width="1" opacity="1"/><line transform="translate(0,193)" x2="200" y2="0" stroke="#e5e7eb" stroke-width="1" opacity="1"/><line transform="translate(0,165)" x2="200" y2="0" stroke="#e5e7eb" stroke-width="1" opacity="1"/><line transform="translate(0,138)" x2="200" y2="0" stroke="#e5e7eb" stroke-width="1" opacity="1"/><line transform="translate(0,110)" x2="200" y2="0" stroke="#e5e7eb" stroke-width="1" opacity="1"/><line transform="translate(0,83)" x2="200" y2="0" stroke="#e5e7eb" stroke-width="1" opacity="1"/><line transform="translate(0,55)" x2="200" y2="0" stroke="#e5e7eb" stroke-width="1" opacity="1"/><line transform="translate(0,28)" x2="200" y2="0" stroke="#e5e7eb" stroke-width="1" opacity="1"/><line transform="translate(0,0)" x2="200" y2="0" stroke="#e5e7eb" stroke-width="1" opacity="1"/></g></g><path class="foreground" aria-hidden="true" d="" pointer-events="none" display="none"/></g></g><g class="mark-group role-scope child_layer_0_pathgroup" role="graphics-object" aria-roledescription="group mark container"><g transform="translate(0,0)"><path class="background" aria-hidden="true" d="M0,0h200v220h-200Z"/><g><g class="mark-line role-mark child_layer_0_marks" role="graphics-object" aria-roledescription="line mark container"><path aria-label="Concurrency: 25; Latency (ms): 867.85; percentile: p50; mode: fiber; concurrency: 25; processes: 6 proc; metric: undefined; value: 867.85" role="graphics-symbol" aria-roledescription="line mark" d="M5.556,172.268L33.333,190.721L88.889,188.763L144.444,186.415L200,186.06" stroke="#4c78a8" stroke-width="2" stroke-dasharray="1,0"/></g></g><path class="foreground" aria-hidden="true" d="" display="none"/></g><g transform="translate(0,0)"><path class="background" aria-hidden="true" d="M0,0h200v220h-200Z"/><g><g class="mark-line role-mark child_layer_0_marks" role="graphics-object" aria-roledescription="line mark container"><path aria-label="Concurrency: 25; Latency (ms): 1440.1; percentile: p95; mode: fiber; concurrency: 25; processes: 6 proc; metric: undefined; value: 1440.1" role="graphics-symbol" aria-roledescription="line mark" d="M5.556,140.795L33.333,162.643L88.889,186.609L144.444,182.947L200,178.009" stroke="#f58518" stroke-width="2" stroke-dasharray="1,0"/></g></g><path class="foreground" aria-hidden="true" d="" display="none"/></g><g transform="translate(0,0)"><path class="background" aria-hidden="true" d="M0,0h200v220h-200Z"/><g><g class="mark-line role-mark child_layer_0_marks" role="graphics-object" aria-roledescription="line mark container"><path aria-label="Concurrency: 25; Latency (ms): 1528.83; percentile: p99; mode: fiber; concurrency: 25; processes: 6 proc; metric: undefined; value: 1528.83" role="graphics-symbol" aria-roledescription="line mark" d="M5.556,135.914L33.333,162.067L88.889,186.333L144.444,182.334L200,177.633" stroke="#e45756" stroke-width="2" stroke-dasharray="1,0"/></g></g><path class="foreground" aria-hidden="true" d="" display="none"/></g><g transform="translate(0,0)"><path class="background" aria-hidden="true" d="M0,0h200v220h-200Z"/><g><g class="mark-line role-mark child_layer_0_marks" role="graphics-object" aria-roledescription="line mark container"><path aria-label="Concurrency: 25; Latency (ms): 1560.02; percentile: max; mode: fiber; concurrency: 25; processes: 6 proc; metric: undefined; value: 1560.02" role="graphics-symbol" aria-roledescription="line mark" d="M5.556,134.199L33.333,161.818L88.889,186.277L144.444,182.106L200,177.363" stroke="#72b7b2" stroke-width="2" stroke-dasharray="1,0"/></g></g><path class="foreground" aria-hidden="true" d="" display="none"/></g></g><g class="mark-symbol role-mark child_layer_1_marks" role="graphics-object" aria-roledescription="symbol mark container"><path aria-label="Concurrency: 25; Latency (ms): 867.85; percentile: p50; mode: fiber; concurrency: 25; processes: 6 proc; metric: undefined; value: 867.85" role="graphics-symbol" aria-roledescription="point" transform="translate(5.555555555555555,172.26825000000002)" d="M2.739,0A2.739,2.739,0,1,1,-2.739,0A2.739,2.739,0,1,1,2.739,0" fill="#4c78a8" stroke-width="2" stroke-dasharray="1,0" opacity="1"/><path aria-label="Concurrency: 25; Latency (ms): 1440.1; percentile: p95; mode: fiber; concurrency: 25; processes: 6 proc; metric: undefined; value: 1440.1" role="graphics-symbol" aria-roledescription="point" transform="translate(5.555555555555555,140.7945)" d="M2.739,0A2.739,2.739,0,1,1,-2.739,0A2.739,2.739,0,1,1,2.739,0" fill="#f58518" stroke-width="2" stroke-dasharray="1,0" opacity="1"/><path aria-label="Concurrency: 25; Latency (ms): 1528.83; percentile: p99; mode: fiber; concurrency: 25; processes: 6 proc; metric: undefined; value: 1528.83" role="graphics-symbol" aria-roledescription="point" transform="translate(5.555555555555555,135.91434999999998)" d="M2.739,0A2.739,2.739,0,1,1,-2.739,0A2.739,2.739,0,1,1,2.739,0" fill="#e45756" stroke-width="2" stroke-dasharray="1,0" opacity="1"/><path aria-label="Concurrency: 25; Latency (ms): 1560.02; percentile: max; mode: fiber; concurrency: 25; processes: 6 proc; metric: undefined; value: 1560.02" role="graphics-symbol" aria-roledescription="point" transform="translate(5.555555555555555,134.1989)" d="M2.739,0A2.739,2.739,0,1,1,-2.739,0A2.739,2.739,0,1,1,2.739,0" fill="#72b7b2" stroke-width="2" stroke-dasharray="1,0" opacity="1"/><path aria-label="Concurrency: 50; Latency (ms): 532.34; percentile: p50; mode: fiber; concurrency: 50; processes: 6 proc; metric: undefined; value: 532.34" role="graphics-symbol" aria-roledescription="point" transform="translate(33.33333333333333,190.72129999999999)" d="M2.739,0A2.739,2.739,0,1,1,-2.739,0A2.739,2.739,0,1,1,2.739,0" fill="#4c78a8" stroke-width="2" stroke-dasharray="1,0" opacity="1"/><path aria-label="Concurrency: 50; Latency (ms): 1042.86; percentile: p95; mode: fiber; concurrency: 50; processes: 6 proc; metric: undefined; value: 1042.86" role="graphics-symbol" aria-roledescription="point" transform="translate(33.33333333333333,162.6427)" d="M2.739,0A2.739,2.739,0,1,1,-2.739,0A2.739,2.739,0,1,1,2.739,0" fill="#f58518" stroke-width="2" stroke-dasharray="1,0" opacity="1"/><path aria-label="Concurrency: 50; Latency (ms): 1053.32; percentile: p99; mode: fiber; concurrency: 50; processes: 6 proc; metric: undefined; value: 1053.32" role="graphics-symbol" aria-roledescription="point" transform="translate(33.33333333333333,162.0674)" d="M2.739,0A2.739,2.739,0,1,1,-2.739,0A2.739,2.739,0,1,1,2.739,0" fill="#e45756" stroke-width="2" stroke-dasharray="1,0" opacity="1"/><path aria-label="Concurrency: 50; Latency (ms): 1057.85; percentile: max; mode: fiber; concurrency: 50; processes: 6 proc; metric: undefined; value: 1057.85" role="graphics-symbol" aria-roledescription="point" transform="translate(33.33333333333333,161.81824999999998)" d="M2.739,0A2.739,2.739,0,1,1,-2.739,0A2.739,2.739,0,1,1,2.739,0" fill="#72b7b2" stroke-width="2" stroke-dasharray="1,0" opacity="1"/><path aria-label="Concurrency: 100; Latency (ms): 567.94; percentile: p50; mode: fiber; concurrency: 100; processes: 6 proc; metric: undefined; value: 567.94" role="graphics-symbol" aria-roledescription="point" transform="translate(88.88888888888889,188.7633)" d="M2.739,0A2.739,2.739,0,1,1,-2.739,0A2.739,2.739,0,1,1,2.739,0" fill="#4c78a8" stroke-width="2" stroke-dasharray="1,0" opacity="1"/><path aria-label="Concurrency: 100; Latency (ms): 607.11; percentile: p95; mode: fiber; concurrency: 100; processes: 6 proc; metric: undefined; value: 607.11" role="graphics-symbol" aria-roledescription="point" transform="translate(88.88888888888889,186.60895)" d="M2.739,0A2.739,2.739,0,1,1,-2.739,0A2.739,2.739,0,1,1,2.739,0" fill="#f58518" stroke-width="2" stroke-dasharray="1,0" opacity="1"/><path aria-label="Concurrency: 100; Latency (ms): 612.13; percentile: p99; mode: fiber; concurrency: 100; processes: 6 proc; metric: undefined; value: 612.13" role="graphics-symbol" aria-roledescription="point" transform="translate(88.88888888888889,186.33285)" d="M2.739,0A2.739,2.739,0,1,1,-2.739,0A2.739,2.739,0,1,1,2.739,0" fill="#e45756" stroke-width="2" stroke-dasharray="1,0" opacity="1"/><path aria-label="Concurrency: 100; Latency (ms): 613.15; percentile: max; mode: fiber; concurrency: 100; processes: 6 proc; metric: undefined; value: 613.15" role="graphics-symbol" aria-roledescription="point" transform="translate(88.88888888888889,186.27675)" d="M2.739,0A2.739,2.739,0,1,1,-2.739,0A2.739,2.739,0,1,1,2.739,0" fill="#72b7b2" stroke-width="2" stroke-dasharray="1,0" opacity="1"/><path aria-label="Concurrency: 150; Latency (ms): 610.63; percentile: p50; mode: fiber; concurrency: 150; processes: 6 proc; metric: undefined; value: 610.63" role="graphics-symbol" aria-roledescription="point" transform="translate(144.44444444444443,186.41535)" d="M2.739,0A2.739,2.739,0,1,1,-2.739,0A2.739,2.739,0,1,1,2.739,0" fill="#4c78a8" stroke-width="2" stroke-dasharray="1,0" opacity="1"/><path aria-label="Concurrency: 150; Latency (ms): 673.7; percentile: p95; mode: fiber; concurrency: 150; processes: 6 proc; metric: undefined; value: 673.7" role="graphics-symbol" aria-roledescription="point" transform="translate(144.44444444444443,182.9465)" d="M2.739,0A2.739,2.739,0,1,1,-2.739,0A2.739,2.739,0,1,1,2.739,0" fill="#f58518" stroke-width="2" stroke-dasharray="1,0" opacity="1"/><path aria-label="Concurrency: 150; Latency (ms): 684.83; percentile: p99; mode: fiber; concurrency: 150; processes: 6 proc; metric: undefined; value: 684.83" role="graphics-symbol" aria-roledescription="point" transform="translate(144.44444444444443,182.33435)" d="M2.739,0A2.739,2.739,0,1,1,-2.739,0A2.739,2.739,0,1,1,2.739,0" fill="#e45756" stroke-width="2" stroke-dasharray="1,0" opacity="1"/><path aria-label="Concurrency: 150; Latency (ms): 688.99; percentile: max; mode: fiber; concurrency: 150; processes: 6 proc; metric: undefined; value: 688.99" role="graphics-symbol" aria-roledescription="point" transform="translate(144.44444444444443,182.10555)" d="M2.739,0A2.739,2.739,0,1,1,-2.739,0A2.739,2.739,0,1,1,2.739,0" fill="#72b7b2" stroke-width="2" stroke-dasharray="1,0" opacity="1"/><path aria-label="Concurrency: 200; Latency (ms): 617.1; percentile: p50; mode: fiber; concurrency: 200; processes: 6 proc; metric: undefined; value: 617.1" role="graphics-symbol" aria-roledescription="point" transform="translate(200,186.0595)" d="M2.739,0A2.739,2.739,0,1,1,-2.739,0A2.739,2.739,0,1,1,2.739,0" fill="#4c78a8" stroke-width="2" stroke-dasharray="1,0" opacity="1"/><path aria-label="Concurrency: 200; Latency (ms): 763.48; percentile: p95; mode: fiber; concurrency: 200; processes: 6 proc; metric: undefined; value: 763.48" role="graphics-symbol" aria-roledescription="point" transform="translate(200,178.0086)" d="M2.739,0A2.739,2.739,0,1,1,-2.739,0A2.739,2.739,0,1,1,2.739,0" fill="#f58518" stroke-width="2" stroke-dasharray="1,0" opacity="1"/><path aria-label="Concurrency: 200; Latency (ms): 770.31; percentile: p99; mode: fiber; concurrency: 200; processes: 6 proc; metric: undefined; value: 770.31" role="graphics-symbol" aria-roledescription="point" transform="translate(200,177.63295000000002)" d="M2.739,0A2.739,2.739,0,1,1,-2.739,0A2.739,2.739,0,1,1,2.739,0" fill="#e45756" stroke-width="2" stroke-dasharray="1,0" opacity="1"/><path aria-label="Concurrency: 200; Latency (ms): 775.22; percentile: max; mode: fiber; concurrency: 200; processes: 6 proc; metric: undefined; value: 775.22" role="graphics-symbol" aria-roledescription="point" transform="translate(200,177.3629)" d="M2.739,0A2.739,2.739,0,1,1,-2.739,0A2.739,2.739,0,1,1,2.739,0" fill="#72b7b2" stroke-width="2" stroke-dasharray="1,0" opacity="1"/></g></g><path class="foreground" aria-hidden="true" d="" display="none"/></g></g><g class="mark-group role-legend" role="graphics-symbol" aria-roledescription="legend" aria-label="Symbol legend titled 'percentile' for fill color and stroke color with 4 values: p50, p95, p99, max"><g transform="translate(444,0)"><path class="background" aria-hidden="true" d="M0,0h57v78h-57Z" pointer-events="none"/><g><g class="mark-group role-legend-entry"><g transform="translate(0,17)"><path class="background" aria-hidden="true" d="M0,0h0v0h0Z" pointer-events="none"/><g><g class="mark-group role-scope" role="graphics-object" aria-roledescription="group mark container"><g transform="translate(0,0)"><path class="background" aria-hidden="true" d="M0,0h38.91796875v12.5h-38.91796875Z" pointer-events="none" opacity="1"/><g><g class="mark-symbol role-legend-symbol" pointer-events="none"><path transform="translate(6,6)" d="M5,0A5,5,0,1,1,-5,0A5,5,0,1,1,5,0" fill="#4c78a8" stroke="#4c78a8" stroke-width="1.5" opacity="1"/></g><g class="mark-text role-legend-label" pointer-events="none"><text text-anchor="start" transform="translate(16,10)" font-family="Helvetica" font-size="12px" fill="#111827" opacity="1">p50</text></g></g><path class="foreground" aria-hidden="true" d="" pointer-events="none" display="none"/></g><g transform="translate(0,16)"><path class="background" aria-hidden="true" d="M0,0h38.91796875v12.5h-38.91796875Z" pointer-events="none" opacity="1"/><g><g class="mark-symbol role-legend-symbol" pointer-events="none"><path transform="translate(6,6)" d="M5,0A5,5,0,1,1,-5,0A5,5,0,1,1,5,0" fill="#f58518" stroke="#f58518" stroke-width="1.5" opacity="1"/></g><g class="mark-text role-legend-label" pointer-events="none"><text text-anchor="start" transform="translate(16,10)" font-family="Helvetica" font-size="12px" fill="#111827" opacity="1">p95</text></g></g><path class="foreground" aria-hidden="true" d="" pointer-events="none" display="none"/></g><g transform="translate(0,32)"><path class="background" aria-hidden="true" d="M0,0h38.91796875v12.5h-38.91796875Z" pointer-events="none" opacity="1"/><g><g class="mark-symbol role-legend-symbol" pointer-events="none"><path transform="translate(6,6)" d="M5,0A5,5,0,1,1,-5,0A5,5,0,1,1,5,0" fill="#e45756" stroke="#e45756" stroke-width="1.5" opacity="1"/></g><g class="mark-text role-legend-label" pointer-events="none"><text text-anchor="start" transform="translate(16,10)" font-family="Helvetica" font-size="12px" fill="#111827" opacity="1">p99</text></g></g><path class="foreground" aria-hidden="true" d="" pointer-events="none" display="none"/></g><g transform="translate(0,48)"><path class="background" aria-hidden="true" d="M0,0h38.91796875v12.5h-38.91796875Z" pointer-events="none" opacity="1"/><g><g class="mark-symbol role-legend-symbol" pointer-events="none"><path transform="translate(6,6)" d="M5,0A5,5,0,1,1,-5,0A5,5,0,1,1,5,0" fill="#72b7b2" stroke="#72b7b2" stroke-width="1.5" opacity="1"/></g><g class="mark-text role-legend-label" pointer-events="none"><text text-anchor="start" transform="translate(16,10)" font-family="Helvetica" font-size="12px" fill="#111827" opacity="1">max</text></g></g><path class="foreground" aria-hidden="true" d="" pointer-events="none" display="none"/></g></g></g><path class="foreground" aria-hidden="true" d="" pointer-events="none" display="none"/></g></g><g class="mark-text role-legend-title" pointer-events="none"><text text-anchor="start" transform="translate(0,9)" font-family="Helvetica" font-size="12px" font-weight="bold" fill="#111827" opacity="1">percentile</text></g></g><path class="foreground" aria-hidden="true" d="" pointer-events="none" display="none"/></g></g><g class="mark-group role-legend" role="graphics-symbol" aria-roledescription="legend" aria-label="Symbol legend titled 'mode' for strokeDash with 2 values: fiber, thread"><g transform="translate(444,86)"><path class="background" aria-hidden="true" d="M0,0h50v46h-50Z" pointer-events="none"/><g><g class="mark-group role-legend-entry"><g transform="translate(0,17)"><path class="background" aria-hidden="true" d="M0,0h0v0h0Z" pointer-events="none"/><g><g class="mark-group role-scope" role="graphics-object" aria-roledescription="group mark container"><g transform="translate(0,0)"><path class="background" aria-hidden="true" d="M0,0h49.7412109375v12.5h-49.7412109375Z" pointer-events="none" opacity="1"/><g><g class="mark-symbol role-legend-symbol" pointer-events="none"><path transform="translate(6,6)" d="M5,0A5,5,0,1,1,-5,0A5,5,0,1,1,5,0" fill="black" fill-opacity="1" stroke-width="1.5" stroke-dasharray="1,0" opacity="1"/></g><g class="mark-text role-legend-label" pointer-events="none"><text text-anchor="start" transform="translate(16,10)" font-family="Helvetica" font-size="12px" fill="#111827" opacity="1">fiber</text></g></g><path class="foreground" aria-hidden="true" d="" pointer-events="none" display="none"/></g><g transform="translate(0,16)"><path class="background" aria-hidden="true" d="M0,0h49.7412109375v12.5h-49.7412109375Z" pointer-events="none" opacity="1"/><g><g class="mark-symbol role-legend-symbol" pointer-events="none"><path transform="translate(6,6)" d="M5,0A5,5,0,1,1,-5,0A5,5,0,1,1,5,0" fill="black" fill-opacity="1" stroke-width="1.5" stroke-dasharray="4,2" opacity="1"/></g><g class="mark-text role-legend-label" pointer-events="none"><text text-anchor="start" transform="translate(16,10)" font-family="Helvetica" font-size="12px" fill="#111827" opacity="1">thread</text></g></g><path class="foreground" aria-hidden="true" d="" pointer-events="none" display="none"/></g></g></g><path class="foreground" aria-hidden="true" d="" pointer-events="none" display="none"/></g></g><g class="mark-text role-legend-title" pointer-events="none"><text text-anchor="start" transform="translate(0,9)" font-family="Helvetica" font-size="12px" font-weight="bold" fill="#111827" opacity="1">mode</text></g></g><path class="foreground" aria-hidden="true" d="" pointer-events="none" display="none"/></g></g><g class="mark-group role-title"><g transform="translate(-54.0234375,-76)"><path class="background" aria-hidden="true" d="M0,0h0v0h0Z" pointer-events="none"/><g><g class="mark-text role-title-text" role="graphics-symbol" aria-roledescription="title" aria-label="Title text 'Solid Queue Stress Sleep Latency'" pointer-events="none"><text text-anchor="start" transform="translate(0,13)" font-family="Helvetica" font-size="16px" font-weight="bold" fill="#111827" opacity="1">Solid Queue Stress Sleep Latency</text></g></g><path class="foreground" aria-hidden="true" d="" pointer-events="none" display="none"/></g></g></g><path class="foreground" aria-hidden="true" d="" display="none"/></g></g></g></svg>