<?xml version="1.0" encoding="utf-8" standalone="no"?>
<!DOCTYPE svg PUBLIC "-//W3C//DTD SVG 1.1//EN"
  "http://www.w3.org/Graphics/SVG/1.1/DTD/svg11.dtd">
<svg xmlns:xlink="http://www.w3.org/1999/xlink" width="1144.318125pt" height="311.940812pt" viewBox="0 0 1144.318125 311.940812" xmlns="http://www.w3.org/2000/svg" version="1.1">
 <metadata>
  <rdf:RDF xmlns:dc="http://purl.org/dc/elements/1.1/" xmlns:cc="http://creativecommons.org/ns#" xmlns:rdf="http://www.w3.org/1999/02/22-rdf-syntax-ns#">
   <cc:Work>
    <dc:type rdf:resource="http://purl.org/dc/dcmitype/StillImage"/>
    <dc:date>2026-04-02T17:47:49.745106</dc:date>
    <dc:format>image/svg+xml</dc:format>
    <dc:creator>
     <cc:Agent>
      <dc:title>Matplotlib v3.10.8, https://matplotlib.org/</dc:title>
     </cc:Agent>
    </dc:creator>
   </cc:Work>
  </rdf:RDF>
 </metadata>
 <defs>
  <style type="text/css">*{stroke-linejoin: round; stroke-linecap: butt}</style>
 </defs>
 <g id="figure_1">
  <g id="patch_1">
   <path d="M 0 311.940812 
L 1144.318125 311.940812 
L 1144.318125 0 
L 0 0 
z
" style="fill: #ffffff"/>
  </g>
  <g id="axes_1">
   <g id="patch_2">
    <path d="M 38.058125 277.288 
L 286.783125 277.288 
L 286.783125 61.728 
L 38.058125 61.728 
z
" style="fill: #ffffff"/>
   </g>
   <g id="patch_3">
    <path d="M 49.363807 265.710237 
L 58.231008 265.710237 
L 58.231008 121.412754 
L 49.363807 121.412754 
z
" clip-path="url(#pa7527c81e3)" style="fill: #66c2a5; stroke: #ffffff; stroke-width: 0.5; stroke-linejoin: miter"/>
   </g>
   <g id="patch_4">
    <path d="M 82.615812 265.710237 
L 91.483014 265.710237 
L 91.483014 99.71783 
L 82.615812 99.71783 
z
" clip-path="url(#pa7527c81e3)" style="fill: #66c2a5; stroke: #ffffff; stroke-width: 0.5; stroke-linejoin: miter"/>
   </g>
   <g id="patch_5">
    <path d="M 115.867818 265.710237 
L 124.735019 265.710237 
L 124.735019 100.634737 
L 115.867818 100.634737 
z
" clip-path="url(#pa7527c81e3)" style="fill: #66c2a5; stroke: #ffffff; stroke-width: 0.5; stroke-linejoin: miter"/>
   </g>
   <g id="patch_6">
    <path d="M 149.119823 265.710237 
L 157.987024 265.710237 
L 157.987024 71.526182 
L 149.119823 71.526182 
z
" clip-path="url(#pa7527c81e3)" style="fill: #66c2a5; stroke: #ffffff; stroke-width: 0.5; stroke-linejoin: miter"/>
   </g>
   <g id="patch_7">
    <path d="M 182.371828 265.710237 
L 191.23903 265.710237 
L 191.23903 265.710237 
L 182.371828 265.710237 
z
" clip-path="url(#pa7527c81e3)" style="fill: #66c2a5; stroke: #ffffff; stroke-width: 0.5; stroke-linejoin: miter"/>
   </g>
   <g id="patch_8">
    <path d="M 215.623834 265.710237 
L 224.491035 265.710237 
L 224.491035 265.710237 
L 215.623834 265.710237 
z
" clip-path="url(#pa7527c81e3)" style="fill: #66c2a5; stroke: #ffffff; stroke-width: 0.5; stroke-linejoin: miter"/>
   </g>
   <g id="patch_9">
    <path d="M 248.875839 265.710237 
L 257.74304 265.710237 
L 257.74304 265.710237 
L 248.875839 265.710237 
z
" clip-path="url(#pa7527c81e3)" style="fill: #66c2a5; stroke: #ffffff; stroke-width: 0.5; stroke-linejoin: miter"/>
   </g>
   <g id="patch_10">
    <path d="M 58.231008 265.710237 
L 67.09821 265.710237 
L 67.09821 247.783387 
L 58.231008 247.783387 
z
" clip-path="url(#pa7527c81e3)" style="fill: #8da0cb; stroke: #ffffff; stroke-width: 0.5; stroke-linejoin: miter"/>
   </g>
   <g id="patch_11">
    <path d="M 91.483014 265.710237 
L 100.350215 265.710237 
L 100.350215 227.476872 
L 91.483014 227.476872 
z
" clip-path="url(#pa7527c81e3)" style="fill: #8da0cb; stroke: #ffffff; stroke-width: 0.5; stroke-linejoin: miter"/>
   </g>
   <g id="patch_12">
    <path d="M 124.735019 265.710237 
L 133.60222 265.710237 
L 133.60222 265.710237 
L 124.735019 265.710237 
z
" clip-path="url(#pa7527c81e3)" style="fill: #8da0cb; stroke: #ffffff; stroke-width: 0.5; stroke-linejoin: miter"/>
   </g>
   <g id="patch_13">
    <path d="M 157.987024 265.710237 
L 166.854226 265.710237 
L 166.854226 265.710237 
L 157.987024 265.710237 
z
" clip-path="url(#pa7527c81e3)" style="fill: #8da0cb; stroke: #ffffff; stroke-width: 0.5; stroke-linejoin: miter"/>
   </g>
   <g id="patch_14">
    <path d="M 191.23903 265.710237 
L 200.106231 265.710237 
L 200.106231 265.710237 
L 191.23903 265.710237 
z
" clip-path="url(#pa7527c81e3)" style="fill: #8da0cb; stroke: #ffffff; stroke-width: 0.5; stroke-linejoin: miter"/>
   </g>
   <g id="patch_15">
    <path d="M 224.491035 265.710237 
L 233.358236 265.710237 
L 233.358236 265.710237 
L 224.491035 265.710237 
z
" clip-path="url(#pa7527c81e3)" style="fill: #8da0cb; stroke: #ffffff; stroke-width: 0.5; stroke-linejoin: miter"/>
   </g>
   <g id="patch_16">
    <path d="M 257.74304 265.710237 
L 266.610242 265.710237 
L 266.610242 265.710237 
L 257.74304 265.710237 
z
" clip-path="url(#pa7527c81e3)" style="fill: #8da0cb; stroke: #ffffff; stroke-width: 0.5; stroke-linejoin: miter"/>
   </g>
   <g id="patch_17">
    <path d="M 67.09821 265.710237 
L 75.965411 265.710237 
L 75.965411 264.744512 
L 67.09821 264.744512 
z
" clip-path="url(#pa7527c81e3)" style="fill: #a6d854; stroke: #ffffff; stroke-width: 0.5; stroke-linejoin: miter"/>
   </g>
   <g id="patch_18">
    <path d="M 100.350215 265.710237 
L 109.217416 265.710237 
L 109.217416 254.667253 
L 100.350215 254.667253 
z
" clip-path="url(#pa7527c81e3)" style="fill: #a6d854; stroke: #ffffff; stroke-width: 0.5; stroke-linejoin: miter"/>
   </g>
   <g id="patch_19">
    <path d="M 133.60222 265.710237 
L 142.469422 265.710237 
L 142.469422 265.710237 
L 133.60222 265.710237 
z
" clip-path="url(#pa7527c81e3)" style="fill: #a6d854; stroke: #ffffff; stroke-width: 0.5; stroke-linejoin: miter"/>
   </g>
   <g id="patch_20">
    <path d="M 166.854226 265.710237 
L 175.721427 265.710237 
L 175.721427 265.710237 
L 166.854226 265.710237 
z
" clip-path="url(#pa7527c81e3)" style="fill: #a6d854; stroke: #ffffff; stroke-width: 0.5; stroke-linejoin: miter"/>
   </g>
   <g id="patch_21">
    <path d="M 200.106231 265.710237 
L 208.973432 265.710237 
L 208.973432 265.710237 
L 200.106231 265.710237 
z
" clip-path="url(#pa7527c81e3)" style="fill: #a6d854; stroke: #ffffff; stroke-width: 0.5; stroke-linejoin: miter"/>
   </g>
   <g id="patch_22">
    <path d="M 233.358236 265.710237 
L 242.225438 265.710237 
L 242.225438 267.489818 
L 233.358236 267.489818 
z
" clip-path="url(#pa7527c81e3)" style="fill: #a6d854; stroke: #ffffff; stroke-width: 0.5; stroke-linejoin: miter"/>
   </g>
   <g id="patch_23">
    <path d="M 266.610242 265.710237 
L 275.477443 265.710237 
L 275.477443 265.710237 
L 266.610242 265.710237 
z
" clip-path="url(#pa7527c81e3)" style="fill: #a6d854; stroke: #ffffff; stroke-width: 0.5; stroke-linejoin: miter"/>
   </g>
   <g id="matplotlib.axis_1">
    <g id="xtick_1">
     <g id="line2d_1">
      <defs>
       <path id="mf021109a12" d="M 0 0 
L 0 3.5 
" style="stroke: #000000; stroke-width: 0.8"/>
      </defs>
      <g>
       <use xlink:href="#mf021109a12" x="62.664609" y="277.288" style="stroke: #000000; stroke-width: 0.8"/>
      </g>
     </g>
     <g id="text_1">
      <!-- 10 -->
      <g transform="translate(57.574609 290.36675) scale(0.08 -0.08)">
       <defs>
        <path id="DejaVuSans-31" d="M 794 531 
L 1825 531 
L 1825 4091 
L 703 3866 
L 703 4441 
L 1819 4666 
L 2450 4666 
L 2450 531 
L 3481 531 
L 3481 0 
L 794 0 
L 794 531 
z
" transform="scale(0.015625)"/>
        <path id="DejaVuSans-30" d="M 2034 4250 
Q 1547 4250 1301 3770 
Q 1056 3291 1056 2328 
Q 1056 1369 1301 889 
Q 1547 409 2034 409 
Q 2525 409 2770 889 
Q 3016 1369 3016 2328 
Q 3016 3291 2770 3770 
Q 2525 4250 2034 4250 
z
M 2034 4750 
Q 2819 4750 3233 4129 
Q 3647 3509 3647 2328 
Q 3647 1150 3233 529 
Q 2819 -91 2034 -91 
Q 1250 -91 836 529 
Q 422 1150 422 2328 
Q 422 3509 836 4129 
Q 1250 4750 2034 4750 
z
" transform="scale(0.015625)"/>
       </defs>
       <use xlink:href="#DejaVuSans-31"/>
       <use xlink:href="#DejaVuSans-30" transform="translate(63.623047 0)"/>
      </g>
     </g>
    </g>
    <g id="xtick_2">
     <g id="line2d_2">
      <g>
       <use xlink:href="#mf021109a12" x="95.916614" y="277.288" style="stroke: #000000; stroke-width: 0.8"/>
      </g>
     </g>
     <g id="text_2">
      <!-- 25 -->
      <g transform="translate(90.826614 290.36675) scale(0.08 -0.08)">
       <defs>
        <path id="DejaVuSans-32" d="M 1228 531 
L 3431 531 
L 3431 0 
L 469 0 
L 469 531 
Q 828 903 1448 1529 
Q 2069 2156 2228 2338 
Q 2531 2678 2651 2914 
Q 2772 3150 2772 3378 
Q 2772 3750 2511 3984 
Q 2250 4219 1831 4219 
Q 1534 4219 1204 4116 
Q 875 4013 500 3803 
L 500 4441 
Q 881 4594 1212 4672 
Q 1544 4750 1819 4750 
Q 2544 4750 2975 4387 
Q 3406 4025 3406 3419 
Q 3406 3131 3298 2873 
Q 3191 2616 2906 2266 
Q 2828 2175 2409 1742 
Q 1991 1309 1228 531 
z
" transform="scale(0.015625)"/>
        <path id="DejaVuSans-35" d="M 691 4666 
L 3169 4666 
L 3169 4134 
L 1269 4134 
L 1269 2991 
Q 1406 3038 1543 3061 
Q 1681 3084 1819 3084 
Q 2600 3084 3056 2656 
Q 3513 2228 3513 1497 
Q 3513 744 3044 326 
Q 2575 -91 1722 -91 
Q 1428 -91 1123 -41 
Q 819 9 494 109 
L 494 744 
Q 775 591 1075 516 
Q 1375 441 1709 441 
Q 2250 441 2565 725 
Q 2881 1009 2881 1497 
Q 2881 1984 2565 2268 
Q 2250 2553 1709 2553 
Q 1456 2553 1204 2497 
Q 953 2441 691 2322 
L 691 4666 
z
" transform="scale(0.015625)"/>
       </defs>
       <use xlink:href="#DejaVuSans-32"/>
       <use xlink:href="#DejaVuSans-35" transform="translate(63.623047 0)"/>
      </g>
     </g>
    </g>
    <g id="xtick_3">
     <g id="line2d_3">
      <g>
       <use xlink:href="#mf021109a12" x="129.16862" y="277.288" style="stroke: #000000; stroke-width: 0.8"/>
      </g>
     </g>
     <g id="text_3">
      <!-- 50 -->
      <g transform="translate(124.07862 290.36675) scale(0.08 -0.08)">
       <use xlink:href="#DejaVuSans-35"/>
       <use xlink:href="#DejaVuSans-30" transform="translate(63.623047 0)"/>
      </g>
     </g>
    </g>
    <g id="xtick_4">
     <g id="line2d_4">
      <g>
       <use xlink:href="#mf021109a12" x="162.420625" y="277.288" style="stroke: #000000; stroke-width: 0.8"/>
      </g>
     </g>
     <g id="text_4">
      <!-- 75 -->
      <g transform="translate(157.330625 290.36675) scale(0.08 -0.08)">
       <defs>
        <path id="DejaVuSans-37" d="M 525 4666 
L 3525 4666 
L 3525 4397 
L 1831 0 
L 1172 0 
L 2766 4134 
L 525 4134 
L 525 4666 
z
" transform="scale(0.015625)"/>
       </defs>
       <use xlink:href="#DejaVuSans-37"/>
       <use xlink:href="#DejaVuSans-35" transform="translate(63.623047 0)"/>
      </g>
     </g>
    </g>
    <g id="xtick_5">
     <g id="line2d_5">
      <g>
       <use xlink:href="#mf021109a12" x="195.67263" y="277.288" style="stroke: #000000; stroke-width: 0.8"/>
      </g>
     </g>
     <g id="text_5">
      <!-- 100 -->
      <g transform="translate(188.03763 290.36675) scale(0.08 -0.08)">
       <use xlink:href="#DejaVuSans-31"/>
       <use xlink:href="#DejaVuSans-30" transform="translate(63.623047 0)"/>
       <use xlink:href="#DejaVuSans-30" transform="translate(127.246094 0)"/>
      </g>
     </g>
    </g>
    <g id="xtick_6">
     <g id="line2d_6">
      <g>
       <use xlink:href="#mf021109a12" x="228.924636" y="277.288" style="stroke: #000000; stroke-width: 0.8"/>
      </g>
     </g>
     <g id="text_6">
      <!-- 150 -->
      <g transform="translate(221.289636 290.36675) scale(0.08 -0.08)">
       <use xlink:href="#DejaVuSans-31"/>
       <use xlink:href="#DejaVuSans-35" transform="translate(63.623047 0)"/>
       <use xlink:href="#DejaVuSans-30" transform="translate(127.246094 0)"/>
      </g>
     </g>
    </g>
    <g id="xtick_7">
     <g id="line2d_7">
      <g>
       <use xlink:href="#mf021109a12" x="262.176641" y="277.288" style="stroke: #000000; stroke-width: 0.8"/>
      </g>
     </g>
     <g id="text_7">
      <!-- 200 -->
      <g transform="translate(254.541641 290.36675) scale(0.08 -0.08)">
       <use xlink:href="#DejaVuSans-32"/>
       <use xlink:href="#DejaVuSans-30" transform="translate(63.623047 0)"/>
       <use xlink:href="#DejaVuSans-30" transform="translate(127.246094 0)"/>
      </g>
     </g>
    </g>
    <g id="text_8">
     <!-- Capacity -->
     <g transform="translate(142.754219 302.869094) scale(0.09 -0.09)">
      <defs>
       <path id="DejaVuSans-43" d="M 4122 4306 
L 4122 3641 
Q 3803 3938 3442 4084 
Q 3081 4231 2675 4231 
Q 1875 4231 1450 3742 
Q 1025 3253 1025 2328 
Q 1025 1406 1450 917 
Q 1875 428 2675 428 
Q 3081 428 3442 575 
Q 3803 722 4122 1019 
L 4122 359 
Q 3791 134 3420 21 
Q 3050 -91 2638 -91 
Q 1578 -91 968 557 
Q 359 1206 359 2328 
Q 359 3453 968 4101 
Q 1578 4750 2638 4750 
Q 3056 4750 3426 4639 
Q 3797 4528 4122 4306 
z
" transform="scale(0.015625)"/>
       <path id="DejaVuSans-61" d="M 2194 1759 
Q 1497 1759 1228 1600 
Q 959 1441 959 1056 
Q 959 750 1161 570 
Q 1363 391 1709 391 
Q 2188 391 2477 730 
Q 2766 1069 2766 1631 
L 2766 1759 
L 2194 1759 
z
M 3341 1997 
L 3341 0 
L 2766 0 
L 2766 531 
Q 2569 213 2275 61 
Q 1981 -91 1556 -91 
Q 1019 -91 701 211 
Q 384 513 384 1019 
Q 384 1609 779 1909 
Q 1175 2209 1959 2209 
L 2766 2209 
L 2766 2266 
Q 2766 2663 2505 2880 
Q 2244 3097 1772 3097 
Q 1472 3097 1187 3025 
Q 903 2953 641 2809 
L 641 3341 
Q 956 3463 1253 3523 
Q 1550 3584 1831 3584 
Q 2591 3584 2966 3190 
Q 3341 2797 3341 1997 
z
" transform="scale(0.015625)"/>
       <path id="DejaVuSans-70" d="M 1159 525 
L 1159 -1331 
L 581 -1331 
L 581 3500 
L 1159 3500 
L 1159 2969 
Q 1341 3281 1617 3432 
Q 1894 3584 2278 3584 
Q 2916 3584 3314 3078 
Q 3713 2572 3713 1747 
Q 3713 922 3314 415 
Q 2916 -91 2278 -91 
Q 1894 -91 1617 61 
Q 1341 213 1159 525 
z
M 3116 1747 
Q 3116 2381 2855 2742 
Q 2594 3103 2138 3103 
Q 1681 3103 1420 2742 
Q 1159 2381 1159 1747 
Q 1159 1113 1420 752 
Q 1681 391 2138 391 
Q 2594 391 2855 752 
Q 3116 1113 3116 1747 
z
" transform="scale(0.015625)"/>
       <path id="DejaVuSans-63" d="M 3122 3366 
L 3122 2828 
Q 2878 2963 2633 3030 
Q 2388 3097 2138 3097 
Q 1578 3097 1268 2742 
Q 959 2388 959 1747 
Q 959 1106 1268 751 
Q 1578 397 2138 397 
Q 2388 397 2633 464 
Q 2878 531 3122 666 
L 3122 134 
Q 2881 22 2623 -34 
Q 2366 -91 2075 -91 
Q 1284 -91 818 406 
Q 353 903 353 1747 
Q 353 2603 823 3093 
Q 1294 3584 2113 3584 
Q 2378 3584 2631 3529 
Q 2884 3475 3122 3366 
z
" transform="scale(0.015625)"/>
       <path id="DejaVuSans-69" d="M 603 3500 
L 1178 3500 
L 1178 0 
L 603 0 
L 603 3500 
z
M 603 4863 
L 1178 4863 
L 1178 4134 
L 603 4134 
L 603 4863 
z
" transform="scale(0.015625)"/>
       <path id="DejaVuSans-74" d="M 1172 4494 
L 1172 3500 
L 2356 3500 
L 2356 3053 
L 1172 3053 
L 1172 1153 
Q 1172 725 1289 603 
Q 1406 481 1766 481 
L 2356 481 
L 2356 0 
L 1766 0 
Q 1100 0 847 248 
Q 594 497 594 1153 
L 594 3053 
L 172 3053 
L 172 3500 
L 594 3500 
L 594 4494 
L 1172 4494 
z
" transform="scale(0.015625)"/>
       <path id="DejaVuSans-79" d="M 2059 -325 
Q 1816 -950 1584 -1140 
Q 1353 -1331 966 -1331 
L 506 -1331 
L 506 -850 
L 844 -850 
Q 1081 -850 1212 -737 
Q 1344 -625 1503 -206 
L 1606 56 
L 191 3500 
L 800 3500 
L 1894 763 
L 2988 3500 
L 3597 3500 
L 2059 -325 
z
" transform="scale(0.015625)"/>
      </defs>
      <use xlink:href="#DejaVuSans-43"/>
      <use xlink:href="#DejaVuSans-61" transform="translate(69.824219 0)"/>
      <use xlink:href="#DejaVuSans-70" transform="translate(131.103516 0)"/>
      <use xlink:href="#DejaVuSans-61" transform="translate(194.580078 0)"/>
      <use xlink:href="#DejaVuSans-63" transform="translate(255.859375 0)"/>
      <use xlink:href="#DejaVuSans-69" transform="translate(310.839844 0)"/>
      <use xlink:href="#DejaVuSans-74" transform="translate(338.623047 0)"/>
      <use xlink:href="#DejaVuSans-79" transform="translate(377.832031 0)"/>
     </g>
    </g>
   </g>
   <g id="matplotlib.axis_2">
    <g id="ytick_1">
     <g id="line2d_8">
      <path d="M 38.058125 265.710237 
L 286.783125 265.710237 
" clip-path="url(#pa7527c81e3)" style="fill: none; stroke: #b0b0b0; stroke-opacity: 0.25; stroke-width: 0.5; stroke-linecap: square"/>
     </g>
     <g id="line2d_9">
      <defs>
       <path id="mf42e714d3d" d="M 0 0 
L -3.5 0 
" style="stroke: #000000; stroke-width: 0.8"/>
      </defs>
      <g>
       <use xlink:href="#mf42e714d3d" x="38.058125" y="265.710237" style="stroke: #000000; stroke-width: 0.8"/>
      </g>
     </g>
     <g id="text_9">
      <!-- 0 -->
      <g transform="translate(25.968125 268.749612) scale(0.08 -0.08)">
       <use xlink:href="#DejaVuSans-30"/>
      </g>
     </g>
    </g>
    <g id="ytick_2">
     <g id="line2d_10">
      <path d="M 38.058125 221.991854 
L 286.783125 221.991854 
" clip-path="url(#pa7527c81e3)" style="fill: none; stroke: #b0b0b0; stroke-opacity: 0.25; stroke-width: 0.5; stroke-linecap: square"/>
     </g>
     <g id="line2d_11">
      <g>
       <use xlink:href="#mf42e714d3d" x="38.058125" y="221.991854" style="stroke: #000000; stroke-width: 0.8"/>
      </g>
     </g>
     <g id="text_10">
      <!-- 5 -->
      <g transform="translate(25.968125 225.031229) scale(0.08 -0.08)">
       <use xlink:href="#DejaVuSans-35"/>
      </g>
     </g>
    </g>
    <g id="ytick_3">
     <g id="line2d_12">
      <path d="M 38.058125 178.273472 
L 286.783125 178.273472 
" clip-path="url(#pa7527c81e3)" style="fill: none; stroke: #b0b0b0; stroke-opacity: 0.25; stroke-width: 0.5; stroke-linecap: square"/>
     </g>
     <g id="line2d_13">
      <g>
       <use xlink:href="#mf42e714d3d" x="38.058125" y="178.273472" style="stroke: #000000; stroke-width: 0.8"/>
      </g>
     </g>
     <g id="text_11">
      <!-- 10 -->
      <g transform="translate(20.878125 181.312847) scale(0.08 -0.08)">
       <use xlink:href="#DejaVuSans-31"/>
       <use xlink:href="#DejaVuSans-30" transform="translate(63.623047 0)"/>
      </g>
     </g>
    </g>
    <g id="ytick_4">
     <g id="line2d_14">
      <path d="M 38.058125 134.55509 
L 286.783125 134.55509 
" clip-path="url(#pa7527c81e3)" style="fill: none; stroke: #b0b0b0; stroke-opacity: 0.25; stroke-width: 0.5; stroke-linecap: square"/>
     </g>
     <g id="line2d_15">
      <g>
       <use xlink:href="#mf42e714d3d" x="38.058125" y="134.55509" style="stroke: #000000; stroke-width: 0.8"/>
      </g>
     </g>
     <g id="text_12">
      <!-- 15 -->
      <g transform="translate(20.878125 137.594465) scale(0.08 -0.08)">
       <use xlink:href="#DejaVuSans-31"/>
       <use xlink:href="#DejaVuSans-35" transform="translate(63.623047 0)"/>
      </g>
     </g>
    </g>
    <g id="ytick_5">
     <g id="line2d_16">
      <path d="M 38.058125 90.836707 
L 286.783125 90.836707 
" clip-path="url(#pa7527c81e3)" style="fill: none; stroke: #b0b0b0; stroke-opacity: 0.25; stroke-width: 0.5; stroke-linecap: square"/>
     </g>
     <g id="line2d_17">
      <g>
       <use xlink:href="#mf42e714d3d" x="38.058125" y="90.836707" style="stroke: #000000; stroke-width: 0.8"/>
      </g>
     </g>
     <g id="text_13">
      <!-- 20 -->
      <g transform="translate(20.878125 93.876082) scale(0.08 -0.08)">
       <use xlink:href="#DejaVuSans-32"/>
       <use xlink:href="#DejaVuSans-30" transform="translate(63.623047 0)"/>
      </g>
     </g>
    </g>
    <g id="text_14">
     <!-- Advantage (%) -->
     <g transform="translate(14.798438 206.723625) rotate(-90) scale(0.1 -0.1)">
      <defs>
       <path id="DejaVuSans-41" d="M 2188 4044 
L 1331 1722 
L 3047 1722 
L 2188 4044 
z
M 1831 4666 
L 2547 4666 
L 4325 0 
L 3669 0 
L 3244 1197 
L 1141 1197 
L 716 0 
L 50 0 
L 1831 4666 
z
" transform="scale(0.015625)"/>
       <path id="DejaVuSans-64" d="M 2906 2969 
L 2906 4863 
L 3481 4863 
L 3481 0 
L 2906 0 
L 2906 525 
Q 2725 213 2448 61 
Q 2172 -91 1784 -91 
Q 1150 -91 751 415 
Q 353 922 353 1747 
Q 353 2572 751 3078 
Q 1150 3584 1784 3584 
Q 2172 3584 2448 3432 
Q 2725 3281 2906 2969 
z
M 947 1747 
Q 947 1113 1208 752 
Q 1469 391 1925 391 
Q 2381 391 2643 752 
Q 2906 1113 2906 1747 
Q 2906 2381 2643 2742 
Q 2381 3103 1925 3103 
Q 1469 3103 1208 2742 
Q 947 2381 947 1747 
z
" transform="scale(0.015625)"/>
       <path id="DejaVuSans-76" d="M 191 3500 
L 800 3500 
L 1894 563 
L 2988 3500 
L 3597 3500 
L 2284 0 
L 1503 0 
L 191 3500 
z
" transform="scale(0.015625)"/>
       <path id="DejaVuSans-6e" d="M 3513 2113 
L 3513 0 
L 2938 0 
L 2938 2094 
Q 2938 2591 2744 2837 
Q 2550 3084 2163 3084 
Q 1697 3084 1428 2787 
Q 1159 2491 1159 1978 
L 1159 0 
L 581 0 
L 581 3500 
L 1159 3500 
L 1159 2956 
Q 1366 3272 1645 3428 
Q 1925 3584 2291 3584 
Q 2894 3584 3203 3211 
Q 3513 2838 3513 2113 
z
" transform="scale(0.015625)"/>
       <path id="DejaVuSans-67" d="M 2906 1791 
Q 2906 2416 2648 2759 
Q 2391 3103 1925 3103 
Q 1463 3103 1205 2759 
Q 947 2416 947 1791 
Q 947 1169 1205 825 
Q 1463 481 1925 481 
Q 2391 481 2648 825 
Q 2906 1169 2906 1791 
z
M 3481 434 
Q 3481 -459 3084 -895 
Q 2688 -1331 1869 -1331 
Q 1566 -1331 1297 -1286 
Q 1028 -1241 775 -1147 
L 775 -588 
Q 1028 -725 1275 -790 
Q 1522 -856 1778 -856 
Q 2344 -856 2625 -561 
Q 2906 -266 2906 331 
L 2906 616 
Q 2728 306 2450 153 
Q 2172 0 1784 0 
Q 1141 0 747 490 
Q 353 981 353 1791 
Q 353 2603 747 3093 
Q 1141 3584 1784 3584 
Q 2172 3584 2450 3431 
Q 2728 3278 2906 2969 
L 2906 3500 
L 3481 3500 
L 3481 434 
z
" transform="scale(0.015625)"/>
       <path id="DejaVuSans-65" d="M 3597 1894 
L 3597 1613 
L 953 1613 
Q 991 1019 1311 708 
Q 1631 397 2203 397 
Q 2534 397 2845 478 
Q 3156 559 3463 722 
L 3463 178 
Q 3153 47 2828 -22 
Q 2503 -91 2169 -91 
Q 1331 -91 842 396 
Q 353 884 353 1716 
Q 353 2575 817 3079 
Q 1281 3584 2069 3584 
Q 2775 3584 3186 3129 
Q 3597 2675 3597 1894 
z
M 3022 2063 
Q 3016 2534 2758 2815 
Q 2500 3097 2075 3097 
Q 1594 3097 1305 2825 
Q 1016 2553 972 2059 
L 3022 2063 
z
" transform="scale(0.015625)"/>
       <path id="DejaVuSans-20" transform="scale(0.015625)"/>
       <path id="DejaVuSans-28" d="M 1984 4856 
Q 1566 4138 1362 3434 
Q 1159 2731 1159 2009 
Q 1159 1288 1364 580 
Q 1569 -128 1984 -844 
L 1484 -844 
Q 1016 -109 783 600 
Q 550 1309 550 2009 
Q 550 2706 781 3412 
Q 1013 4119 1484 4856 
L 1984 4856 
z
" transform="scale(0.015625)"/>
       <path id="DejaVuSans-25" d="M 4653 2053 
Q 4381 2053 4226 1822 
Q 4072 1591 4072 1178 
Q 4072 772 4226 539 
Q 4381 306 4653 306 
Q 4919 306 5073 539 
Q 5228 772 5228 1178 
Q 5228 1588 5073 1820 
Q 4919 2053 4653 2053 
z
M 4653 2450 
Q 5147 2450 5437 2106 
Q 5728 1763 5728 1178 
Q 5728 594 5436 251 
Q 5144 -91 4653 -91 
Q 4153 -91 3862 251 
Q 3572 594 3572 1178 
Q 3572 1766 3864 2108 
Q 4156 2450 4653 2450 
z
M 1428 4353 
Q 1159 4353 1004 4120 
Q 850 3888 850 3481 
Q 850 3069 1003 2837 
Q 1156 2606 1428 2606 
Q 1700 2606 1854 2837 
Q 2009 3069 2009 3481 
Q 2009 3884 1853 4118 
Q 1697 4353 1428 4353 
z
M 4250 4750 
L 4750 4750 
L 1831 -91 
L 1331 -91 
L 4250 4750 
z
M 1428 4750 
Q 1922 4750 2215 4408 
Q 2509 4066 2509 3481 
Q 2509 2891 2217 2550 
Q 1925 2209 1428 2209 
Q 931 2209 642 2551 
Q 353 2894 353 3481 
Q 353 4063 643 4406 
Q 934 4750 1428 4750 
z
" transform="scale(0.015625)"/>
       <path id="DejaVuSans-29" d="M 513 4856 
L 1013 4856 
Q 1481 4119 1714 3412 
Q 1947 2706 1947 2009 
Q 1947 1309 1714 600 
Q 1481 -109 1013 -844 
L 513 -844 
Q 928 -128 1133 580 
Q 1338 1288 1338 2009 
Q 1338 2731 1133 3434 
Q 928 4138 513 4856 
z
" transform="scale(0.015625)"/>
      </defs>
      <use xlink:href="#DejaVuSans-41"/>
      <use xlink:href="#DejaVuSans-64" transform="translate(66.658203 0)"/>
      <use xlink:href="#DejaVuSans-76" transform="translate(130.134766 0)"/>
      <use xlink:href="#DejaVuSans-61" transform="translate(189.314453 0)"/>
      <use xlink:href="#DejaVuSans-6e" transform="translate(250.59375 0)"/>
      <use xlink:href="#DejaVuSans-74" transform="translate(313.972656 0)"/>
      <use xlink:href="#DejaVuSans-61" transform="translate(353.181641 0)"/>
      <use xlink:href="#DejaVuSans-67" transform="translate(414.460938 0)"/>
      <use xlink:href="#DejaVuSans-65" transform="translate(477.9375 0)"/>
      <use xlink:href="#DejaVuSans-20" transform="translate(539.460938 0)"/>
      <use xlink:href="#DejaVuSans-28" transform="translate(571.248047 0)"/>
      <use xlink:href="#DejaVuSans-25" transform="translate(610.261719 0)"/>
      <use xlink:href="#DejaVuSans-29" transform="translate(705.28125 0)"/>
     </g>
    </g>
   </g>
   <g id="line2d_18">
    <path d="M 38.058125 265.710237 
L 286.783125 265.710237 
" clip-path="url(#pa7527c81e3)" style="fill: none; stroke: #666666; stroke-width: 0.8; stroke-linecap: square"/>
   </g>
   <g id="patch_24">
    <path d="M 38.058125 277.288 
L 38.058125 61.728 
" style="fill: none; stroke: #000000; stroke-width: 0.8; stroke-linejoin: miter; stroke-linecap: square"/>
   </g>
   <g id="patch_25">
    <path d="M 286.783125 277.288 
L 286.783125 61.728 
" style="fill: none; stroke: #000000; stroke-width: 0.8; stroke-linejoin: miter; stroke-linecap: square"/>
   </g>
   <g id="patch_26">
    <path d="M 38.058125 277.288 
L 286.783125 277.288 
" style="fill: none; stroke: #000000; stroke-width: 0.8; stroke-linejoin: miter; stroke-linecap: square"/>
   </g>
   <g id="patch_27">
    <path d="M 38.058125 61.728 
L 286.783125 61.728 
" style="fill: none; stroke: #000000; stroke-width: 0.8; stroke-linejoin: miter; stroke-linecap: square"/>
   </g>
   <g id="text_15">
    <!-- Throughput -->
    <g transform="translate(133.380781 55.728) scale(0.1 -0.1)">
     <defs>
      <path id="DejaVuSans-54" d="M -19 4666 
L 3928 4666 
L 3928 4134 
L 2272 4134 
L 2272 0 
L 1638 0 
L 1638 4134 
L -19 4134 
L -19 4666 
z
" transform="scale(0.015625)"/>
      <path id="DejaVuSans-68" d="M 3513 2113 
L 3513 0 
L 2938 0 
L 2938 2094 
Q 2938 2591 2744 2837 
Q 2550 3084 2163 3084 
Q 1697 3084 1428 2787 
Q 1159 2491 1159 1978 
L 1159 0 
L 581 0 
L 581 4863 
L 1159 4863 
L 1159 2956 
Q 1366 3272 1645 3428 
Q 1925 3584 2291 3584 
Q 2894 3584 3203 3211 
Q 3513 2838 3513 2113 
z
" transform="scale(0.015625)"/>
      <path id="DejaVuSans-72" d="M 2631 2963 
Q 2534 3019 2420 3045 
Q 2306 3072 2169 3072 
Q 1681 3072 1420 2755 
Q 1159 2438 1159 1844 
L 1159 0 
L 581 0 
L 581 3500 
L 1159 3500 
L 1159 2956 
Q 1341 3275 1631 3429 
Q 1922 3584 2338 3584 
Q 2397 3584 2469 3576 
Q 2541 3569 2628 3553 
L 2631 2963 
z
" transform="scale(0.015625)"/>
      <path id="DejaVuSans-6f" d="M 1959 3097 
Q 1497 3097 1228 2736 
Q 959 2375 959 1747 
Q 959 1119 1226 758 
Q 1494 397 1959 397 
Q 2419 397 2687 759 
Q 2956 1122 2956 1747 
Q 2956 2369 2687 2733 
Q 2419 3097 1959 3097 
z
M 1959 3584 
Q 2709 3584 3137 3096 
Q 3566 2609 3566 1747 
Q 3566 888 3137 398 
Q 2709 -91 1959 -91 
Q 1206 -91 779 398 
Q 353 888 353 1747 
Q 353 2609 779 3096 
Q 1206 3584 1959 3584 
z
" transform="scale(0.015625)"/>
      <path id="DejaVuSans-75" d="M 544 1381 
L 544 3500 
L 1119 3500 
L 1119 1403 
Q 1119 906 1312 657 
Q 1506 409 1894 409 
Q 2359 409 2629 706 
Q 2900 1003 2900 1516 
L 2900 3500 
L 3475 3500 
L 3475 0 
L 2900 0 
L 2900 538 
Q 2691 219 2414 64 
Q 2138 -91 1772 -91 
Q 1169 -91 856 284 
Q 544 659 544 1381 
z
M 1991 3584 
L 1991 3584 
z
" transform="scale(0.015625)"/>
     </defs>
     <use xlink:href="#DejaVuSans-54"/>
     <use xlink:href="#DejaVuSans-68" transform="translate(61.083984 0)"/>
     <use xlink:href="#DejaVuSans-72" transform="translate(124.462891 0)"/>
     <use xlink:href="#DejaVuSans-6f" transform="translate(163.326172 0)"/>
     <use xlink:href="#DejaVuSans-75" transform="translate(224.507812 0)"/>
     <use xlink:href="#DejaVuSans-67" transform="translate(287.886719 0)"/>
     <use xlink:href="#DejaVuSans-68" transform="translate(351.363281 0)"/>
     <use xlink:href="#DejaVuSans-70" transform="translate(414.742188 0)"/>
     <use xlink:href="#DejaVuSans-75" transform="translate(478.21875 0)"/>
     <use xlink:href="#DejaVuSans-74" transform="translate(541.597656 0)"/>
    </g>
   </g>
   <g id="legend_1">
    <g id="patch_28">
     <path d="M 245.414375 115.098 
L 281.183125 115.098 
Q 282.783125 115.098 282.783125 113.498 
L 282.783125 67.328 
Q 282.783125 65.728 281.183125 65.728 
L 245.414375 65.728 
Q 243.814375 65.728 243.814375 67.328 
L 243.814375 113.498 
Q 243.814375 115.098 245.414375 115.098 
z
" style="fill: #ffffff; opacity: 0.8; stroke: #cccccc; stroke-linejoin: miter"/>
    </g>
    <g id="text_16">
     <!-- Procs -->
     <g transform="translate(252.671875 75.00675) scale(0.08 -0.08)">
      <defs>
       <path id="DejaVuSans-50" d="M 1259 4147 
L 1259 2394 
L 2053 2394 
Q 2494 2394 2734 2622 
Q 2975 2850 2975 3272 
Q 2975 3691 2734 3919 
Q 2494 4147 2053 4147 
L 1259 4147 
z
M 628 4666 
L 2053 4666 
Q 2838 4666 3239 4311 
Q 3641 3956 3641 3272 
Q 3641 2581 3239 2228 
Q 2838 1875 2053 1875 
L 1259 1875 
L 1259 0 
L 628 0 
L 628 4666 
z
" transform="scale(0.015625)"/>
       <path id="DejaVuSans-73" d="M 2834 3397 
L 2834 2853 
Q 2591 2978 2328 3040 
Q 2066 3103 1784 3103 
Q 1356 3103 1142 2972 
Q 928 2841 928 2578 
Q 928 2378 1081 2264 
Q 1234 2150 1697 2047 
L 1894 2003 
Q 2506 1872 2764 1633 
Q 3022 1394 3022 966 
Q 3022 478 2636 193 
Q 2250 -91 1575 -91 
Q 1294 -91 989 -36 
Q 684 19 347 128 
L 347 722 
Q 666 556 975 473 
Q 1284 391 1588 391 
Q 1994 391 2212 530 
Q 2431 669 2431 922 
Q 2431 1156 2273 1281 
Q 2116 1406 1581 1522 
L 1381 1569 
Q 847 1681 609 1914 
Q 372 2147 372 2553 
Q 372 3047 722 3315 
Q 1072 3584 1716 3584 
Q 2034 3584 2315 3537 
Q 2597 3491 2834 3397 
z
" transform="scale(0.015625)"/>
      </defs>
      <use xlink:href="#DejaVuSans-50"/>
      <use xlink:href="#DejaVuSans-72" transform="translate(58.552734 0)"/>
      <use xlink:href="#DejaVuSans-6f" transform="translate(97.416016 0)"/>
      <use xlink:href="#DejaVuSans-63" transform="translate(158.597656 0)"/>
      <use xlink:href="#DejaVuSans-73" transform="translate(213.578125 0)"/>
     </g>
    </g>
    <g id="patch_29">
     <path d="M 247.014375 86.74925 
L 263.014375 86.74925 
L 263.014375 81.14925 
L 247.014375 81.14925 
z
" style="fill: #66c2a5; stroke: #ffffff; stroke-width: 0.5; stroke-linejoin: miter"/>
    </g>
    <g id="text_17">
     <!-- 1p -->
     <g transform="translate(269.414375 86.74925) scale(0.08 -0.08)">
      <use xlink:href="#DejaVuSans-31"/>
      <use xlink:href="#DejaVuSans-70" transform="translate(63.623047 0)"/>
     </g>
    </g>
    <g id="patch_30">
     <path d="M 247.014375 98.49175 
L 263.014375 98.49175 
L 263.014375 92.89175 
L 247.014375 92.89175 
z
" style="fill: #8da0cb; stroke: #ffffff; stroke-width: 0.5; stroke-linejoin: miter"/>
    </g>
    <g id="text_18">
     <!-- 2p -->
     <g transform="translate(269.414375 98.49175) scale(0.08 -0.08)">
      <use xlink:href="#DejaVuSans-32"/>
      <use xlink:href="#DejaVuSans-70" transform="translate(63.623047 0)"/>
     </g>
    </g>
    <g id="patch_31">
     <path d="M 247.014375 110.23425 
L 263.014375 110.23425 
L 263.014375 104.63425 
L 247.014375 104.63425 
z
" style="fill: #a6d854; stroke: #ffffff; stroke-width: 0.5; stroke-linejoin: miter"/>
    </g>
    <g id="text_19">
     <!-- 4p -->
     <g transform="translate(269.414375 110.23425) scale(0.08 -0.08)">
      <defs>
       <path id="DejaVuSans-34" d="M 2419 4116 
L 825 1625 
L 2419 1625 
L 2419 4116 
z
M 2253 4666 
L 3047 4666 
L 3047 1625 
L 3713 1625 
L 3713 1100 
L 3047 1100 
L 3047 0 
L 2419 0 
L 2419 1100 
L 313 1100 
L 313 1709 
L 2253 4666 
z
" transform="scale(0.015625)"/>
      </defs>
      <use xlink:href="#DejaVuSans-34"/>
      <use xlink:href="#DejaVuSans-70" transform="translate(63.623047 0)"/>
     </g>
    </g>
   </g>
  </g>
  <g id="axes_2">
   <g id="patch_32">
    <path d="M 321.503125 277.288 
L 570.228125 277.288 
L 570.228125 61.728 
L 321.503125 61.728 
z
" style="fill: #ffffff"/>
   </g>
   <g id="patch_33">
    <path d="M 332.808807 277.288 
L 341.676008 277.288 
L 341.676008 238.03083 
L 332.808807 238.03083 
z
" clip-path="url(#pb3dc2cf6bd)" style="fill: #66c2a5; stroke: #ffffff; stroke-width: 0.5; stroke-linejoin: miter"/>
   </g>
   <g id="patch_34">
    <path d="M 366.060812 277.288 
L 374.928014 277.288 
L 374.928014 156.160643 
L 366.060812 156.160643 
z
" clip-path="url(#pb3dc2cf6bd)" style="fill: #66c2a5; stroke: #ffffff; stroke-width: 0.5; stroke-linejoin: miter"/>
   </g>
   <g id="patch_35">
    <path d="M 399.312818 277.288 
L 408.180019 277.288 
L 408.180019 102.215323 
L 399.312818 102.215323 
z
" clip-path="url(#pb3dc2cf6bd)" style="fill: #66c2a5; stroke: #ffffff; stroke-width: 0.5; stroke-linejoin: miter"/>
   </g>
   <g id="patch_36">
    <path d="M 432.564823 277.288 
L 441.432024 277.288 
L 441.432024 71.992762 
L 432.564823 71.992762 
z
" clip-path="url(#pb3dc2cf6bd)" style="fill: #66c2a5; stroke: #ffffff; stroke-width: 0.5; stroke-linejoin: miter"/>
   </g>
   <g id="patch_37">
    <path d="M 465.816828 277.288 
L 474.68403 277.288 
L 474.68403 277.288 
L 465.816828 277.288 
z
" clip-path="url(#pb3dc2cf6bd)" style="fill: #66c2a5; stroke: #ffffff; stroke-width: 0.5; stroke-linejoin: miter"/>
   </g>
   <g id="patch_38">
    <path d="M 499.068834 277.288 
L 507.936035 277.288 
L 507.936035 277.288 
L 499.068834 277.288 
z
" clip-path="url(#pb3dc2cf6bd)" style="fill: #66c2a5; stroke: #ffffff; stroke-width: 0.5; stroke-linejoin: miter"/>
   </g>
   <g id="patch_39">
    <path d="M 532.320839 277.288 
L 541.18804 277.288 
L 541.18804 277.288 
L 532.320839 277.288 
z
" clip-path="url(#pb3dc2cf6bd)" style="fill: #66c2a5; stroke: #ffffff; stroke-width: 0.5; stroke-linejoin: miter"/>
   </g>
   <g id="patch_40">
    <path d="M 341.676008 277.288 
L 350.54321 277.288 
L 350.54321 229.645536 
L 341.676008 229.645536 
z
" clip-path="url(#pb3dc2cf6bd)" style="fill: #8da0cb; stroke: #ffffff; stroke-width: 0.5; stroke-linejoin: miter"/>
   </g>
   <g id="patch_41">
    <path d="M 374.928014 277.288 
L 383.795215 277.288 
L 383.795215 179.928259 
L 374.928014 179.928259 
z
" clip-path="url(#pb3dc2cf6bd)" style="fill: #8da0cb; stroke: #ffffff; stroke-width: 0.5; stroke-linejoin: miter"/>
   </g>
   <g id="patch_42">
    <path d="M 408.180019 277.288 
L 417.04722 277.288 
L 417.04722 277.288 
L 408.180019 277.288 
z
" clip-path="url(#pb3dc2cf6bd)" style="fill: #8da0cb; stroke: #ffffff; stroke-width: 0.5; stroke-linejoin: miter"/>
   </g>
   <g id="patch_43">
    <path d="M 441.432024 277.288 
L 450.299226 277.288 
L 450.299226 277.288 
L 441.432024 277.288 
z
" clip-path="url(#pb3dc2cf6bd)" style="fill: #8da0cb; stroke: #ffffff; stroke-width: 0.5; stroke-linejoin: miter"/>
   </g>
   <g id="patch_44">
    <path d="M 474.68403 277.288 
L 483.551231 277.288 
L 483.551231 277.288 
L 474.68403 277.288 
z
" clip-path="url(#pb3dc2cf6bd)" style="fill: #8da0cb; stroke: #ffffff; stroke-width: 0.5; stroke-linejoin: miter"/>
   </g>
   <g id="patch_45">
    <path d="M 507.936035 277.288 
L 516.803236 277.288 
L 516.803236 277.288 
L 507.936035 277.288 
z
" clip-path="url(#pb3dc2cf6bd)" style="fill: #8da0cb; stroke: #ffffff; stroke-width: 0.5; stroke-linejoin: miter"/>
   </g>
   <g id="patch_46">
    <path d="M 541.18804 277.288 
L 550.055242 277.288 
L 550.055242 277.288 
L 541.18804 277.288 
z
" clip-path="url(#pb3dc2cf6bd)" style="fill: #8da0cb; stroke: #ffffff; stroke-width: 0.5; stroke-linejoin: miter"/>
   </g>
   <g id="patch_47">
    <path d="M 350.54321 277.288 
L 359.410411 277.288 
L 359.410411 235.315227 
L 350.54321 235.315227 
z
" clip-path="url(#pb3dc2cf6bd)" style="fill: #a6d854; stroke: #ffffff; stroke-width: 0.5; stroke-linejoin: miter"/>
   </g>
   <g id="patch_48">
    <path d="M 383.795215 277.288 
L 392.662416 277.288 
L 392.662416 188.701331 
L 383.795215 188.701331 
z
" clip-path="url(#pb3dc2cf6bd)" style="fill: #a6d854; stroke: #ffffff; stroke-width: 0.5; stroke-linejoin: miter"/>
   </g>
   <g id="patch_49">
    <path d="M 417.04722 277.288 
L 425.914422 277.288 
L 425.914422 277.288 
L 417.04722 277.288 
z
" clip-path="url(#pb3dc2cf6bd)" style="fill: #a6d854; stroke: #ffffff; stroke-width: 0.5; stroke-linejoin: miter"/>
   </g>
   <g id="patch_50">
    <path d="M 450.299226 277.288 
L 459.166427 277.288 
L 459.166427 277.288 
L 450.299226 277.288 
z
" clip-path="url(#pb3dc2cf6bd)" style="fill: #a6d854; stroke: #ffffff; stroke-width: 0.5; stroke-linejoin: miter"/>
   </g>
   <g id="patch_51">
    <path d="M 483.551231 277.288 
L 492.418432 277.288 
L 492.418432 277.288 
L 483.551231 277.288 
z
" clip-path="url(#pb3dc2cf6bd)" style="fill: #a6d854; stroke: #ffffff; stroke-width: 0.5; stroke-linejoin: miter"/>
   </g>
   <g id="patch_52">
    <path d="M 516.803236 277.288 
L 525.670438 277.288 
L 525.670438 164.687762 
L 516.803236 164.687762 
z
" clip-path="url(#pb3dc2cf6bd)" style="fill: #a6d854; stroke: #ffffff; stroke-width: 0.5; stroke-linejoin: miter"/>
   </g>
   <g id="patch_53">
    <path d="M 550.055242 277.288 
L 558.922443 277.288 
L 558.922443 277.288 
L 550.055242 277.288 
z
" clip-path="url(#pb3dc2cf6bd)" style="fill: #a6d854; stroke: #ffffff; stroke-width: 0.5; stroke-linejoin: miter"/>
   </g>
   <g id="matplotlib.axis_3">
    <g id="xtick_8">
     <g id="line2d_19">
      <g>
       <use xlink:href="#mf021109a12" x="346.109609" y="277.288" style="stroke: #000000; stroke-width: 0.8"/>
      </g>
     </g>
     <g id="text_20">
      <!-- 10 -->
      <g transform="translate(341.019609 290.36675) scale(0.08 -0.08)">
       <use xlink:href="#DejaVuSans-31"/>
       <use xlink:href="#DejaVuSans-30" transform="translate(63.623047 0)"/>
      </g>
     </g>
    </g>
    <g id="xtick_9">
     <g id="line2d_20">
      <g>
       <use xlink:href="#mf021109a12" x="379.361614" y="277.288" style="stroke: #000000; stroke-width: 0.8"/>
      </g>
     </g>
     <g id="text_21">
      <!-- 25 -->
      <g transform="translate(374.271614 290.36675) scale(0.08 -0.08)">
       <use xlink:href="#DejaVuSans-32"/>
       <use xlink:href="#DejaVuSans-35" transform="translate(63.623047 0)"/>
      </g>
     </g>
    </g>
    <g id="xtick_10">
     <g id="line2d_21">
      <g>
       <use xlink:href="#mf021109a12" x="412.61362" y="277.288" style="stroke: #000000; stroke-width: 0.8"/>
      </g>
     </g>
     <g id="text_22">
      <!-- 50 -->
      <g transform="translate(407.52362 290.36675) scale(0.08 -0.08)">
       <use xlink:href="#DejaVuSans-35"/>
       <use xlink:href="#DejaVuSans-30" transform="translate(63.623047 0)"/>
      </g>
     </g>
    </g>
    <g id="xtick_11">
     <g id="line2d_22">
      <g>
       <use xlink:href="#mf021109a12" x="445.865625" y="277.288" style="stroke: #000000; stroke-width: 0.8"/>
      </g>
     </g>
     <g id="text_23">
      <!-- 75 -->
      <g transform="translate(440.775625 290.36675) scale(0.08 -0.08)">
       <use xlink:href="#DejaVuSans-37"/>
       <use xlink:href="#DejaVuSans-35" transform="translate(63.623047 0)"/>
      </g>
     </g>
    </g>
    <g id="xtick_12">
     <g id="line2d_23">
      <g>
       <use xlink:href="#mf021109a12" x="479.11763" y="277.288" style="stroke: #000000; stroke-width: 0.8"/>
      </g>
     </g>
     <g id="text_24">
      <!-- 100 -->
      <g transform="translate(471.48263 290.36675) scale(0.08 -0.08)">
       <use xlink:href="#DejaVuSans-31"/>
       <use xlink:href="#DejaVuSans-30" transform="translate(63.623047 0)"/>
       <use xlink:href="#DejaVuSans-30" transform="translate(127.246094 0)"/>
      </g>
     </g>
    </g>
    <g id="xtick_13">
     <g id="line2d_24">
      <g>
       <use xlink:href="#mf021109a12" x="512.369636" y="277.288" style="stroke: #000000; stroke-width: 0.8"/>
      </g>
     </g>
     <g id="text_25">
      <!-- 150 -->
      <g transform="translate(504.734636 290.36675) scale(0.08 -0.08)">
       <use xlink:href="#DejaVuSans-31"/>
       <use xlink:href="#DejaVuSans-35" transform="translate(63.623047 0)"/>
       <use xlink:href="#DejaVuSans-30" transform="translate(127.246094 0)"/>
      </g>
     </g>
    </g>
    <g id="xtick_14">
     <g id="line2d_25">
      <g>
       <use xlink:href="#mf021109a12" x="545.621641" y="277.288" style="stroke: #000000; stroke-width: 0.8"/>
      </g>
     </g>
     <g id="text_26">
      <!-- 200 -->
      <g transform="translate(537.986641 290.36675) scale(0.08 -0.08)">
       <use xlink:href="#DejaVuSans-32"/>
       <use xlink:href="#DejaVuSans-30" transform="translate(63.623047 0)"/>
       <use xlink:href="#DejaVuSans-30" transform="translate(127.246094 0)"/>
      </g>
     </g>
    </g>
    <g id="text_27">
     <!-- Capacity -->
     <g transform="translate(426.199219 302.869094) scale(0.09 -0.09)">
      <use xlink:href="#DejaVuSans-43"/>
      <use xlink:href="#DejaVuSans-61" transform="translate(69.824219 0)"/>
      <use xlink:href="#DejaVuSans-70" transform="translate(131.103516 0)"/>
      <use xlink:href="#DejaVuSans-61" transform="translate(194.580078 0)"/>
      <use xlink:href="#DejaVuSans-63" transform="translate(255.859375 0)"/>
      <use xlink:href="#DejaVuSans-69" transform="translate(310.839844 0)"/>
      <use xlink:href="#DejaVuSans-74" transform="translate(338.623047 0)"/>
      <use xlink:href="#DejaVuSans-79" transform="translate(377.832031 0)"/>
     </g>
    </g>
   </g>
   <g id="matplotlib.axis_4">
    <g id="ytick_6">
     <g id="line2d_26">
      <path d="M 321.503125 277.288 
L 570.228125 277.288 
" clip-path="url(#pb3dc2cf6bd)" style="fill: none; stroke: #b0b0b0; stroke-opacity: 0.25; stroke-width: 0.5; stroke-linecap: square"/>
     </g>
     <g id="line2d_27">
      <g>
       <use xlink:href="#mf42e714d3d" x="321.503125" y="277.288" style="stroke: #000000; stroke-width: 0.8"/>
      </g>
     </g>
     <g id="text_28">
      <!-- 0 -->
      <g transform="translate(309.413125 280.327375) scale(0.08 -0.08)">
       <use xlink:href="#DejaVuSans-30"/>
      </g>
     </g>
    </g>
    <g id="ytick_7">
     <g id="line2d_28">
      <path d="M 321.503125 246.010837 
L 570.228125 246.010837 
" clip-path="url(#pb3dc2cf6bd)" style="fill: none; stroke: #b0b0b0; stroke-opacity: 0.25; stroke-width: 0.5; stroke-linecap: square"/>
     </g>
     <g id="line2d_29">
      <g>
       <use xlink:href="#mf42e714d3d" x="321.503125" y="246.010837" style="stroke: #000000; stroke-width: 0.8"/>
      </g>
     </g>
     <g id="text_29">
      <!-- 10 -->
      <g transform="translate(304.323125 249.050212) scale(0.08 -0.08)">
       <use xlink:href="#DejaVuSans-31"/>
       <use xlink:href="#DejaVuSans-30" transform="translate(63.623047 0)"/>
      </g>
     </g>
    </g>
    <g id="ytick_8">
     <g id="line2d_30">
      <path d="M 321.503125 214.733675 
L 570.228125 214.733675 
" clip-path="url(#pb3dc2cf6bd)" style="fill: none; stroke: #b0b0b0; stroke-opacity: 0.25; stroke-width: 0.5; stroke-linecap: square"/>
     </g>
     <g id="line2d_31">
      <g>
       <use xlink:href="#mf42e714d3d" x="321.503125" y="214.733675" style="stroke: #000000; stroke-width: 0.8"/>
      </g>
     </g>
     <g id="text_30">
      <!-- 20 -->
      <g transform="translate(304.323125 217.77305) scale(0.08 -0.08)">
       <use xlink:href="#DejaVuSans-32"/>
       <use xlink:href="#DejaVuSans-30" transform="translate(63.623047 0)"/>
      </g>
     </g>
    </g>
    <g id="ytick_9">
     <g id="line2d_32">
      <path d="M 321.503125 183.456512 
L 570.228125 183.456512 
" clip-path="url(#pb3dc2cf6bd)" style="fill: none; stroke: #b0b0b0; stroke-opacity: 0.25; stroke-width: 0.5; stroke-linecap: square"/>
     </g>
     <g id="line2d_33">
      <g>
       <use xlink:href="#mf42e714d3d" x="321.503125" y="183.456512" style="stroke: #000000; stroke-width: 0.8"/>
      </g>
     </g>
     <g id="text_31">
      <!-- 30 -->
      <g transform="translate(304.323125 186.495887) scale(0.08 -0.08)">
       <defs>
        <path id="DejaVuSans-33" d="M 2597 2516 
Q 3050 2419 3304 2112 
Q 3559 1806 3559 1356 
Q 3559 666 3084 287 
Q 2609 -91 1734 -91 
Q 1441 -91 1130 -33 
Q 819 25 488 141 
L 488 750 
Q 750 597 1062 519 
Q 1375 441 1716 441 
Q 2309 441 2620 675 
Q 2931 909 2931 1356 
Q 2931 1769 2642 2001 
Q 2353 2234 1838 2234 
L 1294 2234 
L 1294 2753 
L 1863 2753 
Q 2328 2753 2575 2939 
Q 2822 3125 2822 3475 
Q 2822 3834 2567 4026 
Q 2313 4219 1838 4219 
Q 1578 4219 1281 4162 
Q 984 4106 628 3988 
L 628 4550 
Q 988 4650 1302 4700 
Q 1616 4750 1894 4750 
Q 2613 4750 3031 4423 
Q 3450 4097 3450 3541 
Q 3450 3153 3228 2886 
Q 3006 2619 2597 2516 
z
" transform="scale(0.015625)"/>
       </defs>
       <use xlink:href="#DejaVuSans-33"/>
       <use xlink:href="#DejaVuSans-30" transform="translate(63.623047 0)"/>
      </g>
     </g>
    </g>
    <g id="ytick_10">
     <g id="line2d_34">
      <path d="M 321.503125 152.179349 
L 570.228125 152.179349 
" clip-path="url(#pb3dc2cf6bd)" style="fill: none; stroke: #b0b0b0; stroke-opacity: 0.25; stroke-width: 0.5; stroke-linecap: square"/>
     </g>
     <g id="line2d_35">
      <g>
       <use xlink:href="#mf42e714d3d" x="321.503125" y="152.179349" style="stroke: #000000; stroke-width: 0.8"/>
      </g>
     </g>
     <g id="text_32">
      <!-- 40 -->
      <g transform="translate(304.323125 155.218724) scale(0.08 -0.08)">
       <use xlink:href="#DejaVuSans-34"/>
       <use xlink:href="#DejaVuSans-30" transform="translate(63.623047 0)"/>
      </g>
     </g>
    </g>
    <g id="ytick_11">
     <g id="line2d_36">
      <path d="M 321.503125 120.902187 
L 570.228125 120.902187 
" clip-path="url(#pb3dc2cf6bd)" style="fill: none; stroke: #b0b0b0; stroke-opacity: 0.25; stroke-width: 0.5; stroke-linecap: square"/>
     </g>
     <g id="line2d_37">
      <g>
       <use xlink:href="#mf42e714d3d" x="321.503125" y="120.902187" style="stroke: #000000; stroke-width: 0.8"/>
      </g>
     </g>
     <g id="text_33">
      <!-- 50 -->
      <g transform="translate(304.323125 123.941562) scale(0.08 -0.08)">
       <use xlink:href="#DejaVuSans-35"/>
       <use xlink:href="#DejaVuSans-30" transform="translate(63.623047 0)"/>
      </g>
     </g>
    </g>
    <g id="ytick_12">
     <g id="line2d_38">
      <path d="M 321.503125 89.625024 
L 570.228125 89.625024 
" clip-path="url(#pb3dc2cf6bd)" style="fill: none; stroke: #b0b0b0; stroke-opacity: 0.25; stroke-width: 0.5; stroke-linecap: square"/>
     </g>
     <g id="line2d_39">
      <g>
       <use xlink:href="#mf42e714d3d" x="321.503125" y="89.625024" style="stroke: #000000; stroke-width: 0.8"/>
      </g>
     </g>
     <g id="text_34">
      <!-- 60 -->
      <g transform="translate(304.323125 92.664399) scale(0.08 -0.08)">
       <defs>
        <path id="DejaVuSans-36" d="M 2113 2584 
Q 1688 2584 1439 2293 
Q 1191 2003 1191 1497 
Q 1191 994 1439 701 
Q 1688 409 2113 409 
Q 2538 409 2786 701 
Q 3034 994 3034 1497 
Q 3034 2003 2786 2293 
Q 2538 2584 2113 2584 
z
M 3366 4563 
L 3366 3988 
Q 3128 4100 2886 4159 
Q 2644 4219 2406 4219 
Q 1781 4219 1451 3797 
Q 1122 3375 1075 2522 
Q 1259 2794 1537 2939 
Q 1816 3084 2150 3084 
Q 2853 3084 3261 2657 
Q 3669 2231 3669 1497 
Q 3669 778 3244 343 
Q 2819 -91 2113 -91 
Q 1303 -91 875 529 
Q 447 1150 447 2328 
Q 447 3434 972 4092 
Q 1497 4750 2381 4750 
Q 2619 4750 2861 4703 
Q 3103 4656 3366 4563 
z
" transform="scale(0.015625)"/>
       </defs>
       <use xlink:href="#DejaVuSans-36"/>
       <use xlink:href="#DejaVuSans-30" transform="translate(63.623047 0)"/>
      </g>
     </g>
    </g>
   </g>
   <g id="line2d_40">
    <path d="M 321.503125 277.288 
L 570.228125 277.288 
" clip-path="url(#pb3dc2cf6bd)" style="fill: none; stroke: #666666; stroke-width: 0.8; stroke-linecap: square"/>
   </g>
   <g id="patch_54">
    <path d="M 321.503125 277.288 
L 321.503125 61.728 
" style="fill: none; stroke: #000000; stroke-width: 0.8; stroke-linejoin: miter; stroke-linecap: square"/>
   </g>
   <g id="patch_55">
    <path d="M 570.228125 277.288 
L 570.228125 61.728 
" style="fill: none; stroke: #000000; stroke-width: 0.8; stroke-linejoin: miter; stroke-linecap: square"/>
   </g>
   <g id="patch_56">
    <path d="M 321.503125 277.288 
L 570.228125 277.288 
" style="fill: none; stroke: #000000; stroke-width: 0.8; stroke-linejoin: miter; stroke-linecap: square"/>
   </g>
   <g id="patch_57">
    <path d="M 321.503125 61.728 
L 570.228125 61.728 
" style="fill: none; stroke: #000000; stroke-width: 0.8; stroke-linejoin: miter; stroke-linecap: square"/>
   </g>
   <g id="text_35">
    <!-- Peak RSS -->
    <g transform="translate(422.584375 55.728) scale(0.1 -0.1)">
     <defs>
      <path id="DejaVuSans-6b" d="M 581 4863 
L 1159 4863 
L 1159 1991 
L 2875 3500 
L 3609 3500 
L 1753 1863 
L 3688 0 
L 2938 0 
L 1159 1709 
L 1159 0 
L 581 0 
L 581 4863 
z
" transform="scale(0.015625)"/>
      <path id="DejaVuSans-52" d="M 2841 2188 
Q 3044 2119 3236 1894 
Q 3428 1669 3622 1275 
L 4263 0 
L 3584 0 
L 2988 1197 
Q 2756 1666 2539 1819 
Q 2322 1972 1947 1972 
L 1259 1972 
L 1259 0 
L 628 0 
L 628 4666 
L 2053 4666 
Q 2853 4666 3247 4331 
Q 3641 3997 3641 3322 
Q 3641 2881 3436 2590 
Q 3231 2300 2841 2188 
z
M 1259 4147 
L 1259 2491 
L 2053 2491 
Q 2509 2491 2742 2702 
Q 2975 2913 2975 3322 
Q 2975 3731 2742 3939 
Q 2509 4147 2053 4147 
L 1259 4147 
z
" transform="scale(0.015625)"/>
      <path id="DejaVuSans-53" d="M 3425 4513 
L 3425 3897 
Q 3066 4069 2747 4153 
Q 2428 4238 2131 4238 
Q 1616 4238 1336 4038 
Q 1056 3838 1056 3469 
Q 1056 3159 1242 3001 
Q 1428 2844 1947 2747 
L 2328 2669 
Q 3034 2534 3370 2195 
Q 3706 1856 3706 1288 
Q 3706 609 3251 259 
Q 2797 -91 1919 -91 
Q 1588 -91 1214 -16 
Q 841 59 441 206 
L 441 856 
Q 825 641 1194 531 
Q 1563 422 1919 422 
Q 2459 422 2753 634 
Q 3047 847 3047 1241 
Q 3047 1584 2836 1778 
Q 2625 1972 2144 2069 
L 1759 2144 
Q 1053 2284 737 2584 
Q 422 2884 422 3419 
Q 422 4038 858 4394 
Q 1294 4750 2059 4750 
Q 2388 4750 2728 4690 
Q 3069 4631 3425 4513 
z
" transform="scale(0.015625)"/>
     </defs>
     <use xlink:href="#DejaVuSans-50"/>
     <use xlink:href="#DejaVuSans-65" transform="translate(56.677734 0)"/>
     <use xlink:href="#DejaVuSans-61" transform="translate(118.201172 0)"/>
     <use xlink:href="#DejaVuSans-6b" transform="translate(179.480469 0)"/>
     <use xlink:href="#DejaVuSans-20" transform="translate(237.390625 0)"/>
     <use xlink:href="#DejaVuSans-52" transform="translate(269.177734 0)"/>
     <use xlink:href="#DejaVuSans-53" transform="translate(338.660156 0)"/>
     <use xlink:href="#DejaVuSans-53" transform="translate(402.136719 0)"/>
    </g>
   </g>
  </g>
  <g id="axes_3">
   <g id="patch_58">
    <path d="M 604.948125 277.288 
L 853.673125 277.288 
L 853.673125 61.728 
L 604.948125 61.728 
z
" style="fill: #ffffff"/>
   </g>
   <g id="patch_59">
    <path d="M 616.253807 91.446861 
L 625.121008 91.446861 
L 625.121008 86.703365 
L 616.253807 86.703365 
z
" clip-path="url(#p6b976934b2)" style="fill: #66c2a5; stroke: #ffffff; stroke-width: 0.5; stroke-linejoin: miter"/>
   </g>
   <g id="patch_60">
    <path d="M 649.505812 91.446861 
L 658.373014 91.446861 
L 658.373014 90.496202 
L 649.505812 90.496202 
z
" clip-path="url(#p6b976934b2)" style="fill: #66c2a5; stroke: #ffffff; stroke-width: 0.5; stroke-linejoin: miter"/>
   </g>
   <g id="patch_61">
    <path d="M 682.757818 91.446861 
L 691.625019 91.446861 
L 691.625019 87.644224 
L 682.757818 87.644224 
z
" clip-path="url(#p6b976934b2)" style="fill: #66c2a5; stroke: #ffffff; stroke-width: 0.5; stroke-linejoin: miter"/>
   </g>
   <g id="patch_62">
    <path d="M 716.009823 91.446861 
L 724.877024 91.446861 
L 724.877024 87.644224 
L 716.009823 87.644224 
z
" clip-path="url(#p6b976934b2)" style="fill: #66c2a5; stroke: #ffffff; stroke-width: 0.5; stroke-linejoin: miter"/>
   </g>
   <g id="patch_63">
    <path d="M 749.261828 91.446861 
L 758.12903 91.446861 
L 758.12903 91.446861 
L 749.261828 91.446861 
z
" clip-path="url(#p6b976934b2)" style="fill: #66c2a5; stroke: #ffffff; stroke-width: 0.5; stroke-linejoin: miter"/>
   </g>
   <g id="patch_64">
    <path d="M 782.513834 91.446861 
L 791.381035 91.446861 
L 791.381035 91.446861 
L 782.513834 91.446861 
z
" clip-path="url(#p6b976934b2)" style="fill: #66c2a5; stroke: #ffffff; stroke-width: 0.5; stroke-linejoin: miter"/>
   </g>
   <g id="patch_65">
    <path d="M 815.765839 91.446861 
L 824.63304 91.446861 
L 824.63304 91.446861 
L 815.765839 91.446861 
z
" clip-path="url(#p6b976934b2)" style="fill: #66c2a5; stroke: #ffffff; stroke-width: 0.5; stroke-linejoin: miter"/>
   </g>
   <g id="patch_66">
    <path d="M 625.121008 91.446861 
L 633.98821 91.446861 
L 633.98821 98.303346 
L 625.121008 98.303346 
z
" clip-path="url(#p6b976934b2)" style="fill: #8da0cb; stroke: #ffffff; stroke-width: 0.5; stroke-linejoin: miter"/>
   </g>
   <g id="patch_67">
    <path d="M 658.373014 91.446861 
L 667.240215 91.446861 
L 667.240215 71.526182 
L 658.373014 71.526182 
z
" clip-path="url(#p6b976934b2)" style="fill: #8da0cb; stroke: #ffffff; stroke-width: 0.5; stroke-linejoin: miter"/>
   </g>
   <g id="patch_68">
    <path d="M 691.625019 91.446861 
L 700.49222 91.446861 
L 700.49222 91.446861 
L 691.625019 91.446861 
z
" clip-path="url(#p6b976934b2)" style="fill: #8da0cb; stroke: #ffffff; stroke-width: 0.5; stroke-linejoin: miter"/>
   </g>
   <g id="patch_69">
    <path d="M 724.877024 91.446861 
L 733.744226 91.446861 
L 733.744226 91.446861 
L 724.877024 91.446861 
z
" clip-path="url(#p6b976934b2)" style="fill: #8da0cb; stroke: #ffffff; stroke-width: 0.5; stroke-linejoin: miter"/>
   </g>
   <g id="patch_70">
    <path d="M 758.12903 91.446861 
L 766.996231 91.446861 
L 766.996231 91.446861 
L 758.12903 91.446861 
z
" clip-path="url(#p6b976934b2)" style="fill: #8da0cb; stroke: #ffffff; stroke-width: 0.5; stroke-linejoin: miter"/>
   </g>
   <g id="patch_71">
    <path d="M 791.381035 91.446861 
L 800.248236 91.446861 
L 800.248236 91.446861 
L 791.381035 91.446861 
z
" clip-path="url(#p6b976934b2)" style="fill: #8da0cb; stroke: #ffffff; stroke-width: 0.5; stroke-linejoin: miter"/>
   </g>
   <g id="patch_72">
    <path d="M 824.63304 91.446861 
L 833.500242 91.446861 
L 833.500242 91.446861 
L 824.63304 91.446861 
z
" clip-path="url(#p6b976934b2)" style="fill: #8da0cb; stroke: #ffffff; stroke-width: 0.5; stroke-linejoin: miter"/>
   </g>
   <g id="patch_73">
    <path d="M 633.98821 91.446861 
L 642.855411 91.446861 
L 642.855411 111.964994 
L 633.98821 111.964994 
z
" clip-path="url(#p6b976934b2)" style="fill: #a6d854; stroke: #ffffff; stroke-width: 0.5; stroke-linejoin: miter"/>
   </g>
   <g id="patch_74">
    <path d="M 667.240215 91.446861 
L 676.107416 91.446861 
L 676.107416 267.489818 
L 667.240215 267.489818 
z
" clip-path="url(#p6b976934b2)" style="fill: #a6d854; stroke: #ffffff; stroke-width: 0.5; stroke-linejoin: miter"/>
   </g>
   <g id="patch_75">
    <path d="M 700.49222 91.446861 
L 709.359422 91.446861 
L 709.359422 91.446861 
L 700.49222 91.446861 
z
" clip-path="url(#p6b976934b2)" style="fill: #a6d854; stroke: #ffffff; stroke-width: 0.5; stroke-linejoin: miter"/>
   </g>
   <g id="patch_76">
    <path d="M 733.744226 91.446861 
L 742.611427 91.446861 
L 742.611427 91.446861 
L 733.744226 91.446861 
z
" clip-path="url(#p6b976934b2)" style="fill: #a6d854; stroke: #ffffff; stroke-width: 0.5; stroke-linejoin: miter"/>
   </g>
   <g id="patch_77">
    <path d="M 766.996231 91.446861 
L 775.863432 91.446861 
L 775.863432 91.446861 
L 766.996231 91.446861 
z
" clip-path="url(#p6b976934b2)" style="fill: #a6d854; stroke: #ffffff; stroke-width: 0.5; stroke-linejoin: miter"/>
   </g>
   <g id="patch_78">
    <path d="M 800.248236 91.446861 
L 809.115438 91.446861 
L 809.115438 118.343722 
L 800.248236 118.343722 
z
" clip-path="url(#p6b976934b2)" style="fill: #a6d854; stroke: #ffffff; stroke-width: 0.5; stroke-linejoin: miter"/>
   </g>
   <g id="patch_79">
    <path d="M 833.500242 91.446861 
L 842.367443 91.446861 
L 842.367443 91.446861 
L 833.500242 91.446861 
z
" clip-path="url(#p6b976934b2)" style="fill: #a6d854; stroke: #ffffff; stroke-width: 0.5; stroke-linejoin: miter"/>
   </g>
   <g id="matplotlib.axis_5">
    <g id="xtick_15">
     <g id="line2d_41">
      <g>
       <use xlink:href="#mf021109a12" x="629.554609" y="277.288" style="stroke: #000000; stroke-width: 0.8"/>
      </g>
     </g>
     <g id="text_36">
      <!-- 10 -->
      <g transform="translate(624.464609 290.36675) scale(0.08 -0.08)">
       <use xlink:href="#DejaVuSans-31"/>
       <use xlink:href="#DejaVuSans-30" transform="translate(63.623047 0)"/>
      </g>
     </g>
    </g>
    <g id="xtick_16">
     <g id="line2d_42">
      <g>
       <use xlink:href="#mf021109a12" x="662.806614" y="277.288" style="stroke: #000000; stroke-width: 0.8"/>
      </g>
     </g>
     <g id="text_37">
      <!-- 25 -->
      <g transform="translate(657.716614 290.36675) scale(0.08 -0.08)">
       <use xlink:href="#DejaVuSans-32"/>
       <use xlink:href="#DejaVuSans-35" transform="translate(63.623047 0)"/>
      </g>
     </g>
    </g>
    <g id="xtick_17">
     <g id="line2d_43">
      <g>
       <use xlink:href="#mf021109a12" x="696.05862" y="277.288" style="stroke: #000000; stroke-width: 0.8"/>
      </g>
     </g>
     <g id="text_38">
      <!-- 50 -->
      <g transform="translate(690.96862 290.36675) scale(0.08 -0.08)">
       <use xlink:href="#DejaVuSans-35"/>
       <use xlink:href="#DejaVuSans-30" transform="translate(63.623047 0)"/>
      </g>
     </g>
    </g>
    <g id="xtick_18">
     <g id="line2d_44">
      <g>
       <use xlink:href="#mf021109a12" x="729.310625" y="277.288" style="stroke: #000000; stroke-width: 0.8"/>
      </g>
     </g>
     <g id="text_39">
      <!-- 75 -->
      <g transform="translate(724.220625 290.36675) scale(0.08 -0.08)">
       <use xlink:href="#DejaVuSans-37"/>
       <use xlink:href="#DejaVuSans-35" transform="translate(63.623047 0)"/>
      </g>
     </g>
    </g>
    <g id="xtick_19">
     <g id="line2d_45">
      <g>
       <use xlink:href="#mf021109a12" x="762.56263" y="277.288" style="stroke: #000000; stroke-width: 0.8"/>
      </g>
     </g>
     <g id="text_40">
      <!-- 100 -->
      <g transform="translate(754.92763 290.36675) scale(0.08 -0.08)">
       <use xlink:href="#DejaVuSans-31"/>
       <use xlink:href="#DejaVuSans-30" transform="translate(63.623047 0)"/>
       <use xlink:href="#DejaVuSans-30" transform="translate(127.246094 0)"/>
      </g>
     </g>
    </g>
    <g id="xtick_20">
     <g id="line2d_46">
      <g>
       <use xlink:href="#mf021109a12" x="795.814636" y="277.288" style="stroke: #000000; stroke-width: 0.8"/>
      </g>
     </g>
     <g id="text_41">
      <!-- 150 -->
      <g transform="translate(788.179636 290.36675) scale(0.08 -0.08)">
       <use xlink:href="#DejaVuSans-31"/>
       <use xlink:href="#DejaVuSans-35" transform="translate(63.623047 0)"/>
       <use xlink:href="#DejaVuSans-30" transform="translate(127.246094 0)"/>
      </g>
     </g>
    </g>
    <g id="xtick_21">
     <g id="line2d_47">
      <g>
       <use xlink:href="#mf021109a12" x="829.066641" y="277.288" style="stroke: #000000; stroke-width: 0.8"/>
      </g>
     </g>
     <g id="text_42">
      <!-- 200 -->
      <g transform="translate(821.431641 290.36675) scale(0.08 -0.08)">
       <use xlink:href="#DejaVuSans-32"/>
       <use xlink:href="#DejaVuSans-30" transform="translate(63.623047 0)"/>
       <use xlink:href="#DejaVuSans-30" transform="translate(127.246094 0)"/>
      </g>
     </g>
    </g>
    <g id="text_43">
     <!-- Capacity -->
     <g transform="translate(709.644219 302.869094) scale(0.09 -0.09)">
      <use xlink:href="#DejaVuSans-43"/>
      <use xlink:href="#DejaVuSans-61" transform="translate(69.824219 0)"/>
      <use xlink:href="#DejaVuSans-70" transform="translate(131.103516 0)"/>
      <use xlink:href="#DejaVuSans-61" transform="translate(194.580078 0)"/>
      <use xlink:href="#DejaVuSans-63" transform="translate(255.859375 0)"/>
      <use xlink:href="#DejaVuSans-69" transform="translate(310.839844 0)"/>
      <use xlink:href="#DejaVuSans-74" transform="translate(338.623047 0)"/>
      <use xlink:href="#DejaVuSans-79" transform="translate(377.832031 0)"/>
     </g>
    </g>
   </g>
   <g id="matplotlib.axis_6">
    <g id="ytick_13">
     <g id="line2d_48">
      <path d="M 604.948125 275.494506 
L 853.673125 275.494506 
" clip-path="url(#p6b976934b2)" style="fill: none; stroke: #b0b0b0; stroke-opacity: 0.25; stroke-width: 0.5; stroke-linecap: square"/>
     </g>
     <g id="line2d_49">
      <g>
       <use xlink:href="#mf42e714d3d" x="604.948125" y="275.494506" style="stroke: #000000; stroke-width: 0.8"/>
      </g>
     </g>
     <g id="text_44">
      <!-- −20 -->
      <g transform="translate(581.064375 278.533881) scale(0.08 -0.08)">
       <defs>
        <path id="DejaVuSans-2212" d="M 678 2272 
L 4684 2272 
L 4684 1741 
L 678 1741 
L 678 2272 
z
" transform="scale(0.015625)"/>
       </defs>
       <use xlink:href="#DejaVuSans-2212"/>
       <use xlink:href="#DejaVuSans-32" transform="translate(83.789062 0)"/>
       <use xlink:href="#DejaVuSans-30" transform="translate(147.412109 0)"/>
      </g>
     </g>
    </g>
    <g id="ytick_14">
     <g id="line2d_50">
      <path d="M 604.948125 229.482595 
L 853.673125 229.482595 
" clip-path="url(#p6b976934b2)" style="fill: none; stroke: #b0b0b0; stroke-opacity: 0.25; stroke-width: 0.5; stroke-linecap: square"/>
     </g>
     <g id="line2d_51">
      <g>
       <use xlink:href="#mf42e714d3d" x="604.948125" y="229.482595" style="stroke: #000000; stroke-width: 0.8"/>
      </g>
     </g>
     <g id="text_45">
      <!-- −15 -->
      <g transform="translate(581.064375 232.52197) scale(0.08 -0.08)">
       <use xlink:href="#DejaVuSans-2212"/>
       <use xlink:href="#DejaVuSans-31" transform="translate(83.789062 0)"/>
       <use xlink:href="#DejaVuSans-35" transform="translate(147.412109 0)"/>
      </g>
     </g>
    </g>
    <g id="ytick_15">
     <g id="line2d_52">
      <path d="M 604.948125 183.470684 
L 853.673125 183.470684 
" clip-path="url(#p6b976934b2)" style="fill: none; stroke: #b0b0b0; stroke-opacity: 0.25; stroke-width: 0.5; stroke-linecap: square"/>
     </g>
     <g id="line2d_53">
      <g>
       <use xlink:href="#mf42e714d3d" x="604.948125" y="183.470684" style="stroke: #000000; stroke-width: 0.8"/>
      </g>
     </g>
     <g id="text_46">
      <!-- −10 -->
      <g transform="translate(581.064375 186.510059) scale(0.08 -0.08)">
       <use xlink:href="#DejaVuSans-2212"/>
       <use xlink:href="#DejaVuSans-31" transform="translate(83.789062 0)"/>
       <use xlink:href="#DejaVuSans-30" transform="translate(147.412109 0)"/>
      </g>
     </g>
    </g>
    <g id="ytick_16">
     <g id="line2d_54">
      <path d="M 604.948125 137.458773 
L 853.673125 137.458773 
" clip-path="url(#p6b976934b2)" style="fill: none; stroke: #b0b0b0; stroke-opacity: 0.25; stroke-width: 0.5; stroke-linecap: square"/>
     </g>
     <g id="line2d_55">
      <g>
       <use xlink:href="#mf42e714d3d" x="604.948125" y="137.458773" style="stroke: #000000; stroke-width: 0.8"/>
      </g>
     </g>
     <g id="text_47">
      <!-- −5 -->
      <g transform="translate(586.154375 140.498148) scale(0.08 -0.08)">
       <use xlink:href="#DejaVuSans-2212"/>
       <use xlink:href="#DejaVuSans-35" transform="translate(83.789062 0)"/>
      </g>
     </g>
    </g>
    <g id="ytick_17">
     <g id="line2d_56">
      <path d="M 604.948125 91.446861 
L 853.673125 91.446861 
" clip-path="url(#p6b976934b2)" style="fill: none; stroke: #b0b0b0; stroke-opacity: 0.25; stroke-width: 0.5; stroke-linecap: square"/>
     </g>
     <g id="line2d_57">
      <g>
       <use xlink:href="#mf42e714d3d" x="604.948125" y="91.446861" style="stroke: #000000; stroke-width: 0.8"/>
      </g>
     </g>
     <g id="text_48">
      <!-- 0 -->
      <g transform="translate(592.858125 94.486236) scale(0.08 -0.08)">
       <use xlink:href="#DejaVuSans-30"/>
      </g>
     </g>
    </g>
   </g>
   <g id="line2d_58">
    <path d="M 604.948125 91.446861 
L 853.673125 91.446861 
" clip-path="url(#p6b976934b2)" style="fill: none; stroke: #666666; stroke-width: 0.8; stroke-linecap: square"/>
   </g>
   <g id="patch_80">
    <path d="M 604.948125 277.288 
L 604.948125 61.728 
" style="fill: none; stroke: #000000; stroke-width: 0.8; stroke-linejoin: miter; stroke-linecap: square"/>
   </g>
   <g id="patch_81">
    <path d="M 853.673125 277.288 
L 853.673125 61.728 
" style="fill: none; stroke: #000000; stroke-width: 0.8; stroke-linejoin: miter; stroke-linecap: square"/>
   </g>
   <g id="patch_82">
    <path d="M 604.948125 277.288 
L 853.673125 277.288 
" style="fill: none; stroke: #000000; stroke-width: 0.8; stroke-linejoin: miter; stroke-linecap: square"/>
   </g>
   <g id="patch_83">
    <path d="M 604.948125 61.728 
L 853.673125 61.728 
" style="fill: none; stroke: #000000; stroke-width: 0.8; stroke-linejoin: miter; stroke-linecap: square"/>
   </g>
   <g id="text_49">
    <!-- Avg CPU -->
    <g transform="translate(708.295781 55.728) scale(0.1 -0.1)">
     <defs>
      <path id="DejaVuSans-55" d="M 556 4666 
L 1191 4666 
L 1191 1831 
Q 1191 1081 1462 751 
Q 1734 422 2344 422 
Q 2950 422 3222 751 
Q 3494 1081 3494 1831 
L 3494 4666 
L 4128 4666 
L 4128 1753 
Q 4128 841 3676 375 
Q 3225 -91 2344 -91 
Q 1459 -91 1007 375 
Q 556 841 556 1753 
L 556 4666 
z
" transform="scale(0.015625)"/>
     </defs>
     <use xlink:href="#DejaVuSans-41"/>
     <use xlink:href="#DejaVuSans-76" transform="translate(62.533203 0)"/>
     <use xlink:href="#DejaVuSans-67" transform="translate(121.712891 0)"/>
     <use xlink:href="#DejaVuSans-20" transform="translate(185.189453 0)"/>
     <use xlink:href="#DejaVuSans-43" transform="translate(216.976562 0)"/>
     <use xlink:href="#DejaVuSans-50" transform="translate(286.800781 0)"/>
     <use xlink:href="#DejaVuSans-55" transform="translate(347.103516 0)"/>
    </g>
   </g>
  </g>
  <g id="axes_4">
   <g id="patch_84">
    <path d="M 888.393125 277.288 
L 1137.118125 277.288 
L 1137.118125 61.728 
L 888.393125 61.728 
z
" style="fill: #ffffff"/>
   </g>
   <g id="patch_85">
    <path d="M 899.698807 144.162244 
L 908.566008 144.162244 
L 908.566008 82.110278 
L 899.698807 82.110278 
z
" clip-path="url(#p61a1a038b5)" style="fill: #66c2a5; stroke: #ffffff; stroke-width: 0.5; stroke-linejoin: miter"/>
   </g>
   <g id="patch_86">
    <path d="M 932.950812 144.162244 
L 941.818014 144.162244 
L 941.818014 81.513487 
L 932.950812 81.513487 
z
" clip-path="url(#p61a1a038b5)" style="fill: #66c2a5; stroke: #ffffff; stroke-width: 0.5; stroke-linejoin: miter"/>
   </g>
   <g id="patch_87">
    <path d="M 966.202818 144.162244 
L 975.070019 144.162244 
L 975.070019 71.526182 
L 966.202818 71.526182 
z
" clip-path="url(#p61a1a038b5)" style="fill: #66c2a5; stroke: #ffffff; stroke-width: 0.5; stroke-linejoin: miter"/>
   </g>
   <g id="patch_88">
    <path d="M 999.454823 144.162244 
L 1008.322024 144.162244 
L 1008.322024 79.370442 
L 999.454823 79.370442 
z
" clip-path="url(#p61a1a038b5)" style="fill: #66c2a5; stroke: #ffffff; stroke-width: 0.5; stroke-linejoin: miter"/>
   </g>
   <g id="patch_89">
    <path d="M 1032.706828 144.162244 
L 1041.57403 144.162244 
L 1041.57403 144.162244 
L 1032.706828 144.162244 
z
" clip-path="url(#p61a1a038b5)" style="fill: #66c2a5; stroke: #ffffff; stroke-width: 0.5; stroke-linejoin: miter"/>
   </g>
   <g id="patch_90">
    <path d="M 1065.958834 144.162244 
L 1074.826035 144.162244 
L 1074.826035 144.162244 
L 1065.958834 144.162244 
z
" clip-path="url(#p61a1a038b5)" style="fill: #66c2a5; stroke: #ffffff; stroke-width: 0.5; stroke-linejoin: miter"/>
   </g>
   <g id="patch_91">
    <path d="M 1099.210839 144.162244 
L 1108.07804 144.162244 
L 1108.07804 144.162244 
L 1099.210839 144.162244 
z
" clip-path="url(#p61a1a038b5)" style="fill: #66c2a5; stroke: #ffffff; stroke-width: 0.5; stroke-linejoin: miter"/>
   </g>
   <g id="patch_92">
    <path d="M 908.566008 144.162244 
L 917.43321 144.162244 
L 917.43321 134.961961 
L 908.566008 134.961961 
z
" clip-path="url(#p61a1a038b5)" style="fill: #8da0cb; stroke: #ffffff; stroke-width: 0.5; stroke-linejoin: miter"/>
   </g>
   <g id="patch_93">
    <path d="M 941.818014 144.162244 
L 950.685215 144.162244 
L 950.685215 103.368805 
L 941.818014 103.368805 
z
" clip-path="url(#p61a1a038b5)" style="fill: #8da0cb; stroke: #ffffff; stroke-width: 0.5; stroke-linejoin: miter"/>
   </g>
   <g id="patch_94">
    <path d="M 975.070019 144.162244 
L 983.93722 144.162244 
L 983.93722 144.162244 
L 975.070019 144.162244 
z
" clip-path="url(#p61a1a038b5)" style="fill: #8da0cb; stroke: #ffffff; stroke-width: 0.5; stroke-linejoin: miter"/>
   </g>
   <g id="patch_95">
    <path d="M 1008.322024 144.162244 
L 1017.189226 144.162244 
L 1017.189226 144.162244 
L 1008.322024 144.162244 
z
" clip-path="url(#p61a1a038b5)" style="fill: #8da0cb; stroke: #ffffff; stroke-width: 0.5; stroke-linejoin: miter"/>
   </g>
   <g id="patch_96">
    <path d="M 1041.57403 144.162244 
L 1050.441231 144.162244 
L 1050.441231 144.162244 
L 1041.57403 144.162244 
z
" clip-path="url(#p61a1a038b5)" style="fill: #8da0cb; stroke: #ffffff; stroke-width: 0.5; stroke-linejoin: miter"/>
   </g>
   <g id="patch_97">
    <path d="M 1074.826035 144.162244 
L 1083.693236 144.162244 
L 1083.693236 144.162244 
L 1074.826035 144.162244 
z
" clip-path="url(#p61a1a038b5)" style="fill: #8da0cb; stroke: #ffffff; stroke-width: 0.5; stroke-linejoin: miter"/>
   </g>
   <g id="patch_98">
    <path d="M 1108.07804 144.162244 
L 1116.945242 144.162244 
L 1116.945242 144.162244 
L 1108.07804 144.162244 
z
" clip-path="url(#p61a1a038b5)" style="fill: #8da0cb; stroke: #ffffff; stroke-width: 0.5; stroke-linejoin: miter"/>
   </g>
   <g id="patch_99">
    <path d="M 917.43321 144.162244 
L 926.300411 144.162244 
L 926.300411 221.806834 
L 917.43321 221.806834 
z
" clip-path="url(#p61a1a038b5)" style="fill: #a6d854; stroke: #ffffff; stroke-width: 0.5; stroke-linejoin: miter"/>
   </g>
   <g id="patch_100">
    <path d="M 950.685215 144.162244 
L 959.552416 144.162244 
L 959.552416 74.242393 
L 950.685215 74.242393 
z
" clip-path="url(#p61a1a038b5)" style="fill: #a6d854; stroke: #ffffff; stroke-width: 0.5; stroke-linejoin: miter"/>
   </g>
   <g id="patch_101">
    <path d="M 983.93722 144.162244 
L 992.804422 144.162244 
L 992.804422 144.162244 
L 983.93722 144.162244 
z
" clip-path="url(#p61a1a038b5)" style="fill: #a6d854; stroke: #ffffff; stroke-width: 0.5; stroke-linejoin: miter"/>
   </g>
   <g id="patch_102">
    <path d="M 1017.189226 144.162244 
L 1026.056427 144.162244 
L 1026.056427 144.162244 
L 1017.189226 144.162244 
z
" clip-path="url(#p61a1a038b5)" style="fill: #a6d854; stroke: #ffffff; stroke-width: 0.5; stroke-linejoin: miter"/>
   </g>
   <g id="patch_103">
    <path d="M 1050.441231 144.162244 
L 1059.308432 144.162244 
L 1059.308432 144.162244 
L 1050.441231 144.162244 
z
" clip-path="url(#p61a1a038b5)" style="fill: #a6d854; stroke: #ffffff; stroke-width: 0.5; stroke-linejoin: miter"/>
   </g>
   <g id="patch_104">
    <path d="M 1083.693236 144.162244 
L 1092.560438 144.162244 
L 1092.560438 267.489818 
L 1083.693236 267.489818 
z
" clip-path="url(#p61a1a038b5)" style="fill: #a6d854; stroke: #ffffff; stroke-width: 0.5; stroke-linejoin: miter"/>
   </g>
   <g id="patch_105">
    <path d="M 1116.945242 144.162244 
L 1125.812443 144.162244 
L 1125.812443 144.162244 
L 1116.945242 144.162244 
z
" clip-path="url(#p61a1a038b5)" style="fill: #a6d854; stroke: #ffffff; stroke-width: 0.5; stroke-linejoin: miter"/>
   </g>
   <g id="matplotlib.axis_7">
    <g id="xtick_22">
     <g id="line2d_59">
      <g>
       <use xlink:href="#mf021109a12" x="912.999609" y="277.288" style="stroke: #000000; stroke-width: 0.8"/>
      </g>
     </g>
     <g id="text_50">
      <!-- 10 -->
      <g transform="translate(907.909609 290.36675) scale(0.08 -0.08)">
       <use xlink:href="#DejaVuSans-31"/>
       <use xlink:href="#DejaVuSans-30" transform="translate(63.623047 0)"/>
      </g>
     </g>
    </g>
    <g id="xtick_23">
     <g id="line2d_60">
      <g>
       <use xlink:href="#mf021109a12" x="946.251614" y="277.288" style="stroke: #000000; stroke-width: 0.8"/>
      </g>
     </g>
     <g id="text_51">
      <!-- 25 -->
      <g transform="translate(941.161614 290.36675) scale(0.08 -0.08)">
       <use xlink:href="#DejaVuSans-32"/>
       <use xlink:href="#DejaVuSans-35" transform="translate(63.623047 0)"/>
      </g>
     </g>
    </g>
    <g id="xtick_24">
     <g id="line2d_61">
      <g>
       <use xlink:href="#mf021109a12" x="979.50362" y="277.288" style="stroke: #000000; stroke-width: 0.8"/>
      </g>
     </g>
     <g id="text_52">
      <!-- 50 -->
      <g transform="translate(974.41362 290.36675) scale(0.08 -0.08)">
       <use xlink:href="#DejaVuSans-35"/>
       <use xlink:href="#DejaVuSans-30" transform="translate(63.623047 0)"/>
      </g>
     </g>
    </g>
    <g id="xtick_25">
     <g id="line2d_62">
      <g>
       <use xlink:href="#mf021109a12" x="1012.755625" y="277.288" style="stroke: #000000; stroke-width: 0.8"/>
      </g>
     </g>
     <g id="text_53">
      <!-- 75 -->
      <g transform="translate(1007.665625 290.36675) scale(0.08 -0.08)">
       <use xlink:href="#DejaVuSans-37"/>
       <use xlink:href="#DejaVuSans-35" transform="translate(63.623047 0)"/>
      </g>
     </g>
    </g>
    <g id="xtick_26">
     <g id="line2d_63">
      <g>
       <use xlink:href="#mf021109a12" x="1046.00763" y="277.288" style="stroke: #000000; stroke-width: 0.8"/>
      </g>
     </g>
     <g id="text_54">
      <!-- 100 -->
      <g transform="translate(1038.37263 290.36675) scale(0.08 -0.08)">
       <use xlink:href="#DejaVuSans-31"/>
       <use xlink:href="#DejaVuSans-30" transform="translate(63.623047 0)"/>
       <use xlink:href="#DejaVuSans-30" transform="translate(127.246094 0)"/>
      </g>
     </g>
    </g>
    <g id="xtick_27">
     <g id="line2d_64">
      <g>
       <use xlink:href="#mf021109a12" x="1079.259636" y="277.288" style="stroke: #000000; stroke-width: 0.8"/>
      </g>
     </g>
     <g id="text_55">
      <!-- 150 -->
      <g transform="translate(1071.624636 290.36675) scale(0.08 -0.08)">
       <use xlink:href="#DejaVuSans-31"/>
       <use xlink:href="#DejaVuSans-35" transform="translate(63.623047 0)"/>
       <use xlink:href="#DejaVuSans-30" transform="translate(127.246094 0)"/>
      </g>
     </g>
    </g>
    <g id="xtick_28">
     <g id="line2d_65">
      <g>
       <use xlink:href="#mf021109a12" x="1112.511641" y="277.288" style="stroke: #000000; stroke-width: 0.8"/>
      </g>
     </g>
     <g id="text_56">
      <!-- 200 -->
      <g transform="translate(1104.876641 290.36675) scale(0.08 -0.08)">
       <use xlink:href="#DejaVuSans-32"/>
       <use xlink:href="#DejaVuSans-30" transform="translate(63.623047 0)"/>
       <use xlink:href="#DejaVuSans-30" transform="translate(127.246094 0)"/>
      </g>
     </g>
    </g>
    <g id="text_57">
     <!-- Capacity -->
     <g transform="translate(993.089219 302.869094) scale(0.09 -0.09)">
      <use xlink:href="#DejaVuSans-43"/>
      <use xlink:href="#DejaVuSans-61" transform="translate(69.824219 0)"/>
      <use xlink:href="#DejaVuSans-70" transform="translate(131.103516 0)"/>
      <use xlink:href="#DejaVuSans-61" transform="translate(194.580078 0)"/>
      <use xlink:href="#DejaVuSans-63" transform="translate(255.859375 0)"/>
      <use xlink:href="#DejaVuSans-69" transform="translate(310.839844 0)"/>
      <use xlink:href="#DejaVuSans-74" transform="translate(338.623047 0)"/>
      <use xlink:href="#DejaVuSans-79" transform="translate(377.832031 0)"/>
     </g>
    </g>
   </g>
   <g id="matplotlib.axis_8">
    <g id="ytick_18">
     <g id="line2d_66">
      <path d="M 888.393125 274.093736 
L 1137.118125 274.093736 
" clip-path="url(#p61a1a038b5)" style="fill: none; stroke: #b0b0b0; stroke-opacity: 0.25; stroke-width: 0.5; stroke-linecap: square"/>
     </g>
     <g id="line2d_67">
      <g>
       <use xlink:href="#mf42e714d3d" x="888.393125" y="274.093736" style="stroke: #000000; stroke-width: 0.8"/>
      </g>
     </g>
     <g id="text_58">
      <!-- −40 -->
      <g transform="translate(864.509375 277.133111) scale(0.08 -0.08)">
       <use xlink:href="#DejaVuSans-2212"/>
       <use xlink:href="#DejaVuSans-34" transform="translate(83.789062 0)"/>
       <use xlink:href="#DejaVuSans-30" transform="translate(147.412109 0)"/>
      </g>
     </g>
    </g>
    <g id="ytick_19">
     <g id="line2d_68">
      <path d="M 888.393125 241.610863 
L 1137.118125 241.610863 
" clip-path="url(#p61a1a038b5)" style="fill: none; stroke: #b0b0b0; stroke-opacity: 0.25; stroke-width: 0.5; stroke-linecap: square"/>
     </g>
     <g id="line2d_69">
      <g>
       <use xlink:href="#mf42e714d3d" x="888.393125" y="241.610863" style="stroke: #000000; stroke-width: 0.8"/>
      </g>
     </g>
     <g id="text_59">
      <!-- −30 -->
      <g transform="translate(864.509375 244.650238) scale(0.08 -0.08)">
       <use xlink:href="#DejaVuSans-2212"/>
       <use xlink:href="#DejaVuSans-33" transform="translate(83.789062 0)"/>
       <use xlink:href="#DejaVuSans-30" transform="translate(147.412109 0)"/>
      </g>
     </g>
    </g>
    <g id="ytick_20">
     <g id="line2d_70">
      <path d="M 888.393125 209.12799 
L 1137.118125 209.12799 
" clip-path="url(#p61a1a038b5)" style="fill: none; stroke: #b0b0b0; stroke-opacity: 0.25; stroke-width: 0.5; stroke-linecap: square"/>
     </g>
     <g id="line2d_71">
      <g>
       <use xlink:href="#mf42e714d3d" x="888.393125" y="209.12799" style="stroke: #000000; stroke-width: 0.8"/>
      </g>
     </g>
     <g id="text_60">
      <!-- −20 -->
      <g transform="translate(864.509375 212.167365) scale(0.08 -0.08)">
       <use xlink:href="#DejaVuSans-2212"/>
       <use xlink:href="#DejaVuSans-32" transform="translate(83.789062 0)"/>
       <use xlink:href="#DejaVuSans-30" transform="translate(147.412109 0)"/>
      </g>
     </g>
    </g>
    <g id="ytick_21">
     <g id="line2d_72">
      <path d="M 888.393125 176.645117 
L 1137.118125 176.645117 
" clip-path="url(#p61a1a038b5)" style="fill: none; stroke: #b0b0b0; stroke-opacity: 0.25; stroke-width: 0.5; stroke-linecap: square"/>
     </g>
     <g id="line2d_73">
      <g>
       <use xlink:href="#mf42e714d3d" x="888.393125" y="176.645117" style="stroke: #000000; stroke-width: 0.8"/>
      </g>
     </g>
     <g id="text_61">
      <!-- −10 -->
      <g transform="translate(864.509375 179.684492) scale(0.08 -0.08)">
       <use xlink:href="#DejaVuSans-2212"/>
       <use xlink:href="#DejaVuSans-31" transform="translate(83.789062 0)"/>
       <use xlink:href="#DejaVuSans-30" transform="translate(147.412109 0)"/>
      </g>
     </g>
    </g>
    <g id="ytick_22">
     <g id="line2d_74">
      <path d="M 888.393125 144.162244 
L 1137.118125 144.162244 
" clip-path="url(#p61a1a038b5)" style="fill: none; stroke: #b0b0b0; stroke-opacity: 0.25; stroke-width: 0.5; stroke-linecap: square"/>
     </g>
     <g id="line2d_75">
      <g>
       <use xlink:href="#mf42e714d3d" x="888.393125" y="144.162244" style="stroke: #000000; stroke-width: 0.8"/>
      </g>
     </g>
     <g id="text_62">
      <!-- 0 -->
      <g transform="translate(876.303125 147.201619) scale(0.08 -0.08)">
       <use xlink:href="#DejaVuSans-30"/>
      </g>
     </g>
    </g>
    <g id="ytick_23">
     <g id="line2d_76">
      <path d="M 888.393125 111.679371 
L 1137.118125 111.679371 
" clip-path="url(#p61a1a038b5)" style="fill: none; stroke: #b0b0b0; stroke-opacity: 0.25; stroke-width: 0.5; stroke-linecap: square"/>
     </g>
     <g id="line2d_77">
      <g>
       <use xlink:href="#mf42e714d3d" x="888.393125" y="111.679371" style="stroke: #000000; stroke-width: 0.8"/>
      </g>
     </g>
     <g id="text_63">
      <!-- 10 -->
      <g transform="translate(871.213125 114.718746) scale(0.08 -0.08)">
       <use xlink:href="#DejaVuSans-31"/>
       <use xlink:href="#DejaVuSans-30" transform="translate(63.623047 0)"/>
      </g>
     </g>
    </g>
    <g id="ytick_24">
     <g id="line2d_78">
      <path d="M 888.393125 79.196498 
L 1137.118125 79.196498 
" clip-path="url(#p61a1a038b5)" style="fill: none; stroke: #b0b0b0; stroke-opacity: 0.25; stroke-width: 0.5; stroke-linecap: square"/>
     </g>
     <g id="line2d_79">
      <g>
       <use xlink:href="#mf42e714d3d" x="888.393125" y="79.196498" style="stroke: #000000; stroke-width: 0.8"/>
      </g>
     </g>
     <g id="text_64">
      <!-- 20 -->
      <g transform="translate(871.213125 82.235873) scale(0.08 -0.08)">
       <use xlink:href="#DejaVuSans-32"/>
       <use xlink:href="#DejaVuSans-30" transform="translate(63.623047 0)"/>
      </g>
     </g>
    </g>
   </g>
   <g id="line2d_80">
    <path d="M 888.393125 144.162244 
L 1137.118125 144.162244 
" clip-path="url(#p61a1a038b5)" style="fill: none; stroke: #666666; stroke-width: 0.8; stroke-linecap: square"/>
   </g>
   <g id="patch_106">
    <path d="M 888.393125 277.288 
L 888.393125 61.728 
" style="fill: none; stroke: #000000; stroke-width: 0.8; stroke-linejoin: miter; stroke-linecap: square"/>
   </g>
   <g id="patch_107">
    <path d="M 1137.118125 277.288 
L 1137.118125 61.728 
" style="fill: none; stroke: #000000; stroke-width: 0.8; stroke-linejoin: miter; stroke-linecap: square"/>
   </g>
   <g id="patch_108">
    <path d="M 888.393125 277.288 
L 1137.118125 277.288 
" style="fill: none; stroke: #000000; stroke-width: 0.8; stroke-linejoin: miter; stroke-linecap: square"/>
   </g>
   <g id="patch_109">
    <path d="M 888.393125 61.728 
L 1137.118125 61.728 
" style="fill: none; stroke: #000000; stroke-width: 0.8; stroke-linejoin: miter; stroke-linecap: square"/>
   </g>
   <g id="text_65">
    <!-- Latency p50 -->
    <g transform="translate(981.865781 55.728) scale(0.1 -0.1)">
     <defs>
      <path id="DejaVuSans-4c" d="M 628 4666 
L 1259 4666 
L 1259 531 
L 3531 531 
L 3531 0 
L 628 0 
L 628 4666 
z
" transform="scale(0.015625)"/>
     </defs>
     <use xlink:href="#DejaVuSans-4c"/>
     <use xlink:href="#DejaVuSans-61" transform="translate(55.712891 0)"/>
     <use xlink:href="#DejaVuSans-74" transform="translate(116.992188 0)"/>
     <use xlink:href="#DejaVuSans-65" transform="translate(156.201172 0)"/>
     <use xlink:href="#DejaVuSans-6e" transform="translate(217.724609 0)"/>
     <use xlink:href="#DejaVuSans-63" transform="translate(281.103516 0)"/>
     <use xlink:href="#DejaVuSans-79" transform="translate(336.083984 0)"/>
     <use xlink:href="#DejaVuSans-20" transform="translate(395.263672 0)"/>
     <use xlink:href="#DejaVuSans-70" transform="translate(427.050781 0)"/>
     <use xlink:href="#DejaVuSans-35" transform="translate(490.527344 0)"/>
     <use xlink:href="#DejaVuSans-30" transform="translate(554.150391 0)"/>
    </g>
   </g>
  </g>
  <g id="text_66">
   <!-- Async Advantage Over Thread (%) -->
   <g transform="translate(446.215234 17.077969) scale(0.13 -0.13)">
    <defs>
     <path id="DejaVuSans-Bold-41" d="M 3419 850 
L 1538 850 
L 1241 0 
L 31 0 
L 1759 4666 
L 3194 4666 
L 4922 0 
L 3713 0 
L 3419 850 
z
M 1838 1716 
L 3116 1716 
L 2478 3572 
L 1838 1716 
z
" transform="scale(0.015625)"/>
     <path id="DejaVuSans-Bold-73" d="M 3272 3391 
L 3272 2541 
Q 2913 2691 2578 2766 
Q 2244 2841 1947 2841 
Q 1628 2841 1473 2761 
Q 1319 2681 1319 2516 
Q 1319 2381 1436 2309 
Q 1553 2238 1856 2203 
L 2053 2175 
Q 2913 2066 3209 1816 
Q 3506 1566 3506 1031 
Q 3506 472 3093 190 
Q 2681 -91 1863 -91 
Q 1516 -91 1145 -36 
Q 775 19 384 128 
L 384 978 
Q 719 816 1070 734 
Q 1422 653 1784 653 
Q 2113 653 2278 743 
Q 2444 834 2444 1013 
Q 2444 1163 2330 1236 
Q 2216 1309 1875 1350 
L 1678 1375 
Q 931 1469 631 1722 
Q 331 1975 331 2491 
Q 331 3047 712 3315 
Q 1094 3584 1881 3584 
Q 2191 3584 2531 3537 
Q 2872 3491 3272 3391 
z
" transform="scale(0.015625)"/>
     <path id="DejaVuSans-Bold-79" d="M 78 3500 
L 1197 3500 
L 2138 1125 
L 2938 3500 
L 4056 3500 
L 2584 -331 
Q 2363 -916 2067 -1148 
Q 1772 -1381 1288 -1381 
L 641 -1381 
L 641 -647 
L 991 -647 
Q 1275 -647 1404 -556 
Q 1534 -466 1606 -231 
L 1638 -134 
L 78 3500 
z
" transform="scale(0.015625)"/>
     <path id="DejaVuSans-Bold-6e" d="M 4056 2131 
L 4056 0 
L 2931 0 
L 2931 347 
L 2931 1631 
Q 2931 2084 2911 2256 
Q 2891 2428 2841 2509 
Q 2775 2619 2662 2680 
Q 2550 2741 2406 2741 
Q 2056 2741 1856 2470 
Q 1656 2200 1656 1722 
L 1656 0 
L 538 0 
L 538 3500 
L 1656 3500 
L 1656 2988 
Q 1909 3294 2193 3439 
Q 2478 3584 2822 3584 
Q 3428 3584 3742 3212 
Q 4056 2841 4056 2131 
z
" transform="scale(0.015625)"/>
     <path id="DejaVuSans-Bold-63" d="M 3366 3391 
L 3366 2478 
Q 3138 2634 2908 2709 
Q 2678 2784 2431 2784 
Q 1963 2784 1702 2511 
Q 1441 2238 1441 1747 
Q 1441 1256 1702 982 
Q 1963 709 2431 709 
Q 2694 709 2930 787 
Q 3166 866 3366 1019 
L 3366 103 
Q 3103 6 2833 -42 
Q 2563 -91 2291 -91 
Q 1344 -91 809 395 
Q 275 881 275 1747 
Q 275 2613 809 3098 
Q 1344 3584 2291 3584 
Q 2566 3584 2833 3536 
Q 3100 3488 3366 3391 
z
" transform="scale(0.015625)"/>
     <path id="DejaVuSans-Bold-20" transform="scale(0.015625)"/>
     <path id="DejaVuSans-Bold-64" d="M 2919 2988 
L 2919 4863 
L 4044 4863 
L 4044 0 
L 2919 0 
L 2919 506 
Q 2688 197 2409 53 
Q 2131 -91 1766 -91 
Q 1119 -91 703 423 
Q 288 938 288 1747 
Q 288 2556 703 3070 
Q 1119 3584 1766 3584 
Q 2128 3584 2408 3439 
Q 2688 3294 2919 2988 
z
M 2181 722 
Q 2541 722 2730 984 
Q 2919 1247 2919 1747 
Q 2919 2247 2730 2509 
Q 2541 2772 2181 2772 
Q 1825 2772 1636 2509 
Q 1447 2247 1447 1747 
Q 1447 1247 1636 984 
Q 1825 722 2181 722 
z
" transform="scale(0.015625)"/>
     <path id="DejaVuSans-Bold-76" d="M 97 3500 
L 1216 3500 
L 2088 1081 
L 2956 3500 
L 4078 3500 
L 2700 0 
L 1472 0 
L 97 3500 
z
" transform="scale(0.015625)"/>
     <path id="DejaVuSans-Bold-61" d="M 2106 1575 
Q 1756 1575 1579 1456 
Q 1403 1338 1403 1106 
Q 1403 894 1545 773 
Q 1688 653 1941 653 
Q 2256 653 2472 879 
Q 2688 1106 2688 1447 
L 2688 1575 
L 2106 1575 
z
M 3816 1997 
L 3816 0 
L 2688 0 
L 2688 519 
Q 2463 200 2181 54 
Q 1900 -91 1497 -91 
Q 953 -91 614 226 
Q 275 544 275 1050 
Q 275 1666 698 1953 
Q 1122 2241 2028 2241 
L 2688 2241 
L 2688 2328 
Q 2688 2594 2478 2717 
Q 2269 2841 1825 2841 
Q 1466 2841 1156 2769 
Q 847 2697 581 2553 
L 581 3406 
Q 941 3494 1303 3539 
Q 1666 3584 2028 3584 
Q 2975 3584 3395 3211 
Q 3816 2838 3816 1997 
z
" transform="scale(0.015625)"/>
     <path id="DejaVuSans-Bold-74" d="M 1759 4494 
L 1759 3500 
L 2913 3500 
L 2913 2700 
L 1759 2700 
L 1759 1216 
Q 1759 972 1856 886 
Q 1953 800 2241 800 
L 2816 800 
L 2816 0 
L 1856 0 
Q 1194 0 917 276 
Q 641 553 641 1216 
L 641 2700 
L 84 2700 
L 84 3500 
L 641 3500 
L 641 4494 
L 1759 4494 
z
" transform="scale(0.015625)"/>
     <path id="DejaVuSans-Bold-67" d="M 2919 594 
Q 2688 288 2409 144 
Q 2131 0 1766 0 
Q 1125 0 706 504 
Q 288 1009 288 1791 
Q 288 2575 706 3076 
Q 1125 3578 1766 3578 
Q 2131 3578 2409 3434 
Q 2688 3291 2919 2981 
L 2919 3500 
L 4044 3500 
L 4044 353 
Q 4044 -491 3511 -936 
Q 2978 -1381 1966 -1381 
Q 1638 -1381 1331 -1331 
Q 1025 -1281 716 -1178 
L 716 -306 
Q 1009 -475 1290 -558 
Q 1572 -641 1856 -641 
Q 2406 -641 2662 -400 
Q 2919 -159 2919 353 
L 2919 594 
z
M 2181 2772 
Q 1834 2772 1640 2515 
Q 1447 2259 1447 1791 
Q 1447 1309 1634 1061 
Q 1822 813 2181 813 
Q 2531 813 2725 1069 
Q 2919 1325 2919 1791 
Q 2919 2259 2725 2515 
Q 2531 2772 2181 2772 
z
" transform="scale(0.015625)"/>
     <path id="DejaVuSans-Bold-65" d="M 4031 1759 
L 4031 1441 
L 1416 1441 
Q 1456 1047 1700 850 
Q 1944 653 2381 653 
Q 2734 653 3104 758 
Q 3475 863 3866 1075 
L 3866 213 
Q 3469 63 3072 -14 
Q 2675 -91 2278 -91 
Q 1328 -91 801 392 
Q 275 875 275 1747 
Q 275 2603 792 3093 
Q 1309 3584 2216 3584 
Q 3041 3584 3536 3087 
Q 4031 2591 4031 1759 
z
M 2881 2131 
Q 2881 2450 2695 2645 
Q 2509 2841 2209 2841 
Q 1884 2841 1681 2658 
Q 1478 2475 1428 2131 
L 2881 2131 
z
" transform="scale(0.015625)"/>
     <path id="DejaVuSans-Bold-4f" d="M 2719 3878 
Q 2169 3878 1866 3472 
Q 1563 3066 1563 2328 
Q 1563 1594 1866 1187 
Q 2169 781 2719 781 
Q 3272 781 3575 1187 
Q 3878 1594 3878 2328 
Q 3878 3066 3575 3472 
Q 3272 3878 2719 3878 
z
M 2719 4750 
Q 3844 4750 4481 4106 
Q 5119 3463 5119 2328 
Q 5119 1197 4481 553 
Q 3844 -91 2719 -91 
Q 1597 -91 958 553 
Q 319 1197 319 2328 
Q 319 3463 958 4106 
Q 1597 4750 2719 4750 
z
" transform="scale(0.015625)"/>
     <path id="DejaVuSans-Bold-72" d="M 3138 2547 
Q 2991 2616 2845 2648 
Q 2700 2681 2553 2681 
Q 2122 2681 1889 2404 
Q 1656 2128 1656 1613 
L 1656 0 
L 538 0 
L 538 3500 
L 1656 3500 
L 1656 2925 
Q 1872 3269 2151 3426 
Q 2431 3584 2822 3584 
Q 2878 3584 2943 3579 
Q 3009 3575 3134 3559 
L 3138 2547 
z
" transform="scale(0.015625)"/>
     <path id="DejaVuSans-Bold-54" d="M 31 4666 
L 4331 4666 
L 4331 3756 
L 2784 3756 
L 2784 0 
L 1581 0 
L 1581 3756 
L 31 3756 
L 31 4666 
z
" transform="scale(0.015625)"/>
     <path id="DejaVuSans-Bold-68" d="M 4056 2131 
L 4056 0 
L 2931 0 
L 2931 347 
L 2931 1625 
Q 2931 2084 2911 2256 
Q 2891 2428 2841 2509 
Q 2775 2619 2662 2680 
Q 2550 2741 2406 2741 
Q 2056 2741 1856 2470 
Q 1656 2200 1656 1722 
L 1656 0 
L 538 0 
L 538 4863 
L 1656 4863 
L 1656 2988 
Q 1909 3294 2193 3439 
Q 2478 3584 2822 3584 
Q 3428 3584 3742 3212 
Q 4056 2841 4056 2131 
z
" transform="scale(0.015625)"/>
     <path id="DejaVuSans-Bold-28" d="M 2413 -844 
L 1484 -844 
Q 1006 -72 778 623 
Q 550 1319 550 2003 
Q 550 2688 779 3389 
Q 1009 4091 1484 4856 
L 2413 4856 
Q 2013 4116 1813 3408 
Q 1613 2700 1613 2009 
Q 1613 1319 1811 609 
Q 2009 -100 2413 -844 
z
" transform="scale(0.015625)"/>
     <path id="DejaVuSans-Bold-25" d="M 4959 1925 
Q 4738 1925 4616 1733 
Q 4494 1541 4494 1184 
Q 4494 825 4614 633 
Q 4734 441 4959 441 
Q 5184 441 5303 633 
Q 5422 825 5422 1184 
Q 5422 1541 5301 1733 
Q 5181 1925 4959 1925 
z
M 4959 2450 
Q 5541 2450 5875 2112 
Q 6209 1775 6209 1184 
Q 6209 594 5875 251 
Q 5541 -91 4959 -91 
Q 4378 -91 4042 251 
Q 3706 594 3706 1184 
Q 3706 1772 4042 2111 
Q 4378 2450 4959 2450 
z
M 2094 -91 
L 1403 -91 
L 4319 4750 
L 5013 4750 
L 2094 -91 
z
M 1453 4750 
Q 2034 4750 2367 4411 
Q 2700 4072 2700 3481 
Q 2700 2891 2367 2550 
Q 2034 2209 1453 2209 
Q 872 2209 539 2550 
Q 206 2891 206 3481 
Q 206 4072 539 4411 
Q 872 4750 1453 4750 
z
M 1453 4225 
Q 1228 4225 1106 4031 
Q 984 3838 984 3481 
Q 984 3122 1106 2926 
Q 1228 2731 1453 2731 
Q 1678 2731 1798 2926 
Q 1919 3122 1919 3481 
Q 1919 3838 1797 4031 
Q 1675 4225 1453 4225 
z
" transform="scale(0.015625)"/>
     <path id="DejaVuSans-Bold-29" d="M 513 -844 
Q 913 -100 1113 609 
Q 1313 1319 1313 2009 
Q 1313 2700 1113 3408 
Q 913 4116 513 4856 
L 1441 4856 
Q 1916 4091 2145 3389 
Q 2375 2688 2375 2003 
Q 2375 1319 2147 623 
Q 1919 -72 1441 -844 
L 513 -844 
z
" transform="scale(0.015625)"/>
    </defs>
    <use xlink:href="#DejaVuSans-Bold-41"/>
    <use xlink:href="#DejaVuSans-Bold-73" transform="translate(77.392578 0)"/>
    <use xlink:href="#DejaVuSans-Bold-79" transform="translate(136.914062 0)"/>
    <use xlink:href="#DejaVuSans-Bold-6e" transform="translate(202.099609 0)"/>
    <use xlink:href="#DejaVuSans-Bold-63" transform="translate(273.291016 0)"/>
    <use xlink:href="#DejaVuSans-Bold-20" transform="translate(332.568359 0)"/>
    <use xlink:href="#DejaVuSans-Bold-41" transform="translate(367.382812 0)"/>
    <use xlink:href="#DejaVuSans-Bold-64" transform="translate(444.775391 0)"/>
    <use xlink:href="#DejaVuSans-Bold-76" transform="translate(516.357422 0)"/>
    <use xlink:href="#DejaVuSans-Bold-61" transform="translate(581.542969 0)"/>
    <use xlink:href="#DejaVuSans-Bold-6e" transform="translate(649.023438 0)"/>
    <use xlink:href="#DejaVuSans-Bold-74" transform="translate(720.214844 0)"/>
    <use xlink:href="#DejaVuSans-Bold-61" transform="translate(768.017578 0)"/>
    <use xlink:href="#DejaVuSans-Bold-67" transform="translate(835.498047 0)"/>
    <use xlink:href="#DejaVuSans-Bold-65" transform="translate(907.080078 0)"/>
    <use xlink:href="#DejaVuSans-Bold-20" transform="translate(974.902344 0)"/>
    <use xlink:href="#DejaVuSans-Bold-4f" transform="translate(1009.716797 0)"/>
    <use xlink:href="#DejaVuSans-Bold-76" transform="translate(1094.726562 0)"/>
    <use xlink:href="#DejaVuSans-Bold-65" transform="translate(1159.912109 0)"/>
    <use xlink:href="#DejaVuSans-Bold-72" transform="translate(1227.734375 0)"/>
    <use xlink:href="#DejaVuSans-Bold-20" transform="translate(1277.050781 0)"/>
    <use xlink:href="#DejaVuSans-Bold-54" transform="translate(1311.865234 0)"/>
    <use xlink:href="#DejaVuSans-Bold-68" transform="translate(1380.078125 0)"/>
    <use xlink:href="#DejaVuSans-Bold-72" transform="translate(1451.269531 0)"/>
    <use xlink:href="#DejaVuSans-Bold-65" transform="translate(1500.585938 0)"/>
    <use xlink:href="#DejaVuSans-Bold-61" transform="translate(1568.408203 0)"/>
    <use xlink:href="#DejaVuSans-Bold-64" transform="translate(1635.888672 0)"/>
    <use xlink:href="#DejaVuSans-Bold-20" transform="translate(1707.470703 0)"/>
    <use xlink:href="#DejaVuSans-Bold-28" transform="translate(1742.285156 0)"/>
    <use xlink:href="#DejaVuSans-Bold-25" transform="translate(1787.988281 0)"/>
    <use xlink:href="#DejaVuSans-Bold-29" transform="translate(1888.183594 0)"/>
   </g>
  </g>
 </g>
 <defs>
  <clipPath id="pa7527c81e3">
   <rect x="38.058125" y="61.728" width="248.725" height="215.56"/>
  </clipPath>
  <clipPath id="pb3dc2cf6bd">
   <rect x="321.503125" y="61.728" width="248.725" height="215.56"/>
  </clipPath>
  <clipPath id="p6b976934b2">
   <rect x="604.948125" y="61.728" width="248.725" height="215.56"/>
  </clipPath>
  <clipPath id="p61a1a038b5">
   <rect x="888.393125" y="61.728" width="248.725" height="215.56"/>
  </clipPath>
 </defs>
</svg>
